<?xml version="1.0" standalone="no"?>
<!DOCTYPE svg PUBLIC "-//W3C//DTD SVG 20010904//EN"
 "http://www.w3.org/TR/2001/REC-SVG-20010904/DTD/svg10.dtd">
<svg version="1.0" xmlns="http://www.w3.org/2000/svg"
 width="3508.000000pt" height="4961.000000pt" viewBox="0 0 3508.000000 4961.000000"
 preserveAspectRatio="xMidYMid meet">
<metadata>
Created by potrace 1.16, written by Peter Selinger 2001-2019
</metadata>
<g transform="translate(0.000000,4961.000000) scale(0.100000,-0.100000)"
fill="#b1a895" stroke="none">
<path d="M6232 38949 c-22 -8 -44 -47 -35 -61 2 -5 -17 -8 -42 -8 -28 0 -44
-4 -40 -10 4 -6 -7 -10 -24 -10 -17 0 -31 -4 -31 -9 0 -4 -27 -14 -60 -21 -33
-7 -60 -17 -60 -23 0 -5 -15 -7 -36 -4 -28 5 -35 3 -30 -8 6 -15 -29 -41 -37
-28 -3 5 -45 10 -94 11 -48 2 -90 7 -93 12 -3 4 -27 7 -55 6 -27 0 -93 1 -145
2 -112 3 -147 0 -177 -16 -12 -7 -35 -12 -51 -12 -16 0 -44 -6 -62 -14 -25
-10 -39 -11 -61 -2 -16 6 -29 14 -29 18 0 4 -7 8 -16 8 -21 0 -94 41 -94 53 0
5 -6 4 -13 -2 -10 -8 -19 -6 -36 10 -25 24 -57 21 -53 -4 4 -21 -11 -22 -28
-2 -7 8 -16 12 -21 9 -12 -7 -11 -24 1 -24 6 0 19 -9 30 -20 18 -18 19 -21 4
-27 -9 -3 -25 -1 -36 6 -15 9 -20 8 -25 -6 -4 -10 -11 -21 -16 -24 -6 -4 -6
-15 -2 -25 6 -15 8 -16 13 -4 7 19 28 40 40 40 5 0 17 -9 27 -20 10 -11 28
-20 40 -20 27 0 45 -18 45 -47 0 -16 -6 -23 -20 -23 -11 0 -20 -6 -20 -13 0
-9 10 -12 30 -9 17 2 30 8 30 12 0 4 12 12 26 18 21 10 28 9 41 -4 14 -14 14
-16 -6 -21 -21 -5 -31 -43 -11 -43 6 0 10 -7 10 -16 0 -13 7 -15 40 -9 26 4
40 3 40 -4 0 -6 13 -11 29 -11 32 0 47 22 31 48 -5 10 -10 12 -10 5 0 -7 -11
-13 -25 -13 -28 0 -30 3 -13 30 7 10 8 23 4 27 -5 4 -11 2 -13 -4 -9 -24 -23
-13 -23 16 0 48 60 52 122 10 14 -11 33 -19 41 -19 9 0 17 -5 19 -11 5 -16 86
-18 99 -3 6 8 24 14 39 14 16 0 30 4 32 9 2 5 26 12 53 15 81 10 115 18 115
27 0 10 100 12 124 3 26 -10 18 -31 -14 -37 -31 -7 -43 -37 -14 -37 9 0 25
-10 36 -22 16 -19 22 -20 38 -10 24 15 57 16 65 2 3 -5 22 -10 41 -10 36 0 40
-5 24 -30 -6 -10 -10 -11 -10 -2 0 6 -9 12 -20 12 -11 0 -20 -4 -20 -10 0 -5
-11 -10 -25 -10 -14 0 -25 5 -25 10 0 6 -9 10 -20 10 -11 0 -20 -6 -20 -14 0
-8 -6 -17 -12 -19 -7 -3 -1 -6 15 -6 15 -1 27 -6 27 -12 0 -8 14 -10 44 -6 38
6 46 3 70 -22 32 -33 31 -64 -1 -66 -13 -1 -26 -5 -30 -9 -5 -5 27 -5 69 -1
74 7 78 6 103 -19 14 -14 38 -29 53 -32 15 -4 38 -13 51 -21 23 -15 24 -15 17
11 -6 24 -4 26 24 26 16 0 30 -4 30 -10 0 -5 9 -10 20 -10 13 0 20 7 20 19 0
14 -12 22 -46 30 -42 11 -47 10 -64 -11 -11 -13 -19 -18 -20 -12 0 7 -9 14
-20 17 -28 7 -30 87 -2 87 19 0 42 18 42 32 0 4 -12 8 -26 8 -17 0 -28 6 -31
20 -3 11 -14 20 -24 20 -11 0 -19 7 -19 16 0 11 -5 14 -16 10 -11 -4 -27 6
-48 29 -30 32 -55 48 -41 25 3 -5 1 -18 -4 -27 -9 -15 -10 -13 -11 15 0 17 -4
32 -10 32 -5 0 -10 -4 -10 -10 0 -5 -7 -10 -15 -10 -18 0 -21 51 -5 81 13 23
60 26 60 4 0 -8 5 -15 11 -15 6 0 9 6 6 13 -3 8 -2 18 1 23 10 14 88 38 101
30 10 -6 50 11 62 27 3 4 50 8 105 8 63 1 102 5 107 12 6 9 10 9 14 0 2 -8 22
-13 45 -13 29 0 45 -6 59 -22 19 -23 19 -23 34 -4 8 11 15 26 15 33 0 7 7 13
15 13 12 0 14 -7 10 -27 -6 -25 -5 -26 8 -11 11 14 16 15 26 5 9 -9 14 -9 21
3 7 12 10 10 17 -8 8 -22 9 -22 29 -4 16 16 37 19 109 20 49 1 94 -3 99 -7 6
-5 31 -11 56 -14 25 -2 61 -11 81 -19 37 -14 37 -14 0 -27 -55 -20 -110 -24
-150 -13 -49 15 -121 22 -121 12 0 -4 9 -10 21 -13 34 -9 3 -44 -45 -51 -83
-11 -116 -18 -116 -27 0 -5 -25 -9 -56 -9 -34 0 -53 -4 -49 -10 4 -6 -8 -10
-29 -10 -19 0 -38 -4 -41 -10 -3 -5 -22 -10 -41 -10 -19 0 -34 -4 -34 -10 0
-5 -18 -10 -40 -10 -22 0 -40 5 -40 10 0 6 -8 10 -18 10 -10 0 -29 10 -41 21
-18 17 -25 19 -31 9 -6 -9 -10 -7 -15 9 -3 11 -13 21 -20 21 -19 0 -34 28 -27
53 5 20 7 20 -55 2 -19 -5 -23 -2 -23 14 0 12 -4 21 -10 21 -5 0 -10 -11 -10
-25 0 -14 4 -25 10 -25 5 0 27 -16 47 -36 21 -19 54 -43 73 -52 35 -16 70 -48
70 -64 0 -4 20 -8 45 -8 25 0 45 -4 45 -10 0 -5 9 -10 20 -10 11 0 20 -6 20
-14 0 -12 20 -26 36 -26 14 0 0 40 -16 45 -11 3 -20 12 -20 19 0 19 55 39 85
32 18 -5 25 -2 25 8 0 8 14 16 38 19 49 8 124 22 192 37 30 6 60 12 65 14 6 1
16 5 23 10 8 4 32 10 55 13 71 8 247 8 247 1 0 -5 7 -8 16 -8 13 0 14 3 5 14
-9 11 0 16 46 29 104 29 132 29 233 2 52 -15 111 -29 130 -32 19 -3 40 -9 45
-13 6 -4 53 -22 105 -41 52 -18 97 -35 100 -38 10 -12 60 -34 65 -29 8 8 -6
38 -17 38 -5 0 -16 7 -24 15 -14 13 -14 16 2 22 9 3 24 1 33 -5 9 -7 23 -15
31 -18 55 -21 57 -22 33 -30 -13 -3 -23 -8 -23 -11 0 -11 51 -53 65 -53 21 0
19 25 -4 36 -17 8 -18 11 -6 28 16 22 65 15 65 -9 0 -8 5 -15 10 -15 6 0 10
11 10 24 0 13 6 27 13 29 6 3 -7 6 -30 6 -24 1 -43 6 -43 11 0 6 -13 10 -29
10 -17 0 -33 5 -36 10 -3 6 -15 10 -26 10 -11 0 -30 7 -43 15 -13 9 -28 15
-32 13 -5 -1 -19 3 -32 10 -12 7 -27 10 -33 6 -19 -11 -59 18 -59 43 0 13 5
23 12 23 6 0 9 3 5 6 -3 3 -39 8 -79 10 -74 4 -128 19 -128 35 0 5 -27 9 -60
9 -33 0 -60 4 -60 10 0 6 -4 10 -10 10 -5 0 -10 -7 -10 -15 0 -8 -4 -15 -10
-15 -5 0 -10 5 -10 11 0 24 -30 39 -79 39 -28 0 -51 5 -51 10 0 6 -37 10 -90
10 -53 0 -90 4 -90 10 0 6 -18 10 -40 10 -22 0 -40 4 -40 9 0 13 -264 11 -272
-3 -6 -8 -11 -7 -17 3 -8 12 -12 12 -24 2 -12 -9 -16 -9 -19 0 -3 10 -12 10
-38 1 -48 -17 -185 -16 -199 2 -16 19 -42 25 -69 15z m328 -79 c0 -12 -24 -15
-91 -12 -85 5 -73 21 16 21 41 0 75 -4 75 -9z m555 -40 c3 -5 1 -10 -4 -10 -6
0 -11 5 -11 10 0 6 2 10 4 10 3 0 8 -4 11 -10z m144 -16 c2 -2 -4 -10 -13 -19
-12 -12 -20 -14 -36 -5 -36 19 -22 43 19 33 14 -3 28 -7 30 -9z m-2302 -34
c-4 -16 2 -22 30 -29 19 -5 41 -7 49 -4 10 4 14 -3 14 -26 0 -26 -4 -31 -23
-31 -26 0 -77 21 -77 33 0 4 -12 7 -28 7 -32 0 -59 32 -39 48 14 11 33 17 59
19 15 2 19 -3 15 -17z m2501 -9 c33 -16 85 -30 93 -25 5 3 14 0 21 -5 7 -6 24
-20 38 -31 25 -19 25 -19 -22 -20 -26 0 -50 5 -53 10 -3 6 -17 10 -31 10 -14
0 -32 6 -39 13 -8 6 -21 18 -30 25 -8 7 -13 17 -10 23 8 11 11 11 33 0z
m-1598 -75 c0 -8 -4 -18 -10 -21 -5 -3 -10 -4 -10 -1 0 2 -3 11 -6 20 -4 11
-1 16 10 16 9 0 16 -6 16 -14z m1810 -16 c0 -5 -7 -7 -15 -4 -8 4 -15 8 -15
10 0 2 7 4 15 4 8 0 15 -4 15 -10z m55 -20 c-3 -5 -13 -10 -21 -10 -8 0 -14 5
-14 10 0 6 9 10 21 10 11 0 17 -4 14 -10z m-1747 -120 c0 -27 -3 -50 -6 -50
-15 0 -52 46 -51 64 0 12 3 15 6 9 8 -21 33 -15 33 7 0 11 4 20 9 20 6 0 10
-22 9 -50z m82 -15 c0 -14 -4 -25 -10 -25 -5 0 -10 5 -10 11 0 6 -9 8 -20 4
-16 -5 -20 -2 -20 14 0 17 6 21 30 21 25 0 30 -4 30 -25z"/>
<path d="M5585 37157 c-5 -7 -17 -25 -25 -40 -8 -16 -28 -43 -45 -60 -34 -36
-33 -29 -21 -313 7 -159 3 -170 -67 -160 -45 7 -47 9 -47 41 0 28 -3 32 -20
28 -11 -3 -20 -9 -20 -14 0 -5 -5 -9 -11 -9 -6 0 -9 8 -7 18 2 10 11 16 21 14
12 -2 17 4 17 23 0 14 -2 25 -4 25 -10 0 -74 -66 -91 -92 -17 -28 -17 -28 9
-28 14 0 26 5 26 10 0 6 5 10 10 10 6 0 10 -7 10 -15 0 -8 -4 -15 -8 -15 -5 0
-9 -7 -9 -15 0 -9 10 -15 23 -15 13 0 26 -4 29 -10 3 -5 1 -10 -4 -10 -6 0
-11 -4 -11 -10 0 -15 37 -12 54 5 8 8 22 15 31 15 8 0 18 7 21 15 16 40 54 0
54 -56 0 -41 0 -42 -20 -24 -32 29 -100 17 -100 -19 0 -6 -19 -28 -42 -49 -32
-29 -39 -40 -28 -47 11 -7 10 -11 -3 -25 -10 -9 -17 -20 -17 -25 0 -5 -12 -21
-26 -35 -14 -14 -24 -34 -22 -46 3 -19 4 -19 32 3 16 13 44 38 62 56 18 17 36
32 39 32 14 0 3 -37 -15 -50 -11 -8 -20 -21 -20 -30 0 -9 9 -22 20 -30 26 -19
25 -26 -6 -57 -24 -24 -25 -28 -10 -38 9 -7 16 -24 16 -39 0 -22 4 -26 28 -26
16 0 34 8 42 20 8 11 22 20 30 20 19 0 40 19 40 36 0 8 -13 10 -42 7 -39 -6
-41 -5 -35 16 3 14 0 24 -9 28 -16 6 -20 63 -4 63 6 0 10 -6 10 -13 0 -8 8
-21 18 -30 16 -14 19 -13 43 6 47 39 80 101 86 161 4 38 10 56 19 56 8 0 14
-4 14 -10 0 -5 11 -10 25 -10 14 0 25 4 25 9 0 5 8 12 18 15 30 10 60 106 32
106 -5 0 -10 14 -10 30 0 17 -4 30 -10 30 -6 0 -9 3 -9 8 3 18 -2 32 -11 32
-5 0 -10 -8 -10 -18 0 -18 -18 -42 -30 -42 -4 0 -8 47 -9 105 -1 68 2 105 8
105 6 0 11 9 11 20 0 11 6 29 13 41 10 17 9 22 -9 37 -12 9 -25 27 -29 40 -3
12 -11 22 -17 22 -6 0 -7 15 -3 40 7 40 -1 50 -23 28 -9 -9 -12 -9 -12 -1 0 7
5 15 10 18 6 3 10 20 10 36 0 20 10 40 31 60 25 25 29 33 18 40 -18 11 -22 11
-34 -4z"/>
<path d="M2680 36433 c0 -57 -14 -87 -30 -63 -6 10 -7 -32 -3 -122 6 -140 -3
-198 -32 -198 -22 0 -26 -30 -9 -63 9 -18 36 -61 59 -97 24 -36 51 -84 60
-107 10 -24 21 -43 26 -43 17 0 9 -40 -11 -60 -11 -11 -20 -29 -20 -40 0 -22
16 -27 22 -8 2 6 12 9 21 5 15 -5 17 -22 17 -117 0 -67 -4 -110 -10 -110 -6 0
-10 -57 -10 -150 0 -102 -4 -157 -12 -170 -10 -16 -10 -24 0 -40 6 -11 12 -31
12 -45 0 -14 5 -25 10 -25 6 0 10 -24 10 -54 0 -34 5 -57 13 -60 10 -5 10 -7
0 -12 -15 -7 -17 -44 -3 -44 6 0 10 -13 10 -30 0 -23 4 -30 20 -30 17 0 20 7
20 40 0 22 -4 40 -10 40 -5 0 -10 25 -10 55 0 30 -4 55 -9 55 -5 0 -12 28 -15
63 -3 34 -8 86 -12 115 -4 35 -2 52 5 52 7 0 11 40 11 120 0 73 4 120 10 120
6 0 10 14 10 30 0 17 -4 30 -10 30 -5 0 -10 20 -10 45 0 25 5 45 10 45 6 0 10
23 10 50 0 28 5 50 10 50 6 0 10 7 10 16 0 9 9 25 21 35 15 12 19 27 17 51 -3
33 -3 33 -22 -2 -10 -19 -20 -37 -22 -39 -7 -8 -34 29 -34 48 0 11 -4 23 -10
26 -5 3 -10 17 -10 30 0 13 -4 27 -10 30 -5 3 -10 19 -10 36 0 16 5 29 10 29
6 0 10 15 10 34 0 19 -4 38 -10 41 -5 3 -10 17 -10 31 0 13 -4 24 -10 24 -5 0
-10 15 -10 34 0 19 -4 38 -10 41 -5 3 -10 17 -10 31 0 13 -5 24 -11 24 -8 0
-8 4 0 14 8 9 8 15 2 18 -6 1 -14 31 -17 66 -6 57 -5 62 12 62 16 0 20 8 22
47 2 46 -17 93 -38 93 -6 0 -10 -21 -10 -47z"/>
<path d="M9240 35770 c0 -7 -14 -11 -37 -9 -58 3 -63 1 -63 -26 0 -46 81 -111
145 -117 22 -2 29 -8 27 -20 -1 -9 11 -26 28 -38 34 -24 47 -22 32 6 -12 21
-4 54 13 54 17 0 28 -31 19 -53 -4 -11 6 -22 35 -36 22 -12 44 -27 48 -35 4
-8 28 -21 52 -30 42 -14 46 -14 61 5 10 10 24 19 31 19 14 0 52 -49 65 -82 9
-25 54 -24 54 1 0 10 -7 24 -15 31 -8 7 -15 19 -15 26 0 8 -15 31 -33 51 -19
21 -40 53 -48 71 -8 17 -17 32 -21 32 -17 0 -47 45 -43 64 7 27 -15 67 -41 77
-19 7 -52 -3 -107 -32 -17 -9 -39 -1 -57 22 -3 4 -25 9 -50 11 -25 3 -53 8
-62 12 -12 5 -18 4 -18 -4z m143 -67 c-2 -7 2 -24 7 -38 7 -19 6 -25 -5 -25
-7 0 -17 9 -20 20 -3 11 -13 20 -21 20 -16 0 -16 2 -8 25 7 18 50 16 47 -2z
m202 -163 c3 -6 -1 -13 -9 -16 -16 -6 -70 39 -59 50 7 6 59 -20 68 -34z"/>
<path d="M8291 35745 c-7 -17 -15 -25 -19 -19 -13 21 -51 34 -96 34 -41 0 -46
-3 -52 -25 -4 -18 -15 -28 -35 -32 -36 -7 -36 -10 -3 -38 18 -15 25 -30 22
-42 -7 -25 21 -43 67 -43 19 0 35 -4 35 -9 0 -5 9 -13 20 -16 11 -3 20 -15 20
-25 0 -14 11 -22 38 -29 20 -6 44 -20 52 -31 8 -11 20 -20 27 -20 7 0 13 -4
13 -10 0 -5 10 -10 23 -10 13 0 33 -9 44 -19 24 -22 33 -18 33 16 0 16 6 23
19 23 11 0 21 -5 23 -11 5 -16 55 10 61 32 3 11 12 19 21 19 9 0 16 7 16 16 0
11 -5 14 -16 10 -8 -3 -22 1 -31 9 -18 18 -33 11 -33 -16 0 -10 -4 -19 -10
-19 -5 0 -10 10 -10 23 0 23 -17 47 -32 47 -4 0 -8 -9 -8 -20 0 -11 -7 -23
-15 -27 -20 -7 -22 -4 -27 27 -2 18 3 28 20 35 21 9 31 40 15 47 -13 5 -63
104 -63 122 0 14 -4 13 -24 -6 -57 -56 -65 -60 -83 -43 -14 15 -14 17 6 22 21
5 30 23 12 23 -5 0 -11 8 -14 18 -3 13 -7 10 -16 -13z"/>
<path d="M839 35447 c-32 -32 -59 -65 -59 -75 0 -4 -9 -14 -20 -22 -11 -8 -20
-20 -20 -27 0 -7 -21 -32 -46 -55 -44 -40 -45 -44 -39 -83 6 -38 7 -58 3 -192
-1 -63 6 -100 28 -150 8 -17 14 -40 14 -52 0 -15 6 -21 21 -21 26 0 62 -38 54
-58 -3 -7 -5 -16 -5 -18 0 -2 -6 -4 -12 -4 -7 0 -22 15 -32 33 -19 32 -19 32
-28 -3 -12 -49 -47 -161 -57 -185 -17 -41 -31 -92 -31 -113 0 -12 -4 -22 -10
-22 -5 0 -10 -13 -10 -30 0 -16 -4 -30 -10 -30 -5 0 -10 -16 -10 -35 0 -19 -4
-35 -10 -35 -5 0 -10 -25 -10 -55 0 -30 -4 -55 -10 -55 -6 0 -10 -38 -10 -95
0 -52 -4 -95 -9 -95 -5 0 -12 -30 -15 -67 -2 -38 -10 -104 -17 -148 -19 -127
-11 -466 13 -512 6 -13 7 -33 3 -50 -5 -15 -8 -75 -7 -133 2 -159 4 -180 20
-180 11 0 13 -10 9 -41 -4 -32 -2 -39 9 -35 18 7 19 -35 1 -53 -10 -10 -8 -12
8 -9 34 7 65 -39 65 -95 0 -26 4 -56 10 -67 6 -11 15 -29 21 -41 7 -15 7 -25
-2 -35 -9 -11 -8 -14 4 -14 22 0 48 -55 33 -71 -8 -9 -6 -11 11 -6 17 4 24 -2
33 -23 6 -15 22 -38 36 -51 13 -12 24 -27 24 -33 0 -5 -13 3 -30 19 -16 16
-33 25 -37 22 -10 -11 50 -69 67 -64 16 4 27 -5 46 -38 21 -38 34 -29 34 24 0
42 -3 51 -17 51 -16 0 -43 40 -43 63 0 9 25 37 34 37 3 0 6 -14 6 -31 0 -27
19 -59 34 -59 3 0 6 23 6 50 0 28 -4 50 -10 50 -5 0 -10 7 -10 15 0 8 -4 15
-10 15 -5 0 -10 -7 -10 -15 0 -24 -17 -17 -24 10 -7 29 2 77 17 87 6 3 9 36 8
73 -2 64 -1 66 18 60 17 -5 21 -2 21 14 0 12 -4 21 -10 21 -5 0 -10 11 -10 25
0 14 -4 25 -8 25 -4 0 -13 15 -20 33 -13 35 -16 77 -6 77 11 0 34 -29 34 -44
0 -9 5 -16 10 -16 6 0 10 -7 10 -15 0 -8 5 -15 10 -15 6 0 10 -7 10 -15 0 -8
5 -15 10 -15 6 0 10 -13 10 -29 0 -18 6 -31 16 -35 9 -4 17 -5 18 -4 1 2 7 11
15 20 10 13 10 21 0 40 -7 13 -15 25 -19 28 -23 16 -50 85 -50 130 0 28 3 50
6 50 16 0 34 -33 34 -63 0 -27 5 -36 21 -40 13 -4 22 0 26 11 12 29 22 -35 12
-70 -6 -23 -5 -40 6 -60 7 -16 12 -43 9 -61 -2 -19 3 -46 14 -67 14 -28 23
-35 46 -35 16 0 31 -6 33 -12 3 -7 11 -13 19 -13 22 0 16 36 -11 69 -26 30
-26 30 2 33 30 3 31 8 17 76 -3 17 -10 32 -15 32 -5 0 -9 29 -9 64 0 72 -6 96
-24 96 -20 0 -53 42 -71 90 -10 25 -30 73 -46 108 -30 66 -36 92 -19 92 6 0
10 13 10 29 0 21 -6 32 -20 36 -22 7 -27 41 -7 48 9 3 9 11 0 35 -6 19 -7 34
-2 38 16 9 10 54 -11 76 -17 18 -20 36 -20 107 0 62 4 89 15 101 20 22 32 90
16 90 -7 0 -11 19 -11 50 0 28 -4 50 -10 50 -6 0 -10 35 -10 85 0 50 -4 85
-10 85 -5 0 -10 23 -10 50 0 28 -4 50 -10 50 -5 0 -10 16 -10 35 0 19 5 35 10
35 6 0 10 37 10 90 0 53 -4 90 -10 90 -5 0 -10 9 -10 20 0 11 5 20 10 20 6 0
10 73 10 200 0 127 -4 200 -10 200 -6 0 -10 44 -10 111 0 111 0 111 -29 104
-25 -5 -31 -2 -49 28 -15 26 -17 38 -9 46 8 8 5 11 -10 11 -23 0 -41 46 -24
63 6 6 6 19 1 32 -12 32 10 100 43 131 15 14 27 28 27 33 0 4 11 13 24 21 13
7 27 20 30 29 3 9 9 22 12 29 9 20 -11 14 -37 -11z m-19 -866 c0 -17 -4 -33
-10 -36 -5 -3 -10 -15 -10 -26 0 -10 -4 -19 -10 -19 -15 0 -13 97 3 103 23 10
27 7 27 -22z m-150 -230 c-11 -16 -20 -37 -20 -46 0 -9 -4 -13 -10 -10 -5 3
-10 19 -10 36 0 16 5 29 10 29 6 0 10 17 10 38 0 21 7 47 15 58 8 10 15 33 17
49 1 17 4 -5 5 -48 3 -66 1 -82 -17 -106z m-40 -106 c0 -19 -4 -35 -10 -35 -5
0 -10 -11 -10 -25 0 -14 -4 -25 -10 -25 -5 0 -10 -7 -10 -16 0 -8 -4 -12 -10
-9 -5 3 -10 15 -10 26 0 11 5 17 10 14 6 -4 10 6 10 22 0 31 20 83 33 83 4 0
7 -16 7 -35z m175 -114 c-3 -12 -13 -21 -21 -21 -17 0 -18 14 -3 42 14 26 34
9 24 -21z m10 -83 c-4 -24 -17 -58 -28 -75 -22 -33 -22 -33 -25 9 -2 24 1 44
7 46 6 2 11 17 11 33 0 23 4 29 21 29 19 0 20 -4 14 -42z m-90 -275 c-9 -18
-11 -33 -4 -50 13 -35 11 -53 -6 -53 -34 0 -36 55 -5 123 9 17 16 23 21 16 3
-6 1 -23 -6 -36z m103 -388 c6 -14 16 -25 22 -25 5 0 10 -13 10 -30 0 -16 -3
-30 -8 -30 -4 0 -13 -14 -21 -30 -10 -23 -18 -29 -31 -25 -13 4 -22 -1 -30
-15 -16 -30 -50 -140 -50 -162 0 -11 -5 -29 -12 -41 -34 -61 -36 -81 -12 -193
12 -60 27 -122 33 -137 14 -35 14 -77 1 -77 -24 0 -50 41 -50 79 0 22 -4 51
-9 64 -5 13 -13 92 -17 176 -7 148 -6 153 15 167 11 8 21 22 21 30 0 17 68
156 80 164 5 3 11 18 14 33 3 15 8 38 11 52 3 14 9 25 14 25 4 0 13 -11 19
-25z m72 -385 c0 -22 -4 -40 -10 -40 -5 0 -10 18 -10 40 0 22 5 40 10 40 6 0
10 -18 10 -40z"/>
<path d="M2049 35220 c-21 -11 -42 -32 -49 -50 -7 -16 -16 -30 -20 -30 -4 0
-10 -8 -13 -19 -4 -16 6 -52 53 -197 5 -17 10 -49 10 -71 0 -24 7 -48 15 -57
8 -8 15 -32 15 -56 0 -27 4 -40 13 -39 22 4 47 -13 47 -32 0 -10 4 -19 9 -19
5 0 11 -9 14 -21 4 -16 1 -20 -16 -17 -12 2 -27 -3 -33 -11 -10 -12 -13 -11
-19 8 -5 16 -2 26 12 36 10 7 15 17 11 21 -10 9 -38 -15 -38 -33 0 -10 -7 -14
-20 -10 -14 3 -21 -1 -26 -17 -7 -19 -8 -18 -16 12 -5 17 -15 32 -23 32 -8 0
-18 12 -21 27 -4 15 -14 34 -22 42 -12 12 -15 12 -23 0 -7 -11 -11 -10 -23 6
-17 23 -21 65 -6 65 6 0 10 9 10 20 0 25 -11 25 -38 1 -27 -23 -28 -46 -2 -73
11 -12 20 -28 20 -35 0 -7 5 -13 10 -13 6 0 10 -9 10 -20 0 -11 5 -20 10 -20
6 0 10 -9 10 -20 0 -11 3 -20 8 -20 4 0 15 -17 25 -37 10 -21 24 -49 31 -62
13 -22 14 -22 25 -5 8 15 9 8 4 -29 -5 -40 -3 -50 16 -66 11 -10 21 -24 21
-30 0 -7 12 -23 26 -38 24 -24 26 -24 40 -7 14 18 13 36 -2 97 -5 21 -3 27 11
27 19 0 45 -23 45 -40 0 -7 14 -25 30 -40 35 -33 42 -75 10 -65 -16 5 -20 2
-20 -19 0 -14 5 -26 10 -26 6 0 10 -9 10 -20 0 -11 5 -20 10 -20 6 0 10 7 10
16 0 9 8 24 18 33 10 9 21 24 25 34 5 14 11 16 27 7 20 -11 28 -40 10 -40 -5
0 -19 -18 -30 -40 -21 -40 -21 -40 4 -65 14 -14 30 -25 36 -25 5 0 10 -8 10
-18 0 -22 32 -62 49 -62 7 0 10 8 7 18 -14 46 -25 110 -23 132 1 15 -3 24 -10
23 -16 -4 -17 31 -1 56 9 15 9 29 -1 60 -11 40 -9 61 8 61 5 0 18 -28 29 -62
20 -58 20 -63 5 -81 -15 -16 -15 -19 -3 -27 8 -6 18 -10 23 -10 4 0 7 -19 7
-42 1 -42 20 -84 33 -71 4 3 7 24 7 46 0 32 3 38 16 33 9 -3 18 -6 20 -6 2 0
4 -20 4 -45 0 -38 3 -45 20 -45 13 0 20 7 20 20 0 11 -4 20 -10 20 -14 0 -12
37 3 44 10 5 10 7 0 12 -7 3 -13 12 -13 19 0 16 -25 26 -45 19 -8 -4 -15 -1
-15 6 0 19 27 40 44 34 13 -5 16 1 16 30 0 20 -4 36 -10 36 -5 0 -10 16 -10
35 0 19 -4 35 -10 35 -5 0 -10 18 -10 40 0 22 -4 40 -10 40 -5 0 -10 6 -10 13
0 6 -16 25 -34 41 -27 23 -33 34 -26 50 4 12 4 31 -1 44 -8 22 -47 44 -62 35
-4 -2 -15 -2 -26 2 -13 4 -17 12 -13 30 2 14 0 44 -6 68 -7 28 -8 66 -2 114 5
40 7 80 4 88 -11 29 -26 15 -24 -22 3 -55 1 -65 -9 -59 -12 8 -12 136 0 136 5
0 9 7 9 15 0 8 -6 12 -14 9 -18 -7 -28 23 -25 80 2 37 -2 49 -21 66 -34 30
-40 25 -40 -29 0 -28 -4 -53 -10 -56 -6 -4 -10 6 -10 23 0 21 -6 31 -20 35
-14 3 -20 14 -20 31 0 31 -4 31 -51 6z m51 -100 c0 -33 57 -100 85 -100 12 0
15 -18 15 -108 0 -96 3 -114 26 -160 14 -29 23 -59 20 -67 -6 -17 -46 -21 -46
-5 0 6 -7 10 -15 10 -9 0 -36 20 -60 45 -41 41 -45 49 -45 94 0 27 5 53 10 56
13 8 13 52 1 60 -6 3 -10 28 -9 57 0 28 -4 53 -9 57 -6 3 -13 20 -16 38 -5 25
-2 35 11 42 27 16 32 13 32 -19z m76 -37 c-11 -11 -19 6 -11 24 8 17 8 17 12
0 3 -10 2 -21 -1 -24z m-12 -499 c9 -3 16 -14 16 -24 0 -10 6 -21 13 -23 9 -4
8 -8 -3 -16 -12 -8 -12 -13 -2 -23 12 -12 17 -58 6 -58 -14 0 -34 31 -34 54 0
14 -4 26 -10 26 -5 0 -10 16 -10 35 0 38 0 38 24 29z m-97 -46 c-3 -7 -5 -2
-5 12 0 14 2 19 5 13 2 -7 2 -19 0 -25z m238 -28 c5 -8 11 -7 21 1 18 15 19
-9 2 -46 -14 -31 -35 -32 -43 -2 -4 12 -9 30 -11 40 -6 19 20 24 31 7z"/>
<path d="M3380 35051 c0 -16 -4 -33 -10 -36 -5 -3 -10 -35 -10 -70 0 -35 -4
-67 -10 -70 -5 -3 -10 -24 -10 -46 0 -21 -4 -39 -8 -39 -4 0 -14 -28 -21 -62
-17 -79 -48 -177 -66 -203 -26 -42 -35 -187 -17 -295 6 -36 16 -93 21 -128 6
-35 15 -72 21 -82 5 -10 10 -39 10 -64 0 -26 8 -60 19 -79 33 -59 39 -71 51
-104 7 -18 16 -33 21 -33 5 0 9 -13 9 -30 0 -16 5 -30 10 -30 6 0 10 27 10 60
0 33 -4 60 -10 60 -5 0 -10 5 -10 12 0 6 -7 19 -16 29 -10 12 -17 40 -18 86
-3 64 -4 68 -25 66 -21 -3 -22 -1 -16 65 3 37 8 127 11 201 4 118 8 137 25
152 11 9 29 15 39 12 17 -4 20 0 20 25 0 36 -27 64 -41 41 -5 -8 -9 -17 -9
-21 0 -5 -7 -8 -15 -8 -12 0 -15 15 -15 75 0 64 3 77 20 87 11 7 20 23 20 35
0 12 5 25 10 28 6 3 10 44 10 90 0 46 5 87 10 90 6 4 10 37 10 73 0 37 1 82 3
101 1 20 -3 36 -10 38 -9 3 -13 -6 -13 -26z"/>
<path d="M11103 34913 c-19 -4 -23 -11 -23 -38 0 -19 -4 -37 -10 -40 -5 -3
-10 -15 -10 -26 0 -24 -9 -24 -26 -1 -12 16 -13 16 -14 0 0 -9 5 -20 10 -23
18 -11 11 -53 -10 -60 -23 -7 -27 -35 -6 -35 15 0 26 -21 26 -49 0 -16 21 -41
83 -98 9 -9 17 -22 17 -30 0 -7 5 -13 10 -13 6 0 10 -8 10 -18 0 -9 9 -23 20
-30 17 -10 20 -10 20 4 0 9 9 29 21 45 18 26 19 34 9 59 -14 34 -7 50 24 50
28 0 56 -29 56 -57 0 -28 29 -38 45 -16 11 14 5 72 -7 77 -2 1 -17 11 -35 24
-18 12 -36 22 -40 22 -19 0 -34 42 -27 73 4 18 6 42 5 55 -2 14 3 22 13 22 9
0 16 8 16 20 0 11 -6 20 -13 20 -8 0 -22 9 -32 20 -10 11 -26 20 -35 20 -9 0
-20 4 -25 9 -14 12 -46 19 -72 14z m122 -213 c3 -5 -1 -10 -9 -10 -9 0 -16 5
-16 10 0 6 4 10 9 10 6 0 13 -4 16 -10z"/>
<path d="M3566 33385 c-4 -17 -11 -22 -22 -18 -10 4 -25 -4 -40 -21 -18 -18
-35 -26 -59 -26 -19 0 -34 -3 -34 -7 3 -21 -2 -33 -16 -33 -20 0 -19 -26 1
-34 22 -9 22 -8 26 17 2 17 8 21 28 19 14 -2 29 -7 34 -12 5 -5 15 -6 22 -3
10 4 14 -4 14 -31 0 -32 -3 -36 -26 -36 -33 0 -54 -21 -54 -54 0 -14 -4 -26
-10 -26 -5 0 -10 -7 -10 -15 0 -29 -61 -85 -92 -85 -28 0 -28 0 -28 -86 0 -73
2 -85 16 -82 9 2 24 21 33 43 26 64 36 76 54 69 9 -3 17 -12 17 -19 0 -7 6
-15 13 -18 10 -3 10 -9 0 -26 -17 -28 -16 -31 6 -31 10 0 21 9 24 20 3 13 10
18 21 14 16 -6 23 -34 8 -34 -4 0 -9 -26 -10 -57 -2 -53 -15 -78 -34 -67 -4 3
-8 -4 -8 -15 0 -12 5 -21 10 -21 6 0 10 -18 10 -40 0 -22 -4 -40 -10 -40 -5 0
-10 -14 -10 -30 0 -17 -9 -41 -20 -53 -21 -22 -21 -22 10 -36 23 -11 30 -21
30 -43 0 -22 5 -28 21 -28 19 0 20 5 18 73 -1 47 3 81 12 96 11 19 11 25 2 28
-20 7 -15 47 6 60 15 10 21 10 24 0 2 -7 8 -9 12 -5 5 5 3 51 -4 104 -6 53 -8
102 -3 108 25 33 58 256 42 286 -17 31 -15 88 4 109 15 16 17 29 12 66 -8 50
-30 61 -40 20z"/>
<path d="M1498 32375 c-8 -8 3 -65 13 -65 5 0 9 -45 9 -100 0 -60 -4 -100 -10
-100 -5 0 -10 -7 -10 -15 0 -8 4 -15 9 -15 10 0 19 -40 13 -58 -5 -17 -22 -15
-22 3 0 8 -6 15 -14 15 -24 0 -26 -16 -6 -38 13 -14 20 -35 20 -61 0 -22 5
-43 10 -46 6 -3 10 -17 10 -31 0 -13 5 -24 10 -24 6 0 10 -11 10 -25 0 -14 5
-25 10 -25 6 0 10 -7 10 -15 0 -8 5 -15 10 -15 6 0 10 -7 10 -15 0 -8 9 -30
20 -50 11 -20 20 -42 20 -49 0 -7 9 -25 20 -39 11 -14 20 -32 20 -41 0 -9 4
-16 9 -16 5 0 12 -8 15 -18 3 -10 19 -26 36 -35 16 -10 30 -23 30 -28 0 -10
24 -39 32 -39 12 0 0 62 -14 77 -93 99 -128 151 -128 187 0 13 6 26 13 29 10
3 10 11 0 39 -7 19 -13 44 -13 56 0 11 -4 23 -9 27 -13 7 -10 156 3 152 13 -4
44 -58 45 -78 1 -9 10 -26 21 -39 20 -23 50 -112 50 -149 0 -12 3 -21 8 -21 4
0 13 -13 20 -28 21 -49 72 -92 72 -62 0 6 -4 10 -10 10 -5 0 -10 9 -10 20 0
11 -4 20 -10 20 -5 0 -10 11 -10 25 0 14 -4 33 -9 43 -5 9 -13 28 -19 42 -6
14 -33 73 -61 132 -46 99 -49 109 -37 133 22 42 5 79 -39 87 -27 4 -44 35 -45
81 0 20 -4 37 -10 37 -5 0 -10 9 -10 20 0 11 -3 20 -8 20 -4 0 -14 15 -21 33
-20 44 -40 64 -53 52z"/>
<path d="M4166 32085 c-16 -14 -33 -25 -38 -25 -4 0 -8 -15 -8 -34 0 -22 -6
-36 -16 -40 -23 -9 -24 -8 -24 24 0 23 -5 30 -19 30 -10 0 -22 -7 -25 -16 -4
-11 -13 -14 -31 -10 -21 5 -25 3 -25 -17 0 -25 -32 -62 -44 -50 -3 4 -16 8
-27 10 -15 2 -24 -5 -31 -25 -16 -41 -88 -71 -88 -36 0 11 -5 14 -16 10 -9 -3
-18 -6 -20 -6 -2 0 -4 -7 -4 -16 0 -8 -4 -13 -9 -10 -5 4 -11 2 -13 -2 -1 -5
-37 -26 -78 -47 -41 -20 -86 -46 -99 -56 -13 -11 -30 -19 -37 -19 -8 0 -14 -4
-14 -10 0 -5 -7 -10 -15 -10 -9 0 -37 -11 -63 -24 -27 -14 -76 -27 -115 -31
-37 -4 -67 -10 -67 -14 0 -3 -15 -13 -32 -20 -18 -8 -49 -31 -68 -50 -56 -57
-140 -80 -140 -38 -1 20 -2 20 -11 5 -5 -10 -21 -18 -35 -18 -13 0 -27 -7 -30
-15 -8 -19 -44 -20 -44 -1 0 8 5 18 10 21 12 8 13 45 1 45 -4 0 -16 -26 -25
-57 -21 -74 -33 -93 -45 -74 -6 9 -21 12 -45 9 -32 -4 -36 -2 -36 19 0 36 -34
29 -55 -11 -17 -32 -17 -36 -3 -59 17 -24 15 -100 -3 -122 -10 -13 -12 -90 -4
-132 4 -18 0 -53 -9 -86 -9 -30 -16 -66 -16 -80 0 -14 -4 -29 -10 -32 -5 -3
-10 -23 -11 -43 -1 -37 -1 -37 -10 -4 -9 29 -12 32 -26 20 -13 -10 -17 -10
-20 0 -7 19 -23 14 -23 -8 0 -11 5 -20 10 -20 6 0 10 -13 10 -30 0 -16 5 -30
10 -30 6 0 10 -15 10 -32 0 -43 13 -63 35 -54 13 5 16 14 12 39 -3 17 -2 41 3
52 8 17 9 16 11 -10 5 -77 8 -97 13 -102 3 -3 -1 -20 -8 -38 -9 -20 -10 -38
-5 -46 5 -8 9 -25 9 -38 0 -14 5 -39 12 -57 10 -27 8 -34 -9 -53 -20 -21 -20
-21 -46 28 -15 27 -27 56 -27 65 0 9 -4 16 -10 16 -5 0 -10 -9 -10 -20 0 -11
-4 -20 -10 -20 -5 0 -10 -7 -10 -16 0 -8 -5 -12 -11 -9 -5 4 -23 2 -39 -5 -22
-9 -30 -20 -32 -43 -3 -28 -6 -32 -30 -29 -20 2 -28 -1 -28 -12 0 -8 5 -18 10
-21 6 -3 10 -19 10 -35 0 -16 5 -32 10 -35 16 -10 12 -36 -7 -50 -13 -10 -19
-10 -30 1 -16 16 -17 41 0 47 10 4 10 7 0 18 -7 7 -13 28 -13 46 0 42 -25 44
-69 7 -32 -27 -33 -26 -44 24 -3 14 0 22 8 22 7 0 18 7 25 15 7 8 27 15 45 15
19 0 39 8 50 20 10 11 22 20 27 20 13 0 38 26 38 39 0 5 12 16 28 23 15 7 28
23 30 36 2 12 8 22 13 22 5 0 9 7 9 16 0 11 -6 14 -20 9 -15 -5 -20 -2 -20 12
0 12 -8 19 -20 20 -11 1 -20 -3 -20 -8 0 -6 -9 -7 -20 -4 -17 6 -20 2 -20 -29
0 -34 -2 -36 -35 -36 -19 0 -35 5 -35 11 0 6 -11 9 -23 7 -13 -1 -32 6 -43 16
-18 19 -19 18 -29 -5 -5 -13 -16 -24 -24 -24 -8 0 -16 -6 -19 -14 -3 -10 1
-12 17 -8 20 5 21 2 21 -58 0 -35 -4 -67 -10 -70 -5 -3 -10 -21 -10 -39 0 -18
-8 -41 -20 -53 -20 -22 -20 -22 0 -28 11 -4 20 -10 20 -15 0 -8 28 -19 69 -27
19 -3 22 -1 17 12 -8 22 1 35 20 28 9 -3 12 -12 8 -25 -3 -11 0 -33 7 -49 9
-24 17 -29 38 -27 21 2 27 -2 29 -20 2 -15 -3 -25 -18 -30 -21 -8 -21 -8 1
-30 13 -15 27 -21 40 -17 16 5 19 1 19 -24 0 -16 5 -33 10 -36 7 -4 6 -13 -1
-27 -11 -20 -13 -20 -24 -5 -7 9 -15 17 -19 17 -13 0 -5 -27 14 -48 12 -13 20
-35 20 -57 0 -19 5 -35 10 -35 6 0 10 -15 10 -32 0 -26 6 -37 31 -50 39 -23
89 -24 89 -2 0 9 9 18 20 21 23 6 25 17 6 35 -14 14 -11 95 5 112 5 6 9 20 9
33 0 12 7 26 16 31 18 10 22 85 6 105 -5 7 -15 43 -21 80 -9 55 -9 72 1 85 7
10 14 19 15 21 4 6 43 -41 59 -71 8 -16 23 -28 34 -28 16 0 20 7 20 35 0 39
23 48 46 18 12 -17 13 -16 14 4 0 12 -6 24 -12 26 -10 4 -10 6 0 6 6 1 12 7
12 15 0 15 24 28 34 19 3 -4 6 -19 6 -35 0 -17 6 -31 15 -35 18 -6 44 23 45
48 0 9 7 22 15 29 8 7 15 21 15 31 0 12 7 19 19 19 14 0 21 -10 26 -37 6 -33
3 -40 -22 -62 -18 -15 -23 -26 -15 -29 15 -5 16 -34 1 -49 -7 -7 -6 -15 5 -26
31 -30 13 -80 -25 -70 -22 6 -25 23 -7 41 9 9 9 15 0 24 -18 18 -22 7 -21 -78
0 -43 0 -96 -1 -116 0 -30 3 -36 15 -32 12 5 15 -4 15 -47 0 -57 1 -59 73 -83
19 -6 23 -32 5 -38 -10 -4 -9 -14 1 -46 8 -23 18 -42 23 -42 4 0 8 -10 8 -23
0 -13 9 -33 21 -46 18 -19 19 -24 7 -38 -10 -13 -10 -17 0 -20 6 -3 12 -20 12
-38 0 -34 17 -49 45 -39 11 5 15 -1 15 -24 0 -17 -6 -32 -12 -35 -10 -3 52
-37 68 -37 2 0 4 18 4 40 0 33 -3 40 -20 40 -27 0 -26 34 1 54 19 13 21 22 17
111 -2 78 -6 99 -20 109 -24 18 -23 36 2 36 13 0 20 -7 20 -20 0 -13 7 -20 19
-20 15 0 20 10 25 50 4 28 11 50 17 50 5 0 20 9 32 20 12 11 27 18 35 15 7 -2
15 2 19 10 3 9 13 14 22 13 10 -2 17 5 19 20 4 27 -12 28 -38 2 -15 -15 -20
-16 -20 -6 0 8 5 18 10 21 6 4 10 40 9 86 -3 84 1 95 26 86 11 -5 15 -21 15
-57 0 -27 3 -50 6 -50 11 0 34 29 34 44 0 9 5 16 10 16 6 0 10 7 10 15 0 8 5
15 11 15 8 0 8 4 2 13 -18 23 -15 98 5 116 11 9 22 28 26 44 3 15 11 27 17 27
15 0 25 -33 11 -38 -7 -2 -12 -12 -12 -23 0 -10 -4 -19 -10 -19 -12 0 -13 -57
-1 -62 9 -3 16 -83 13 -144 -2 -25 -8 -34 -32 -44 -16 -7 -30 -19 -30 -26 0
-17 27 -18 33 -1 3 7 6 5 6 -5 1 -12 -6 -18 -19 -18 -16 0 -20 -7 -20 -34 0
-19 6 -37 13 -40 10 -5 10 -7 0 -12 -7 -3 -13 -19 -13 -35 0 -16 -4 -29 -10
-29 -5 0 -10 -11 -10 -25 0 -29 29 -34 54 -10 24 24 40 17 59 -25 23 -55 22
-74 -4 -67 -27 7 -49 -1 -49 -20 0 -8 -7 -21 -16 -30 -8 -9 -13 -22 -10 -30 3
-8 6 -26 6 -39 0 -16 6 -24 18 -24 26 0 42 -20 42 -50 0 -15 9 -35 20 -45 23
-21 26 -45 6 -45 -19 0 -28 -40 -10 -47 10 -4 11 -9 4 -17 -10 -13 -2 -56 19
-94 23 -42 -16 -72 -41 -32 -7 11 -18 20 -25 20 -19 0 -16 -51 3 -65 19 -13
11 -55 -11 -55 -19 0 -26 -28 -13 -50 9 -15 9 -24 -1 -44 -12 -21 -11 -27 2
-40 9 -9 23 -16 31 -16 12 0 16 -11 16 -50 0 -43 3 -50 20 -50 11 0 21 6 22
13 3 25 5 33 17 58 7 15 24 33 37 40 13 7 24 21 24 31 0 10 11 24 25 30 24 11
25 14 24 105 0 52 1 96 4 99 10 10 37 -9 37 -27 0 -10 5 -19 10 -19 15 0 13
127 -2 133 -10 3 -10 9 0 26 6 11 12 41 12 65 0 25 5 48 10 51 6 3 10 22 10
41 0 19 5 34 10 34 6 0 10 30 10 69 0 39 5 73 10 76 6 3 10 17 10 31 0 29 24
42 45 24 12 -10 18 -6 35 22 28 46 25 55 -13 50 -39 -4 -52 9 -59 58 -7 45 -1
60 22 60 14 0 20 -9 23 -32 3 -30 4 -29 5 7 1 22 -5 51 -13 65 -21 37 -19 77
4 83 17 4 19 12 15 62 -2 32 -9 63 -14 70 -10 12 1 80 21 130 4 11 11 42 14
70 7 49 42 137 57 143 4 2 8 12 8 23 0 10 3 19 8 19 4 0 18 18 32 40 14 22 28
40 32 40 5 0 8 7 8 15 0 8 5 15 10 15 6 0 10 7 10 15 0 8 5 15 10 15 6 0 10
12 10 26 0 23 -3 26 -27 21 -38 -7 -56 1 -40 18 7 7 15 11 20 8 4 -2 7 3 7 11
0 8 9 18 20 21 11 3 20 11 20 16 0 5 8 9 18 9 23 0 47 49 27 56 -7 3 -22 1
-34 -5 -11 -6 -27 -11 -35 -11 -24 0 -21 52 4 68 21 13 28 42 10 42 -5 0 -10
11 -10 25 0 18 7 26 26 31 28 7 44 -7 44 -39 0 -27 42 -42 77 -27 27 12 29 17
24 49 -5 27 -12 37 -29 39 -12 2 -22 10 -22 18 0 9 -6 21 -13 29 -17 17 -47 1
-47 -25 0 -23 -35 -28 -43 -7 -4 9 -8 9 -14 1 -13 -18 -116 -69 -143 -71 -14
-1 -38 -5 -54 -9 -21 -5 -31 -3 -38 10 -10 17 -58 23 -58 6 0 -5 -4 -10 -10
-10 -5 0 -10 9 -10 21 0 16 4 19 20 14 15 -5 21 0 27 22 7 28 7 28 13 3 5 -20
11 -24 31 -21 36 5 59 20 59 37 0 9 9 27 20 41 23 30 26 63 6 63 -24 0 -28 18
-14 51 10 24 18 29 37 26 17 -3 25 1 28 14 3 11 9 19 13 19 12 0 50 37 50 49
0 6 8 11 18 11 28 0 62 42 62 76 0 40 19 104 30 104 6 0 10 14 10 30 0 23 4
30 20 30 27 0 47 38 24 47 -21 8 -13 61 20 141 26 63 40 171 22 173 -44 5 -67
19 -80 50 -12 28 -12 28 -40 4z m71 -157 c-3 -8 -6 -5 -6 6 -1 11 2 17 5 13 3
-3 4 -12 1 -19z m-77 -300 c0 -32 -3 -39 -10 -28 -13 20 -13 70 0 70 6 0 10
-19 10 -42z m-930 -44 c0 -8 -5 -12 -10 -9 -6 4 -8 11 -5 16 9 14 15 11 15 -7z
m-47 -41 c3 -5 -1 -14 -9 -21 -8 -7 -14 -11 -14 -8 0 2 -3 11 -6 20 -6 16 20
24 29 9z m503 -210 c-7 -17 -8 -17 -17 0 -12 21 -2 44 13 29 6 -6 8 -19 4 -29z
m-166 12 c0 -8 -4 -15 -10 -15 -5 0 -7 7 -4 15 4 8 8 15 10 15 2 0 4 -7 4 -15z
m170 -74 c0 -22 5 -43 10 -46 6 -3 10 -23 10 -43 0 -21 9 -48 20 -62 21 -27
26 -50 10 -50 -6 0 -10 -27 -10 -60 0 -33 -4 -60 -10 -60 -5 0 -10 -13 -10
-30 0 -16 -4 -30 -10 -30 -5 0 -10 -8 -10 -19 0 -11 -12 -23 -30 -31 -33 -13
-37 -29 -17 -61 10 -17 10 -23 0 -26 -8 -3 -13 -23 -13 -49 0 -40 -2 -44 -25
-44 -14 0 -25 4 -25 10 0 5 -20 30 -45 55 -39 40 -47 44 -66 35 -11 -7 -21
-10 -22 -8 -1 2 -8 13 -14 25 -16 27 -17 53 -3 53 6 0 10 11 10 25 0 14 -4 25
-10 25 -5 0 -19 10 -32 23 -13 13 -31 26 -41 30 -9 3 -17 12 -17 19 0 16 -54
68 -69 68 -6 0 -11 5 -11 11 0 6 -14 27 -31 46 -30 35 -35 63 -11 71 7 2 12
-6 12 -22 0 -13 4 -27 9 -31 10 -6 41 21 41 36 0 5 7 9 16 9 14 0 16 -8 11
-50 -5 -40 -3 -50 8 -50 8 0 15 4 15 10 0 17 55 67 81 73 14 4 36 16 49 27 13
11 30 18 37 15 8 -2 24 4 35 15 12 11 27 20 34 20 7 0 16 9 19 20 4 13 15 20
30 20 16 0 26 7 31 23 17 57 44 62 44 8z m-431 -485 c-5 -17 -9 -55 -9 -85 0
-84 -10 -54 -14 45 -5 96 -1 115 19 88 9 -12 10 -27 4 -48z m-258 2 c1 -7 1
-16 0 -20 0 -4 8 -27 19 -51 27 -61 12 -102 -20 -57 -23 33 -38 24 -42 -26 -2
-36 1 -48 14 -55 10 -5 15 -16 12 -24 -9 -22 -34 -18 -34 5 0 11 -4 20 -10 20
-5 0 -10 14 -10 30 0 17 5 30 11 30 8 0 10 19 6 65 -6 59 -4 66 16 80 26 18
37 19 38 3z m399 -18 c0 -11 -4 -20 -10 -20 -5 0 -10 -8 -10 -18 0 -24 -8 -32
-26 -25 -16 6 -19 33 -4 33 6 0 10 5 10 10 0 13 22 39 33 40 4 0 7 -9 7 -20z
m-930 -124 c0 -8 -4 -18 -10 -21 -5 -3 -10 3 -10 14 0 12 5 21 10 21 6 0 10
-6 10 -14z m-70 -68 c0 -13 -7 -18 -29 -18 -16 0 -32 -6 -34 -12 -3 -7 -6 4
-6 25 -1 21 4 48 10 59 11 20 12 20 35 -7 13 -16 24 -36 24 -47z m827 2 c3
-11 9 -20 14 -20 5 0 9 -22 9 -50 0 -27 -4 -50 -10 -50 -5 0 -10 -7 -10 -15 0
-8 -4 -15 -10 -15 -5 0 -10 17 -10 38 0 37 0 37 -20 4 -26 -43 -25 -61 5 -96
14 -16 25 -33 25 -38 0 -4 5 -8 11 -8 6 0 17 -6 25 -14 20 -21 -1 -66 -31 -66
-19 0 -23 7 -29 46 -7 53 -20 74 -47 74 -14 0 -19 7 -19 30 0 24 -7 35 -30 48
-19 11 -30 25 -30 40 0 12 2 22 4 22 2 0 11 3 20 6 12 4 16 0 16 -15 0 -14 6
-21 18 -20 9 0 12 3 6 5 -13 5 -6 54 7 54 5 0 9 7 9 16 0 9 9 18 20 21 11 3
20 9 20 14 0 18 32 8 37 -11z m193 -65 c0 -8 -4 -15 -8 -15 -5 0 -19 -9 -31
-19 -22 -19 -22 -19 -2 -26 23 -7 30 -40 16 -72 -12 -28 -35 -30 -35 -3 0 11
-4 20 -10 20 -5 0 -10 9 -10 19 0 11 -5 21 -12 23 -9 3 -7 14 5 41 12 25 25
37 45 40 15 2 30 5 35 6 4 0 7 -6 7 -14z m60 -85 c0 -5 -5 -10 -11 -10 -5 0
-7 5 -4 10 3 6 8 10 11 10 2 0 4 -4 4 -10z m-15 -36 c13 -5 14 -8 3 -15 -19
-13 -28 -11 -28 6 0 17 2 18 25 9z m-25 -89 c0 -8 5 -15 10 -15 6 0 10 -14 10
-31 0 -24 -4 -30 -17 -27 -13 2 -19 15 -21 46 -2 25 1 42 7 42 6 0 11 -7 11
-15z m-870 -17 c0 -19 -2 -20 -10 -8 -13 19 -13 30 0 30 6 0 10 -10 10 -22z
m20 -170 c0 -16 -3 -19 -11 -11 -6 6 -8 16 -5 22 11 17 16 13 16 -11z m600
-25 c0 -20 -3 -24 -11 -16 -7 7 -9 19 -6 27 10 24 17 19 17 -11z m-640 -35 c0
-26 -19 -58 -34 -58 -3 0 -6 13 -6 28 0 15 -5 33 -11 39 -7 7 -9 19 -6 27 5
13 11 14 32 4 18 -8 25 -19 25 -40z m580 -8 c0 -5 -4 -10 -10 -10 -5 0 -10 5
-10 10 0 6 5 10 10 10 6 0 10 -4 10 -10z m20 -40 c0 -16 -4 -30 -10 -30 -11 0
-14 43 -3 53 11 12 13 8 13 -23z m467 -66 c3 -9 1 -19 -4 -23 -6 -3 -13 -13
-16 -21 -3 -8 -6 2 -6 23 -1 37 15 50 26 21z m43 -220 c9 -27 9 -42 0 -65 -14
-33 -16 -34 -53 -16 -25 11 -38 47 -17 47 6 0 10 16 10 35 0 30 3 35 24 35 19
0 27 -8 36 -36z"/>
<path d="M1810 31375 c0 -8 -4 -15 -10 -15 -14 0 -13 -26 3 -50 10 -17 9 -22
-3 -30 -12 -8 -11 -10 8 -10 19 0 22 -5 22 -44 0 -36 -4 -46 -20 -51 -15 -5
-20 -15 -20 -41 0 -19 -4 -34 -9 -34 -11 0 -20 -35 -12 -47 3 -5 15 -15 26
-21 19 -10 19 -11 -5 -21 -24 -10 -23 -10 10 -9 25 1 44 -6 63 -22 26 -22 27
-28 27 -111 0 -78 2 -90 20 -99 27 -14 26 -45 -2 -47 -53 -4 -69 -72 -26 -107
42 -35 46 -143 7 -185 -21 -22 -25 -56 -9 -66 6 -3 10 -39 10 -78 0 -61 -3
-75 -20 -87 -11 -8 -20 -26 -20 -40 0 -14 -9 -32 -20 -40 -15 -11 -20 -26 -20
-62 0 -26 5 -50 10 -53 6 -3 10 -42 10 -86 0 -46 -4 -79 -10 -79 -5 0 -10 -16
-10 -35 0 -19 -4 -35 -10 -35 -5 0 -10 -22 -10 -50 0 -27 -4 -50 -10 -50 -18
0 -11 -88 10 -125 11 -20 20 -42 20 -50 0 -8 5 -15 10 -15 6 0 10 9 10 21 0
23 14 40 47 58 18 9 21 17 16 41 -3 17 -1 30 4 30 26 0 45 103 21 113 -8 4 -4
8 10 12 22 7 32 45 12 45 -13 0 -13 37 1 42 5 2 11 27 11 56 1 53 18 87 18 37
0 -27 20 -55 39 -55 19 0 42 47 48 101 5 42 13 60 35 81 19 18 28 36 28 57 0
17 5 31 10 31 6 0 10 -7 10 -15 0 -8 5 -15 10 -15 6 0 10 27 10 60 0 33 4 60
10 60 6 0 10 7 10 15 0 8 -4 15 -10 15 -5 0 -10 13 -10 29 0 17 -6 31 -16 35
-22 8 -21 9 -28 -19 -6 -23 -8 -24 -21 -11 -22 21 -19 78 5 104 11 12 20 33
20 47 0 19 5 25 23 25 12 0 17 4 11 8 -6 4 -13 15 -17 25 -3 9 -13 17 -21 17
-19 0 -36 31 -36 64 0 19 5 26 20 26 15 0 20 7 20 25 0 14 5 33 11 43 13 20 8
28 -58 101 -18 19 -33 39 -33 44 0 5 -8 17 -19 26 -10 9 -26 31 -35 49 -11 22
-26 35 -46 39 -17 3 -30 12 -30 19 0 8 -4 14 -10 14 -5 0 -10 7 -10 15 0 8 -4
15 -10 15 -5 0 -10 7 -10 15 0 8 -4 15 -10 15 -5 0 -10 9 -10 20 0 11 -4 20
-10 20 -5 0 -10 18 -10 40 0 22 5 40 10 40 6 0 10 9 10 20 0 16 7 20 30 20 17
0 30 5 30 10 0 21 -25 90 -32 90 -5 0 -8 14 -8 31 0 33 -19 59 -44 59 -9 0
-16 -7 -16 -15z"/>
<path d="M13379 30457 c-6 -18 -5 -37 2 -37 5 0 9 -11 9 -24 0 -14 5 -28 10
-31 6 -3 10 -35 10 -70 0 -42 4 -65 13 -68 15 -5 14 -145 -2 -176 -8 -14 -8
-21 -1 -21 5 0 10 -16 10 -36 0 -28 -3 -34 -12 -26 -7 5 -24 12 -37 14 -17 2
-25 10 -26 26 -1 13 -8 28 -15 32 -11 7 -11 14 0 39 7 17 16 31 21 31 5 0 9 9
9 20 0 11 -4 20 -10 20 -5 0 -10 18 -10 40 0 22 5 40 10 40 6 0 10 5 10 10 0
6 -9 10 -20 10 -16 0 -20 7 -20 30 0 17 -4 30 -10 30 -5 0 -10 -9 -10 -19 0
-11 -6 -22 -12 -25 -10 -5 -10 -7 0 -12 6 -3 12 -14 12 -24 0 -10 5 -22 10
-25 6 -3 10 -28 10 -56 0 -27 -4 -49 -10 -49 -6 0 -10 -30 -10 -69 0 -39 5
-73 10 -76 6 -3 10 -35 10 -70 0 -35 -4 -67 -10 -70 -14 -8 -13 -88 1 -102 14
-14 -10 -43 -35 -43 -17 0 -18 9 -17 153 0 42 -4 77 -8 77 -13 0 -31 -115 -31
-193 0 -64 14 -117 32 -117 4 0 8 -13 8 -28 0 -15 5 -33 12 -40 9 -9 9 -12 0
-12 -7 0 -12 -13 -12 -30 0 -16 4 -30 9 -30 5 0 11 -8 14 -17 3 -16 5 -16 11
2 4 11 12 28 17 37 13 25 11 78 -2 78 -8 0 -7 6 2 17 11 13 11 17 2 20 -18 6
-16 51 2 70 18 17 45 11 45 -12 0 -18 7 -19 24 -3 10 10 9 16 -8 30 -18 14
-19 20 -8 37 8 14 9 21 1 21 -7 0 -10 18 -7 48 3 43 12 61 31 62 12 0 8 -78
-5 -82 -15 -5 21 -48 40 -48 11 0 12 -7 7 -27 -8 -30 -8 -37 1 -207 3 -71 2
-112 -5 -119 -6 -6 -11 -39 -11 -74 0 -66 -6 -76 -30 -43 -8 11 -18 20 -22 20
-4 0 -8 -9 -8 -20 0 -11 5 -20 10 -20 6 0 10 -20 10 -45 0 -25 5 -45 10 -45 6
0 10 -13 10 -30 0 -23 -4 -30 -20 -30 -17 0 -20 -7 -20 -40 0 -22 5 -40 10
-40 6 0 10 -24 10 -53 0 -29 4 -57 9 -62 17 -18 17 -215 1 -215 -5 0 -10 9
-10 19 0 11 -5 21 -12 23 -6 2 -11 21 -10 41 1 31 -2 37 -18 37 -17 0 -20 -7
-20 -40 0 -33 -3 -40 -20 -40 -13 0 -20 7 -20 20 0 11 -4 20 -10 20 -5 0 -10
11 -10 25 0 14 -5 25 -10 25 -6 0 -6 7 1 19 7 10 9 26 5 36 -9 25 -36 0 -36
-34 1 -32 33 -128 49 -144 6 -6 11 -19 11 -29 0 -24 8 -23 30 4 16 20 19 21
34 6 9 -9 16 -23 16 -31 0 -19 35 -28 49 -14 6 6 11 21 11 34 0 13 6 23 14 23
20 0 33 122 17 156 -6 14 -11 35 -11 47 0 13 -5 28 -12 35 -9 9 -9 15 0 24 16
16 15 51 0 66 -10 10 -8 14 11 19 19 5 22 11 17 34 -4 22 -2 29 9 29 17 0 21
55 5 65 -13 8 -13 278 -1 290 5 6 11 38 13 73 1 34 5 62 8 62 3 0 7 34 9 75 1
48 -1 75 -8 75 -6 0 -11 8 -11 18 0 10 -5 23 -12 30 -9 9 -9 12 0 12 9 0 12
29 12 100 0 73 3 100 13 100 8 0 9 3 1 8 -24 15 -34 54 -34 124 0 67 3 77 31
111 19 23 25 37 17 37 -8 0 -18 -4 -24 -9 -5 -6 -20 0 -38 15 -26 23 -28 30
-23 72 5 49 -16 117 -40 126 -7 3 -13 4 -14 3z"/>
<path d="M1250 29390 c0 -5 -14 -7 -32 -3 -29 6 -32 5 -20 -10 11 -13 10 -19
-5 -36 -22 -26 -48 -28 -38 -3 4 9 9 23 12 30 3 6 0 12 -6 12 -6 0 -11 -4 -11
-10 0 -5 -7 -10 -15 -10 -8 0 -34 -18 -57 -40 -24 -22 -47 -40 -52 -40 -4 0
-24 -14 -43 -31 -20 -17 -55 -40 -79 -52 -42 -20 -44 -23 -44 -64 0 -24 -4
-43 -10 -43 -6 0 -10 -27 -10 -60 0 -33 -4 -60 -10 -60 -5 0 -10 -7 -10 -15 0
-8 -6 -15 -14 -15 -20 0 -38 -26 -38 -54 0 -17 -11 -30 -39 -46 -22 -11 -39
-25 -39 -29 0 -10 -49 -33 -59 -27 -29 18 -141 -54 -141 -90 0 -7 -4 -14 -8
-16 -14 -6 -119 -222 -126 -259 -9 -53 9 -89 46 -89 18 0 31 6 34 18 4 9 12
31 20 49 8 17 14 40 14 52 0 14 6 21 18 21 31 0 62 34 62 69 0 33 20 42 45 19
7 -7 25 -22 41 -33 15 -11 36 -28 46 -37 10 -10 21 -18 24 -18 4 0 22 -13 41
-30 40 -35 73 -40 73 -10 0 11 5 20 10 20 6 0 10 16 10 35 0 19 5 35 10 35 6
0 10 11 10 24 0 14 -4 28 -10 31 -5 3 -10 15 -10 26 0 10 5 19 10 19 6 0 10
11 10 24 0 16 7 27 20 31 15 5 20 15 20 40 0 18 6 36 13 38 10 4 10 6 0 6 -19
1 -16 68 3 75 23 9 24 8 24 -15 0 -12 8 -29 19 -38 10 -9 20 -25 22 -36 3 -13
14 -21 32 -23 25 -3 27 -1 21 23 -4 15 2 79 12 142 18 116 18 116 -5 134 -21
17 -21 20 -7 35 12 11 14 26 10 55 -7 40 4 51 24 26 16 -19 42 -99 42 -130 0
-35 18 -70 31 -62 5 4 9 45 9 92 0 71 -3 88 -18 102 -13 11 -21 37 -26 85 -6
59 -4 70 11 81 10 7 21 11 25 9 12 -7 10 -74 -2 -74 -18 0 -11 -35 10 -50 11
-8 20 -25 20 -37 0 -13 5 -23 10 -23 6 0 10 11 10 25 0 14 5 25 10 25 6 0 10
14 10 30 0 17 4 30 10 30 5 0 18 10 30 22 15 17 20 35 20 80 0 32 -4 58 -10
58 -5 0 -10 -4 -10 -10z m-233 -417 c4 -9 1 -19 -5 -21 -7 -2 -12 -12 -12 -23
0 -10 -4 -19 -9 -19 -9 0 -20 67 -12 75 10 11 32 4 38 -12z m-252 -433 c0 -7
-6 -15 -12 -17 -8 -3 -13 4 -13 17 0 13 5 20 13 18 6 -3 12 -11 12 -18z"/>
<path d="M1845 29327 c-20 -25 -35 -57 -35 -73 0 -12 -5 -14 -17 -9 -10 4 -28
10 -40 12 -19 5 -23 1 -23 -20 0 -14 -4 -29 -10 -32 -5 -3 -10 -24 -10 -45 0
-21 -4 -42 -10 -45 -5 -3 -10 -44 -10 -90 0 -46 -4 -87 -10 -90 -5 -3 -10 -21
-10 -39 0 -18 -9 -59 -20 -91 -11 -31 -18 -61 -15 -65 2 -4 0 -20 -5 -36 -5
-16 -14 -49 -21 -74 -7 -25 -16 -49 -21 -54 -4 -6 -8 -17 -8 -26 0 -8 -9 -22
-20 -30 -11 -8 -20 -21 -20 -30 0 -9 -9 -22 -20 -30 -11 -8 -20 -21 -20 -30 0
-9 -9 -22 -20 -30 -11 -8 -20 -21 -20 -28 0 -8 -13 -27 -30 -42 -16 -15 -30
-31 -30 -35 0 -10 -54 -85 -95 -130 -19 -22 -35 -43 -35 -48 0 -4 -13 -21 -30
-37 -16 -16 -30 -36 -30 -45 0 -8 -4 -15 -10 -15 -5 0 -10 -11 -10 -25 0 -14
5 -25 10 -25 6 0 10 -16 10 -35 0 -22 8 -44 20 -57 20 -22 20 -22 20 30 0 29
5 52 10 52 6 0 10 18 10 40 0 22 -4 40 -10 40 -34 0 22 64 73 83 13 5 17 1 17
-18 0 -14 -4 -25 -10 -25 -11 0 -13 -78 -4 -157 5 -41 11 -53 24 -53 10 0 17
-7 16 -16 0 -9 4 -19 10 -21 16 -5 27 27 14 42 -5 6 -6 15 -2 19 4 4 8 17 9
29 7 60 16 97 25 97 5 0 23 9 39 21 25 18 29 27 29 70 0 27 2 49 5 49 3 0 17
-11 30 -25 19 -18 25 -35 25 -70 0 -25 -4 -45 -10 -45 -22 0 -10 -62 18 -88
64 -61 72 -80 72 -159 0 -75 8 -101 40 -136 25 -26 32 -8 20 49 -6 27 -13 63
-16 79 -3 17 -8 37 -12 45 -28 73 -29 100 -6 151 13 28 24 56 24 62 0 6 6 18
14 26 13 16 56 143 56 168 0 10 5 11 19 3 27 -14 31 -13 31 8 1 16 2 16 15 -2
13 -17 15 -17 40 9 15 14 26 27 24 28 -2 2 -16 9 -31 16 -22 11 -25 17 -18 36
6 15 4 31 -5 49 -12 22 -12 28 1 40 8 9 14 35 14 65 0 28 5 51 10 51 6 0 10
-7 10 -16 0 -42 67 -57 101 -23 21 21 21 21 0 43 -12 12 -21 28 -21 34 0 7
-13 25 -30 40 -16 16 -30 37 -30 46 0 9 -3 16 -6 16 -11 0 -34 -29 -34 -42 0
-8 -12 -13 -30 -14 -29 -1 -30 0 -30 47 0 42 3 49 20 49 13 0 20 7 20 20 0 13
-7 20 -19 20 -19 0 -61 47 -61 69 0 6 9 16 20 23 11 7 20 21 20 30 0 22 13 23
30 3 9 -10 9 -15 1 -15 -6 0 -11 -13 -11 -30 0 -16 5 -30 10 -30 6 0 10 -9 10
-19 0 -11 9 -23 20 -26 13 -4 20 -15 20 -32 0 -35 26 -53 56 -39 36 17 41 80
8 114 -15 15 -41 16 -46 1 -2 -5 -11 -7 -21 -4 -25 10 -23 89 3 117 13 14 20
36 20 59 0 47 8 69 26 69 8 0 14 5 14 10 0 6 13 10 29 10 53 0 53 66 0 77 -20
4 -29 12 -29 24 0 24 -26 25 -38 2 -17 -29 -42 8 -42 61 0 25 -4 46 -10 46 -5
0 -10 5 -10 10 0 6 27 10 60 10 60 0 60 0 60 30 0 32 -16 39 -39 18 -11 -10
-14 -10 -18 0 -6 16 -35 15 -48 -1z m-56 -139 c1 -5 -8 -8 -19 -8 -23 0 -24 3
-8 30 12 18 13 19 20 2 3 -9 7 -20 7 -24z m21 -218 c0 -23 -9 -25 -43 -7 -24
13 -25 15 -9 29 21 19 52 6 52 -22z m40 -721 c0 -6 -4 -7 -10 -4 -5 3 -10 11
-10 16 0 6 5 7 10 4 6 -3 10 -11 10 -16z"/>
<path d="M2873 28797 c-27 -28 -44 -38 -52 -32 -23 14 -41 -8 -41 -52 0 -24
-9 -63 -20 -85 -12 -25 -20 -62 -20 -93 0 -49 17 -105 33 -105 4 0 7 -34 7
-76 0 -76 0 -76 36 -70 38 8 84 42 84 63 0 8 11 36 25 63 14 27 25 56 25 64 0
8 11 23 25 34 14 11 25 25 25 31 0 6 -11 11 -25 11 -25 0 -35 23 -15 35 20 12
10 53 -21 86 -22 24 -29 38 -24 53 10 31 8 56 -6 72 -14 17 -20 17 -36 1z"/>
<path d="M12437 28404 c-3 -3 -3 -12 0 -20 3 -8 0 -14 -6 -14 -7 0 -11 -21
-11 -55 0 -30 -4 -55 -9 -55 -5 0 -12 -8 -14 -17 -4 -15 -6 -15 -12 5 -4 12
-11 22 -16 22 -5 0 -9 23 -9 50 0 28 -4 50 -10 50 -5 0 -10 -9 -10 -20 0 -11
-4 -20 -10 -20 -5 0 -10 -15 -10 -34 0 -19 5 -38 10 -41 6 -3 10 -26 10 -50 0
-24 5 -47 10 -50 6 -3 10 -30 10 -58 0 -41 4 -56 20 -67 11 -8 20 -22 20 -32
0 -10 6 -18 13 -18 6 0 20 -7 31 -15 15 -12 18 -26 16 -92 -3 -110 -4 -120
-12 -129 -5 -4 -8 -31 -8 -61 0 -29 -4 -53 -10 -53 -5 0 -10 -16 -10 -36 0
-31 -3 -35 -20 -29 -11 4 -20 2 -20 -4 0 -6 -21 -11 -48 -11 -36 0 -53 -6 -74
-24 -14 -14 -28 -31 -31 -38 -3 -11 -8 -11 -26 0 -14 8 -21 9 -21 1 0 -20 21
-49 35 -49 8 0 15 -4 15 -10 0 -5 16 -10 35 -10 19 0 35 5 35 11 0 7 14 8 39
4 33 -5 42 -3 60 16 21 23 21 23 21 -14 0 -30 -4 -37 -20 -37 -11 0 -20 5 -20
10 0 19 -15 10 -27 -17 -16 -34 -17 -145 -1 -161 6 -6 9 -15 5 -18 -3 -4 -13
1 -22 10 -20 20 -55 21 -55 2 0 -8 5 -18 10 -21 6 -3 10 -15 10 -26 0 -25 31
-60 38 -41 6 19 22 14 22 -8 0 -11 5 -20 10 -20 18 0 10 -17 -12 -28 -23 -11
-23 -11 0 -11 34 -1 26 -21 -8 -21 -16 0 -30 -4 -30 -9 0 -14 -83 -9 -97 5 -7
7 -13 20 -13 28 0 9 -4 16 -10 16 -9 0 -15 -73 -11 -135 1 -11 -5 -37 -13 -59
-11 -33 -11 -46 1 -84 7 -26 18 -51 23 -56 6 -6 10 -25 10 -43 0 -31 -2 -32
-20 -21 -11 7 -20 18 -20 25 0 7 -4 13 -10 13 -5 0 -20 12 -34 27 -27 29 -49
25 -24 -4 26 -31 30 -53 8 -53 -17 0 -20 -7 -20 -40 0 -22 -4 -40 -10 -40 -5
0 -10 -7 -10 -15 0 -8 5 -15 10 -15 6 0 10 -7 10 -15 0 -8 -7 -15 -15 -15 -12
0 -14 -7 -9 -27 4 -16 11 -29 16 -31 4 -2 8 -10 8 -18 0 -8 4 -14 9 -14 5 0
14 -13 21 -30 7 -16 16 -30 21 -30 5 0 9 -9 9 -21 0 -24 45 -159 70 -209 10
-19 21 -51 25 -70 4 -19 17 -51 29 -70 12 -19 26 -44 30 -55 8 -20 22 -169 32
-336 5 -87 5 -87 -30 -99 -42 -14 -56 -7 -56 25 0 13 -4 27 -10 30 -5 3 -10
17 -10 30 0 13 -4 27 -10 30 -5 3 -10 19 -10 35 0 16 -4 32 -10 35 -14 9 -13
78 2 93 9 9 9 15 0 24 -7 7 -12 36 -12 64 0 29 -4 56 -10 59 -5 3 -10 17 -10
31 0 13 -4 24 -10 24 -5 0 -10 13 -10 29 0 17 -4 33 -10 36 -5 3 -10 19 -10
36 0 16 -4 29 -10 29 -5 0 -10 18 -10 40 0 22 -4 40 -10 40 -5 0 -10 14 -10
30 0 17 -4 30 -10 30 -5 0 -10 7 -10 15 0 8 -7 15 -16 15 -11 0 -14 -6 -9 -22
4 -13 11 -27 16 -32 12 -13 11 -36 -1 -36 -5 0 -10 5 -10 11 0 6 -7 17 -15 25
-13 14 -17 14 -30 0 -20 -19 -19 -29 5 -46 13 -9 20 -26 20 -47 0 -17 5 -35
10 -38 6 -3 10 -22 10 -41 0 -19 5 -34 10 -34 6 0 10 -9 10 -19 0 -11 -4 -23
-10 -26 -12 -7 -14 -65 -2 -65 4 0 13 5 20 12 9 9 12 8 12 -4 0 -9 -6 -19 -12
-21 -10 -4 -10 -6 0 -6 7 -1 12 -14 12 -32 0 -20 8 -39 21 -50 17 -14 20 -25
14 -46 -4 -15 -8 -263 -11 -551 -2 -332 -7 -529 -14 -541 -13 -25 -13 -88 0
-96 6 -4 10 12 10 39 0 25 4 46 9 46 14 0 22 54 30 195 4 72 10 136 14 142 4
7 3 14 -3 18 -14 9 -13 45 1 45 9 0 10 45 5 171 -3 94 -8 174 -11 179 -3 4 2
24 10 44 8 19 16 48 16 63 1 20 3 23 6 8 2 -11 12 -36 21 -55 14 -29 17 -71
19 -235 1 -110 4 -213 7 -228 5 -26 7 -27 21 -14 11 11 15 39 16 99 1 46 4
125 8 177 6 93 6 94 33 98 27 4 27 4 26 -122 -1 -69 -4 -128 -8 -130 -3 -2 -3
-32 1 -67 3 -35 3 -67 -2 -73 -9 -12 -12 -83 -10 -239 1 -107 3 -117 17 -105
12 10 17 10 23 1 4 -7 15 -10 24 -6 12 4 17 18 17 51 0 25 6 51 14 59 19 18
26 18 26 -1 0 -8 -6 -15 -12 -15 -9 0 -10 -2 -2 -8 14 -8 16 -62 3 -62 -5 0
-9 -16 -9 -35 0 -21 5 -35 12 -35 9 0 9 -3 0 -12 -7 -7 -12 -38 -12 -70 0 -32
-4 -58 -10 -58 -5 0 -10 -20 -10 -45 0 -25 5 -45 10 -45 6 0 10 11 10 25 0 14
5 25 10 25 6 0 10 18 10 39 0 22 5 43 10 46 6 3 10 17 10 31 0 13 -4 24 -10
24 -5 0 -10 5 -10 10 0 6 9 10 20 10 13 0 20 7 20 19 0 11 5 23 11 26 6 4 8
13 6 19 -3 7 -2 30 2 52 4 22 4 49 0 60 -4 11 -1 28 7 42 8 12 12 27 9 32 -3
5 -1 11 3 14 5 3 7 17 4 32 -3 15 1 29 8 34 18 11 2 50 -21 50 -12 0 -19 7
-19 20 0 12 5 17 14 14 21 -8 28 12 11 29 -20 21 -19 34 5 49 11 7 20 22 20
32 0 16 -3 17 -12 8 -22 -22 -38 -13 -38 19 0 32 5 34 53 14 14 -6 17 -2 17
20 0 14 -5 35 -10 45 -7 13 -7 21 0 25 14 9 13 118 -2 150 -6 14 -18 25 -25
25 -8 0 -11 5 -8 10 3 6 1 10 -4 10 -6 0 -11 9 -11 20 0 11 5 20 10 20 14 0
13 57 -1 66 -8 4 -7 9 2 15 10 6 9 19 -7 65 -10 31 -25 59 -32 61 -8 3 -9 10
-4 17 5 6 12 23 16 39 6 26 5 27 -29 27 -19 0 -35 5 -35 11 0 5 12 9 28 8 50
-4 72 1 72 15 0 9 -7 12 -20 9 -14 -4 -20 0 -20 11 0 10 5 14 10 11 6 -4 10 6
10 24 0 16 -4 33 -10 36 -5 3 -10 21 -10 40 0 19 -4 37 -10 40 -5 3 -10 19
-10 35 0 15 -5 30 -12 32 -12 4 -9 12 17 57 16 28 7 60 -21 76 -34 19 -44 33
-44 64 0 17 -4 31 -10 31 -5 0 -10 18 -10 40 0 22 -4 40 -10 40 -16 0 -11 47
6 54 33 13 44 6 44 -24 0 -17 6 -33 14 -36 8 -3 12 -12 10 -19 -8 -21 22 -100
40 -103 20 -4 22 29 4 59 -10 17 -10 23 0 26 14 6 16 49 2 58 -5 3 -10 17 -10
30 0 13 -4 27 -10 30 -5 3 -10 19 -10 36 0 16 -4 29 -10 29 -5 0 -10 11 -10
24 0 14 -4 28 -10 31 -5 3 -10 19 -10 36 0 16 -4 29 -10 29 -5 0 -10 9 -10 20
0 11 -3 20 -7 20 -11 0 -33 50 -33 72 0 25 31 23 37 -2 6 -23 43 -28 43 -6 0
8 -9 18 -20 21 -11 3 -20 12 -20 20 0 8 -8 16 -18 19 -11 4 -25 19 -32 34 -7
15 -16 34 -19 41 -4 8 -22 22 -39 30 -34 17 -41 38 -17 47 8 4 15 13 15 21 0
12 16 14 96 10 97 -6 97 -6 89 41 -12 72 -15 291 -4 297 5 4 9 60 9 126 0 66
5 129 10 139 7 13 7 21 0 25 -12 7 -14 145 -2 145 9 0 8 89 -1 110 -4 8 -9 87
-13 175 -14 381 -15 391 -37 369z m-17 -878 c0 -26 -20 -39 -45 -30 -21 8 -19
21 5 29 11 3 20 11 20 16 0 5 5 9 10 9 6 0 10 -11 10 -24z m-20 -337 c0 -27
-4 -49 -10 -49 -5 0 -10 25 -10 56 0 34 4 53 10 49 6 -3 10 -28 10 -56z m-96
-385 c23 -9 20 -24 -4 -24 -11 0 -20 7 -20 15 0 17 2 18 24 9z m19 -58 c28
-21 19 -66 -10 -48 -14 9 -28 62 -17 62 5 0 17 -7 27 -14z m-156 -128 c-3 -8
-6 -5 -6 6 -1 11 2 17 5 13 3 -3 4 -12 1 -19z m-77 -434 c0 -8 -5 -12 -10 -9
-6 4 -8 11 -5 16 9 14 15 11 15 -7z m316 -138 c8 -8 14 -30 14 -50 0 -19 4
-37 9 -40 10 -7 -9 -56 -21 -56 -5 0 -8 11 -8 25 0 14 -4 25 -10 25 -5 0 -10
25 -10 55 0 58 3 63 26 41z m64 -206 c0 -5 -11 -10 -25 -10 -14 0 -25 5 -25
10 0 6 11 10 25 10 14 0 25 -4 25 -10z m-13 -86 c-3 -3 -12 -4 -19 -1 -8 3 -5
6 6 6 11 1 17 -2 13 -5z m-37 -180 c0 -14 -4 -23 -10 -19 -5 3 -10 15 -10 26
0 10 5 19 10 19 6 0 10 -12 10 -26z m56 -30 c-4 -9 -1 -23 5 -30 17 -20 -8
-19 -28 2 -14 14 -14 16 3 29 25 19 27 18 20 -1z m25 -117 c19 -12 27 -61 11
-71 -9 -6 -7 -55 4 -100 5 -19 2 -31 -7 -37 -20 -12 -29 8 -29 65 0 37 -5 53
-22 67 -25 22 -17 39 9 18 15 -12 16 -12 10 4 -4 11 -1 20 8 23 8 4 12 10 9
15 -3 5 -13 5 -24 -1 -29 -16 -48 -12 -26 5 11 8 14 15 8 15 -18 0 -15 21 6
36 15 11 17 10 20 -7 2 -11 12 -25 23 -32z m-89 -5 c-7 -2 -12 -23 -12 -49 0
-37 -3 -44 -17 -41 -19 3 -33 68 -15 68 5 0 12 9 15 20 4 14 10 18 23 13 11
-4 13 -8 6 -11z m43 -102 c3 -5 1 -10 -4 -10 -6 0 -11 5 -11 10 0 6 2 10 4 10
3 0 8 -4 11 -10z m6 -33 c-1 -12 -15 -9 -19 4 -3 6 1 10 8 8 6 -3 11 -8 11
-12z m-61 -17 c0 -11 -2 -20 -5 -20 -2 0 -9 9 -15 20 -9 16 -8 20 5 20 8 0 15
-9 15 -20z m60 -32 c0 -3 -6 -9 -12 -11 -10 -4 -10 -8 1 -15 12 -9 12 -13 -2
-26 -24 -24 -27 -20 -27 34 0 48 1 50 20 38 11 -7 20 -16 20 -20z m-80 -9 c0
-5 5 -7 10 -4 6 4 10 -7 10 -25 0 -25 -3 -31 -16 -26 -9 3 -18 6 -20 6 -2 0
-4 14 -4 30 0 17 5 30 10 30 6 0 10 -5 10 -11z m10 -109 c12 -8 11 -10 -7 -10
-13 0 -23 5 -23 10 0 13 11 13 30 0z m-10 -240 c0 -11 -4 -20 -10 -20 -5 0
-10 9 -10 20 0 11 5 20 10 20 6 0 10 -9 10 -20z m60 -40 c0 -11 -4 -20 -10
-20 -5 0 -10 9 -10 20 0 11 5 20 10 20 6 0 10 -9 10 -20z"/>
<path d="M880 25440 c0 -11 -4 -20 -10 -20 -5 0 -10 -9 -10 -20 0 -11 -4 -20
-10 -20 -5 0 -10 -21 -10 -46 0 -27 -4 -43 -10 -39 -6 4 -10 -45 -10 -139 0
-94 -4 -146 -10 -146 -7 0 -10 -33 -8 -92 3 -89 4 -93 26 -96 31 -5 51 23 52
71 0 20 5 37 10 37 6 0 10 9 10 20 0 11 5 20 10 20 6 0 10 6 10 14 0 8 9 18
20 21 15 5 20 15 20 43 0 26 6 42 20 52 11 8 20 25 20 39 0 13 9 31 20 41 25
22 62 108 55 129 -5 14 -45 37 -97 54 -12 4 -18 17 -18 37 0 38 -20 60 -54 60
-19 0 -26 -5 -26 -20z"/>
<path d="M5128 22778 c-23 -23 -23 -34 2 -60 11 -12 20 -28 20 -35 0 -7 5 -13
10 -13 6 0 10 -8 10 -18 0 -23 19 -42 43 -42 16 0 18 -5 14 -29 -4 -20 -2 -31
8 -35 8 -3 26 -23 40 -46 22 -35 29 -39 53 -34 15 4 35 17 46 28 13 15 20 17
23 9 9 -25 51 -14 70 17 9 17 23 30 30 30 7 0 13 4 13 9 0 5 8 17 17 26 9 10
17 25 18 34 0 9 4 22 9 29 13 21 -13 41 -62 48 -48 7 -63 17 -75 47 -4 11 -17
17 -37 17 -17 0 -39 7 -47 16 -11 10 -26 14 -44 10 -16 -3 -31 -2 -33 3 -3 5
-26 4 -52 -2 -30 -7 -48 -7 -52 -1 -4 6 -14 3 -24 -8z"/>
<path d="M8402 21133 c-13 -14 -30 -39 -38 -56 -9 -17 -25 -39 -35 -50 -10
-12 -19 -25 -19 -30 0 -5 -13 -22 -30 -37 -16 -15 -30 -34 -30 -42 0 -7 -9
-20 -20 -28 -11 -8 -20 -18 -20 -23 0 -5 -13 -28 -30 -52 -16 -24 -30 -48 -30
-54 0 -6 -4 -11 -9 -11 -10 0 -61 -96 -61 -117 0 -13 -71 -198 -91 -235 -5
-10 -9 -31 -9 -48 0 -16 -4 -30 -10 -30 -5 0 -10 -22 -10 -49 0 -28 -4 -53
-10 -56 -5 -3 -10 -28 -10 -56 0 -27 -4 -49 -10 -49 -5 0 -10 -25 -10 -55 0
-30 -4 -55 -10 -55 -5 0 -10 -15 -10 -33 0 -34 -20 -87 -32 -87 -5 0 -8 -7 -8
-15 0 -8 -4 -15 -10 -15 -5 0 -10 -6 -10 -14 0 -8 -4 -16 -10 -18 -5 -1 -12
-30 -15 -63 -3 -33 -8 -68 -11 -77 -3 -10 -1 -18 5 -18 14 0 15 -336 2 -344
-15 -9 -22 -74 -32 -269 -5 -100 -13 -220 -18 -267 -6 -47 -15 -134 -21 -195
-29 -305 -35 -361 -41 -370 -4 -5 -7 -53 -8 -105 -1 -52 -6 -99 -12 -104 -5
-6 -9 -54 -9 -108 0 -72 -3 -98 -12 -98 -9 0 -10 -2 -2 -8 7 -4 15 -45 18 -92
4 -47 9 -116 12 -154 4 -51 2 -71 -8 -77 -10 -7 -10 -9 3 -9 14 0 17 -20 22
-132 3 -84 1 -138 -5 -145 -8 -10 -6 -13 6 -13 13 0 16 -13 16 -82 1 -46 4
-108 7 -138 10 -78 7 -542 -3 -755 -6 -102 -6 -183 -1 -186 5 -4 7 -17 6 -30
-2 -13 0 -29 4 -35 4 -7 8 -39 9 -73 2 -33 6 -61 9 -61 4 0 10 -21 13 -47 4
-27 12 -75 17 -108 6 -33 11 -80 12 -105 1 -25 8 -51 15 -58 7 -8 12 -40 12
-78 0 -35 4 -64 10 -64 5 0 9 -21 8 -46 0 -25 4 -49 9 -53 6 -3 11 -31 12 -61
1 -30 6 -59 11 -64 6 -6 10 -105 10 -241 0 -171 3 -234 12 -243 10 -10 10 -15
-2 -22 -12 -7 -12 -12 -2 -22 14 -14 16 -58 2 -58 -5 0 -10 -5 -10 -11 0 -6 9
-9 20 -6 15 4 20 0 20 -14 0 -10 5 -19 10 -19 6 0 10 10 10 23 0 12 9 29 20
37 21 15 27 40 10 40 -5 0 -10 11 -10 25 0 14 -4 25 -10 25 -13 0 -13 43 1 57
7 7 8 17 2 29 -5 11 -11 82 -12 159 -2 77 -7 141 -12 143 -5 2 -9 69 -9 148 0
89 -4 144 -10 144 -6 0 -10 27 -10 60 0 33 4 60 10 60 6 0 10 18 10 40 0 22
-4 40 -10 40 -7 0 -10 287 -10 840 0 553 3 840 10 840 6 0 10 93 10 260 0 214
2 260 14 260 36 0 51 66 22 99 -13 14 -16 42 -16 154 0 85 -4 137 -10 137 -5
0 -10 11 -10 25 0 14 5 25 10 25 6 0 10 7 10 15 0 8 -4 15 -10 15 -15 0 -12
77 3 83 9 4 8 8 -3 16 -12 8 -12 13 -2 23 20 20 15 76 -8 83 -20 6 -28 35 -10
35 15 0 12 67 -2 74 -10 5 -10 7 0 12 14 7 17 74 2 74 -5 0 -10 7 -10 15 0 8
5 15 10 15 15 0 12 67 -2 74 -10 5 -10 7 0 12 8 4 12 31 12 85 0 46 4 79 10
79 6 0 10 23 10 50 0 28 -4 50 -10 50 -5 0 -10 16 -10 35 0 19 5 35 10 35 6 0
10 16 10 35 0 19 5 35 10 35 19 0 10 42 -10 47 -13 3 -20 14 -20 29 0 26 16
41 23 22 3 -9 9 -7 19 6 18 22 24 236 8 236 -6 0 -10 -16 -10 -36 0 -21 -4
-33 -10 -29 -6 3 -7 17 -4 31 4 17 1 26 -10 30 -17 7 -22 44 -6 44 6 0 10 14
10 30 0 23 -4 30 -20 30 -11 0 -20 5 -20 10 0 6 4 10 10 10 5 0 9 37 9 85 0
77 -2 85 -20 85 -25 0 -25 17 1 25 23 7 28 53 8 74 -10 11 -10 14 0 18 7 3 12
24 12 54 0 27 5 49 10 49 6 0 10 7 10 15 0 8 5 15 10 15 6 0 10 15 10 34 0 39
13 81 47 153 14 28 27 71 30 95 5 46 32 108 47 108 5 0 6 -22 2 -50 -6 -44 -5
-50 12 -50 10 0 24 -6 30 -12 10 -10 14 -8 18 10 8 27 35 29 52 2 18 -29 32
-25 32 10 0 23 -4 30 -20 30 -11 0 -20 5 -20 10 0 6 5 10 10 10 6 0 10 7 10
15 0 8 5 15 10 15 14 0 13 33 -2 48 -9 9 -9 12 0 12 7 0 12 11 12 25 0 14 5
25 10 25 6 0 10 9 10 20 0 11 5 20 10 20 6 0 10 9 10 20 0 27 -5 26 -45 -15
-27 -26 -35 -43 -35 -70 0 -19 -5 -35 -11 -35 -7 0 -9 -11 -5 -31 4 -22 2 -29
-7 -26 -6 2 -20 -5 -29 -15 -18 -21 -38 -17 -38 7 0 8 7 18 16 23 15 8 15 15
4 59 -12 47 -12 53 10 88 19 31 21 41 11 57 -9 14 -9 24 0 41 25 46 61 61 87
35 6 -6 15 -8 19 -4 4 4 -7 20 -25 35 -32 28 -32 28 -2 60 17 17 30 38 30 46
0 8 5 15 10 15 6 0 10 7 10 17 0 15 1 15 18 0 16 -15 19 -15 30 3 16 26 15 40
-2 40 -7 0 -16 9 -19 20 -3 11 -2 20 3 20 17 0 70 59 70 79 0 11 10 31 23 45
78 87 77 84 49 109 -16 14 -19 14 -40 -10z m-299 -718 c-7 -21 -13 -19 -13 6
0 11 4 18 10 14 5 -3 7 -12 3 -20z m-219 -1011 c15 -6 23 -34 10 -34 -7 0 -34
27 -34 34 0 8 5 7 24 0z m56 -101 c0 -28 -21 -53 -44 -53 -12 0 -16 10 -16 38
0 36 2 39 30 39 25 0 30 -4 30 -24z m-81 -485 c1 -32 -3 -58 -9 -58 -5 0 -9
34 -9 78 1 89 17 72 18 -20z m0 -293 c0 -126 -5 -225 -10 -225 -5 0 -9 16 -9
35 0 19 -4 35 -10 35 -13 0 -13 -87 0 -92 8 -3 12 -55 10 -157 0 -14 5 -28 11
-32 11 -7 -9 -49 -23 -49 -5 0 -8 -6 -8 -13 0 -7 -9 -23 -20 -35 -23 -25 -28
-51 -6 -33 11 9 16 3 25 -34 12 -47 0 -85 -26 -85 -6 0 -14 -9 -18 -19 -3 -11
-12 -25 -20 -31 -13 -11 -15 -7 -15 19 0 21 5 31 15 31 19 0 19 20 -1 48 -13
20 -14 34 -6 99 6 42 16 80 24 84 10 7 10 9 1 9 -7 0 -13 11 -13 25 0 14 4 25
9 25 15 0 29 117 31 260 1 74 5 139 10 145 4 5 10 35 13 65 3 30 8 66 10 80 3
14 6 35 6 48 1 12 6 22 11 22 7 0 10 -75 9 -225z m14 -520 c-3 -8 -17 -15 -31
-15 -25 0 -25 0 -2 20 24 21 43 18 33 -5z m-114 -252 c0 -5 -4 -17 -9 -28 -8
-18 -9 -17 -9 8 -1 15 4 27 9 27 6 0 10 -3 9 -7z m96 -273 c3 -5 -3 -10 -15
-10 -12 0 -18 5 -15 10 3 6 10 10 15 10 5 0 12 -4 15 -10z m-35 -1221 c0 -5
-4 -9 -10 -9 -5 0 -10 7 -10 16 0 8 5 12 10 9 6 -3 10 -10 10 -16z"/>
<path d="M23470 19621 c0 -10 6 -31 14 -46 17 -33 11 -55 -14 -55 -26 0 -28
-8 -21 -65 5 -45 8 -50 29 -47 18 3 23 -3 28 -27 4 -17 10 -31 15 -31 16 0 9
-34 -11 -60 -20 -25 -20 -25 -20 2 0 15 -8 31 -17 37 -14 7 -22 2 -40 -24 -20
-29 -21 -38 -11 -59 6 -15 19 -26 28 -26 29 0 46 -28 32 -51 -19 -30 -15 -69
7 -69 11 0 23 -12 31 -29 6 -16 20 -31 31 -34 17 -5 19 1 19 57 0 34 -5 67
-10 72 -6 6 -10 41 -8 80 3 69 3 69 36 71 46 4 62 -16 62 -76 0 -43 5 -56 30
-82 29 -31 29 -31 9 -70 -19 -39 -19 -39 11 -96 17 -32 37 -65 45 -73 8 -9 15
-22 15 -28 0 -7 7 -12 15 -12 12 0 11 7 -6 39 -11 22 -19 48 -19 58 1 10 1 48
1 86 -1 62 9 87 23 52 3 -8 12 -15 21 -15 26 0 19 71 -11 111 -38 51 -66 109
-60 125 3 8 2 34 -3 59 -6 30 -5 46 3 49 6 2 3 5 -6 5 -26 1 -57 31 -76 71 -9
19 -24 42 -34 51 -10 9 -18 22 -18 28 0 17 -26 41 -44 41 -9 0 -16 -4 -16 -10
0 -5 -7 -10 -15 -10 -8 0 -15 5 -15 10 0 6 -7 10 -15 10 -8 0 -15 -8 -15 -19z
m100 -129 c0 -38 -34 -24 -38 16 -3 31 -2 32 17 20 12 -7 21 -23 21 -36z m-73
-64 c-3 -8 -6 -5 -6 6 -1 11 2 17 5 13 3 -3 4 -12 1 -19z"/>
<path d="M10057 18379 c-11 -6 -25 -26 -33 -45 -16 -38 -33 -44 -41 -14 -4 15
-11 19 -32 14 -50 -11 -131 -58 -131 -76 0 -13 -8 -18 -27 -18 -37 0 -55 13
-47 33 13 34 -22 16 -88 -46 -38 -35 -68 -68 -68 -74 0 -5 -13 -24 -30 -41
-16 -18 -30 -39 -30 -47 0 -8 -4 -15 -10 -15 -5 0 -10 -6 -10 -14 0 -8 -4 -16
-8 -18 -5 -1 -33 -39 -62 -83 -47 -71 -75 -109 -111 -153 -5 -7 -13 -43 -16
-80 -5 -57 -2 -71 14 -91 22 -26 43 -22 43 10 0 10 4 19 8 19 5 0 15 12 23 28
8 15 20 33 27 40 10 11 13 10 19 -5 14 -37 63 -47 63 -13 0 11 -4 20 -10 20
-24 0 -7 21 28 35 21 9 46 27 56 40 14 19 22 22 32 14 10 -8 20 -4 42 17 22
22 36 28 60 26 25 -3 32 1 32 14 0 9 -8 22 -17 29 -15 11 -15 15 6 44 23 31
41 33 41 4 0 -14 3 -14 20 2 11 10 20 29 20 42 0 18 5 23 28 23 15 0 32 4 37
8 15 11 45 68 45 86 0 9 8 16 19 16 26 0 91 62 90 86 0 17 -1 16 -9 -3 -6 -13
-18 -23 -30 -23 -11 0 -20 -4 -20 -9 0 -5 -7 -12 -16 -15 -15 -6 -16 0 -11 39
5 35 16 55 46 85 22 22 44 40 49 40 13 0 42 45 42 65 0 18 -8 18 -33 4z"/>
<path d="M9111 18027 c-16 -16 -14 -48 5 -61 19 -14 10 -42 -17 -49 -21 -6
-26 -36 -8 -54 8 -8 7 -17 -2 -34 -7 -13 -14 -53 -15 -89 -5 -110 -30 -190
-60 -190 -3 0 -4 18 -1 40 3 22 3 49 0 59 -5 19 -6 19 -22 3 -53 -52 -81 -134
-49 -144 8 -3 7 -10 -4 -26 -15 -22 -13 -67 3 -78 17 -10 9 -34 -11 -34 -15 0
-20 -7 -20 -25 0 -22 4 -25 40 -25 39 0 40 -1 40 -32 -1 -30 -2 -31 -14 -15
-16 21 -46 23 -46 2 0 -8 -4 -15 -10 -15 -5 0 -10 -18 -10 -40 0 -22 -4 -40
-10 -40 -5 0 -10 5 -10 10 0 23 -39 8 -52 -20 -7 -16 -16 -30 -20 -30 -5 0 -8
-16 -8 -35 0 -19 -4 -35 -10 -35 -5 0 -10 -14 -10 -31 0 -27 3 -30 28 -27 23
3 27 -1 30 -24 2 -16 8 -28 13 -28 5 0 9 -20 9 -45 0 -25 4 -45 10 -45 15 0
50 42 50 60 0 22 9 30 26 23 16 -6 20 -103 4 -103 -16 0 -12 -40 5 -46 23 -9
-11 -63 -36 -57 -23 6 -24 -6 -4 -77 46 -164 47 -171 25 -192 -18 -17 -20 -31
-20 -143 0 -77 4 -125 10 -125 6 0 10 -16 10 -36 0 -20 11 -57 24 -83 13 -25
28 -58 34 -73 7 -16 16 -28 22 -28 5 0 10 -12 11 -27 1 -22 3 -20 9 12 5 22
10 45 11 50 2 6 -7 29 -19 52 -23 45 -37 133 -21 133 5 0 9 -9 9 -19 0 -24 18
-37 32 -23 6 6 6 12 -1 16 -7 5 -11 46 -11 106 0 55 -4 102 -10 105 -5 3 -10
14 -10 23 0 10 -11 29 -25 44 -19 21 -21 27 -10 32 12 4 14 25 13 97 -2 79 0
93 17 105 28 21 46 81 46 154 0 36 5 80 12 98 9 26 9 37 -1 53 -9 14 -12 54
-11 121 2 87 0 103 -15 114 -14 10 -17 19 -11 41 10 34 10 101 1 110 -3 3 1
17 9 30 9 13 13 28 10 32 -3 5 -2 16 1 25 8 22 74 22 74 0 0 -8 5 -12 10 -9 6
3 10 15 10 26 0 10 -4 19 -10 19 -14 0 -12 27 3 33 6 3 4 6 -7 6 -10 1 -25 -7
-32 -16 -12 -16 -13 -11 -14 39 0 31 5 60 10 63 6 3 10 15 10 26 0 20 16 27
22 9 2 -5 15 1 31 14 18 16 27 33 27 54 0 17 5 34 10 37 6 3 10 15 10 26 0 14
-7 19 -30 19 -30 0 -30 0 -30 -65 0 -65 -4 -72 -27 -57 -17 11 -19 82 -4 110
7 12 9 27 6 32 -6 10 24 72 38 78 11 5 9 42 -3 42 -5 0 -10 12 -10 28 0 32
-31 57 -49 39z m-201 -908 c0 -32 -19 -59 -42 -59 -8 0 -19 -5 -26 -12 -9 -9
-12 -8 -12 5 0 9 5 17 10 17 6 0 10 6 10 13 0 27 26 67 43 67 12 0 17 -8 17
-31z m69 4 c1 -1 0 -6 -3 -12 -9 -13 -46 8 -46 26 0 11 4 11 23 1 12 -7 24
-14 26 -15z m62 -21 c7 -19 5 -22 -9 -20 -13 2 -18 -5 -20 -34 -2 -20 -10 -42
-17 -48 -12 -10 -17 -7 -25 15 -14 37 -13 45 8 45 15 0 17 6 14 36 -4 32 -2
35 18 32 13 -2 27 -13 31 -26z m17 -162 c0 -56 -3 -73 -17 -83 -10 -6 -21 -22
-25 -34 -12 -39 -26 -25 -26 26 0 59 7 81 26 81 8 0 14 10 14 23 0 34 11 67
20 62 5 -3 8 -37 8 -75z m-60 -237 c-3 -32 -32 -43 -42 -17 -7 19 10 44 31 44
10 0 13 -9 11 -27z"/>
<path d="M9666 17177 c-24 -20 -28 -28 -22 -52 5 -20 2 -32 -11 -46 -10 -10
-23 -24 -30 -31 -7 -7 -18 -18 -25 -24 -28 -25 -48 -55 -48 -74 0 -16 -7 -20
-34 -20 -37 0 -90 -43 -106 -86 -7 -17 -14 -23 -22 -17 -7 4 -21 6 -30 5 -10
-2 -18 2 -18 7 0 6 5 11 12 11 9 0 8 3 -1 13 -11 10 -14 10 -18 0 -3 -7 -10
-13 -17 -13 -19 0 -39 -45 -31 -69 4 -14 1 -31 -9 -46 -9 -13 -16 -34 -16 -46
0 -18 5 -21 28 -17 28 4 29 2 40 -51 28 -137 27 -229 -2 -218 -17 7 -28 -136
-15 -203 4 -25 13 -81 19 -125 6 -44 18 -110 27 -147 14 -60 18 -67 45 -72 26
-5 29 -9 24 -30 -3 -14 -2 -28 4 -31 16 -10 24 24 12 50 -8 18 -8 25 3 29 8 3
17 1 20 -4 11 -17 65 -12 65 6 0 19 24 44 43 44 7 0 20 12 28 28 8 15 18 30
24 35 6 4 5 10 -4 16 -12 8 -13 15 -4 34 7 14 8 29 2 38 -11 18 -12 59 -1 59
12 0 33 48 24 53 -4 2 -20 7 -35 11 -25 6 -28 5 -22 -14 4 -11 2 -20 -4 -20
-6 0 -11 7 -11 15 0 8 -9 15 -20 15 -22 0 -29 35 -8 42 14 5 13 71 -1 76 -6 2
-11 21 -11 43 0 32 -3 39 -20 39 -14 0 -20 -7 -20 -24 0 -13 6 -26 13 -29 8
-3 6 -9 -8 -20 -11 -8 -23 -13 -27 -11 -4 3 -18 -5 -30 -16 -23 -21 -23 -21
-26 -1 -2 11 1 29 7 40 8 14 8 20 -1 23 -9 3 -9 11 0 34 7 16 11 61 11 99 -2
51 4 88 20 130 33 91 42 107 86 149 32 31 36 38 18 33 -20 -4 -23 -1 -23 24 0
16 5 29 10 29 14 0 13 33 -2 48 -13 13 -8 15 40 12 24 -1 32 3 32 15 0 9 16
33 35 53 19 20 35 40 35 43 0 3 17 6 38 7 35 1 36 0 17 -14 -17 -13 -18 -16
-3 -30 15 -15 16 -14 23 5 12 38 26 22 23 -26 -1 -29 3 -48 10 -51 19 -6 14
-40 -8 -47 -30 -9 -24 -31 12 -46 25 -10 33 -10 36 -1 2 7 17 19 33 27 16 9
32 27 35 40 7 30 24 33 24 6 0 -11 10 -27 21 -35 13 -8 19 -21 16 -29 -4 -10
3 -17 19 -21 13 -4 24 -12 24 -20 0 -7 12 -26 27 -42 15 -16 27 -40 27 -54 0
-39 -15 -93 -30 -111 -9 -10 -16 -52 -20 -115 -5 -83 -11 -109 -38 -164 -17
-36 -39 -74 -48 -84 -10 -11 -18 -26 -18 -33 0 -7 -4 -13 -10 -13 -5 0 -10
-16 -10 -35 0 -19 -4 -35 -10 -35 -16 0 -12 -14 10 -38 11 -12 20 -24 20 -27
0 -3 9 -15 20 -27 17 -19 20 -19 20 -5 0 34 55 15 103 -34 15 -16 27 -33 27
-39 0 -5 5 -10 10 -10 6 0 10 18 10 41 0 22 5 49 10 60 7 13 7 19 0 19 -5 0
-10 7 -10 15 0 8 -4 15 -10 15 -18 0 -10 40 10 52 21 13 28 48 10 48 -17 0
-11 52 8 69 24 23 42 57 42 81 0 12 9 30 20 42 18 19 20 20 20 4 0 -23 32 -56
38 -38 2 6 12 12 23 12 24 0 24 1 -1 45 -27 47 -26 52 15 65 33 11 48 30 24
30 -6 0 -17 6 -25 14 -12 13 -11 15 6 21 17 5 20 15 20 69 0 63 0 64 -30 70
-22 4 -30 11 -30 26 0 15 -8 22 -30 27 -16 3 -30 11 -30 18 0 13 39 52 47 47
3 -2 7 -1 11 2 3 3 -2 6 -12 6 -26 0 -30 26 -8 58 14 18 20 44 20 76 0 27 5
52 10 55 18 11 52 76 52 98 0 32 -42 58 -69 43 -12 -6 -36 -8 -56 -4 -30 5
-35 3 -35 -12 0 -34 -69 -79 -84 -55 -3 4 -30 4 -60 -1 -44 -8 -60 -7 -87 8
-23 11 -34 13 -37 5 -2 -6 -12 -11 -23 -11 -10 0 -19 -4 -19 -10 0 -5 9 -10
20 -10 15 0 20 -7 20 -29 0 -17 -6 -31 -16 -35 -23 -9 -24 -8 -24 14 0 11 -4
20 -10 20 -6 0 -10 38 -10 95 0 88 -1 95 -20 95 -11 0 -20 5 -20 10 0 18 -45
10 -74 -13z m549 -571 c7 -7 15 -22 17 -32 2 -16 -2 -18 -26 -16 -16 2 -33 -3
-37 -10 -12 -19 -22 -2 -10 19 5 10 12 26 15 36 6 20 22 22 41 3z m-45 -140
c0 -49 -2 -54 -20 -49 -14 4 -20 14 -20 34 0 16 5 29 10 29 6 0 10 9 10 20 0
11 5 20 10 20 6 0 10 -24 10 -54z m-620 -336 c0 -13 -7 -20 -20 -20 -11 0 -20
-4 -20 -10 0 -5 -4 -10 -10 -10 -5 0 -10 7 -10 15 0 8 9 15 20 15 11 0 20 7
20 15 0 8 5 15 10 15 6 0 10 -9 10 -20z"/>
<path d="M8190 16627 c0 -29 4 -57 10 -63 6 -6 12 -229 15 -589 6 -731 13
-1027 25 -1039 6 -6 10 -68 10 -139 0 -70 4 -137 10 -147 5 -10 16 -64 24
-121 8 -57 17 -113 21 -125 5 -15 0 -23 -17 -32 -23 -11 -23 -11 -2 -17 23 -7
54 -63 54 -98 0 -12 7 -54 15 -92 9 -39 20 -95 26 -125 5 -30 14 -77 20 -105
5 -27 12 -68 16 -90 3 -22 9 -44 14 -49 5 -6 9 -29 9 -52 0 -24 5 -46 11 -50
7 -4 10 -27 7 -61 -4 -40 -2 -53 8 -49 9 3 12 -9 12 -42 0 -25 5 -48 11 -50
15 -5 14 -39 -1 -46 -10 -5 -10 -7 0 -12 6 -3 12 -17 12 -30 0 -13 5 -24 11
-24 7 0 9 -11 6 -26 -3 -16 0 -28 9 -31 17 -6 18 -43 2 -44 -7 0 -3 -5 10 -11
24 -12 31 -57 10 -59 -7 0 -3 -5 10 -11 23 -11 31 -48 10 -48 -6 0 -1 -8 10
-19 25 -21 28 -41 10 -59 -9 -9 -7 -12 10 -12 24 0 30 -28 10 -48 -9 -9 -8
-12 4 -12 8 0 23 -10 31 -22 16 -23 16 -23 16 9 1 17 -3 35 -9 38 -14 9 -12
43 2 47 9 3 8 10 -5 22 -10 10 -15 26 -12 35 3 10 -4 27 -15 39 -14 15 -20 35
-20 71 0 27 -4 53 -10 56 -5 3 -10 28 -10 56 0 27 -4 49 -10 49 -5 0 -10 7
-10 15 0 8 -4 15 -10 15 -5 0 -10 25 -10 55 0 30 -4 55 -10 55 -17 0 -11 25
10 40 11 8 20 18 20 23 0 5 -9 5 -20 2 -14 -5 -20 -2 -20 9 0 9 9 16 20 16 13
0 20 7 20 20 0 11 -4 20 -10 20 -5 0 -10 -7 -10 -15 0 -8 -9 -15 -20 -15 -16
0 -20 7 -20 35 0 28 4 35 20 35 11 0 20 -4 20 -10 0 -5 5 -10 10 -10 16 0 11
47 -6 54 -22 9 -24 8 -24 -10 0 -11 -5 -14 -16 -10 -9 3 -18 6 -20 6 -2 0 -4
16 -4 35 0 19 -4 43 -9 53 -17 31 -43 165 -51 262 -5 52 -13 122 -19 155 -13
73 -7 95 23 95 19 0 22 4 18 25 -2 14 1 31 7 38 8 10 6 19 -5 35 -10 14 -13
33 -9 55 6 30 3 34 -33 55 -35 19 -41 29 -57 87 -10 40 -17 99 -17 155 0 49
-4 90 -9 90 -5 0 -9 21 -9 48 0 42 3 49 30 64 17 9 30 24 30 32 0 8 9 20 20
26 11 6 20 15 20 20 0 17 -28 11 -42 -9 -7 -10 -22 -21 -34 -25 -20 -6 -21 -5
-11 51 7 41 7 58 -2 61 -6 2 -11 9 -11 16 0 6 -9 18 -20 26 -15 11 -20 26 -20
57 0 24 3 43 8 43 11 0 32 51 32 77 0 33 -23 113 -32 113 -4 0 -8 9 -8 20 0
11 -4 20 -10 20 -20 0 -9 26 20 45 36 24 36 25 10 53 -11 12 -20 30 -20 42 0
11 -5 20 -12 20 -9 0 -9 3 0 12 7 7 12 27 12 44 0 18 4 36 10 39 16 10 8 79
-12 96 -12 12 -18 30 -18 63 0 25 3 46 8 47 47 5 62 16 42 30 -11 8 -12 12 -2
16 16 6 15 73 -2 96 -7 9 -21 17 -30 17 -15 0 -17 12 -15 115 2 79 -1 119 -9
127 -18 18 -15 42 8 58 12 8 20 26 20 42 0 15 5 28 10 28 6 0 10 9 10 20 0 11
-4 20 -10 20 -5 0 -10 6 -10 13 0 7 -9 19 -20 27 -15 11 -20 26 -20 57 0 36
-3 43 -20 43 -17 0 -20 -7 -20 -53z m95 -537 c3 -5 1 -10 -4 -10 -6 0 -11 5
-11 10 0 6 2 10 4 10 3 0 8 -4 11 -10z"/>
<path d="M23404 14373 c-54 -10 -60 -143 -7 -143 6 0 35 -13 63 -30 63 -37 70
-37 70 -2 0 21 7 32 25 40 30 14 55 16 55 4 0 -4 8 -12 18 -17 55 -30 107 -72
110 -90 5 -29 23 -44 57 -49 37 -5 65 -16 65 -26 0 -4 14 -21 30 -38 17 -18
30 -35 30 -39 0 -5 14 -17 30 -28 16 -11 30 -25 30 -32 0 -26 123 -196 149
-208 8 -3 22 1 31 10 18 16 50 11 50 -7 0 -14 40 -48 56 -48 7 0 33 -9 58 -19
31 -14 46 -16 49 -8 6 18 -113 128 -148 138 -18 5 -38 20 -45 34 -7 14 -17 25
-21 25 -5 0 -5 7 -2 17 4 11 3 14 -5 9 -7 -4 -32 7 -57 24 -46 32 -57 50 -30
50 19 0 19 7 1 26 -18 17 -38 18 -54 2 -9 -9 -19 -4 -42 22 -16 18 -30 40 -30
47 0 7 -13 16 -28 19 -15 3 -38 13 -50 23 -19 14 -21 21 -14 41 16 42 -14 88
-53 81 -2 0 -35 15 -72 34 -38 19 -72 35 -77 35 -5 0 -29 20 -53 45 -43 45
-73 58 -73 30 0 -21 -7 -19 -42 10 -29 25 -34 26 -74 18z"/>
<path d="M8830 12471 c0 -12 -6 -21 -12 -22 -7 0 -3 -5 10 -11 23 -12 31 -48
10 -49 -7 0 -3 -5 10 -11 23 -12 31 -48 10 -49 -7 0 -3 -5 10 -11 24 -12 30
-43 10 -51 -7 -3 -3 -6 10 -6 15 -1 22 -7 22 -21 0 -11 -6 -20 -12 -21 -7 0
-5 -4 6 -8 24 -9 51 -87 36 -106 -8 -9 -6 -14 8 -17 12 -4 25 -24 36 -59 10
-30 35 -91 57 -136 21 -44 39 -86 39 -92 0 -6 5 -11 10 -11 6 0 10 -7 10 -15
0 -18 42 -109 53 -113 4 -2 7 -12 7 -23 0 -10 5 -19 10 -19 14 0 12 -37 -2
-43 -7 -3 -3 -6 10 -6 15 -1 22 -7 22 -21 0 -11 5 -20 10 -20 6 0 10 -8 10
-18 0 -10 6 -24 12 -30 10 -10 10 -17 -1 -34 -12 -19 -11 -20 8 -15 24 6 28
-11 9 -32 -11 -11 -9 -13 10 -8 24 6 30 -11 10 -31 -9 -9 -7 -12 9 -12 22 0
51 -55 100 -190 53 -143 55 -151 42 -166 -9 -11 -7 -14 10 -14 12 0 21 -6 21
-15 0 -8 -4 -15 -10 -15 -18 0 -11 -18 10 -25 13 -4 20 -15 20 -31 0 -13 5
-24 10 -24 15 0 12 -50 -2 -51 -7 0 -3 -5 10 -11 24 -12 30 -43 10 -51 -7 -3
-3 -6 10 -6 25 -1 30 -28 10 -50 -11 -11 -9 -13 10 -8 17 4 22 1 22 -14 0 -11
4 -27 8 -37 18 -35 59 -113 142 -267 24 -44 57 -107 74 -140 17 -33 34 -61 39
-63 4 -2 7 -11 7 -21 0 -9 6 -23 12 -29 10 -10 10 -15 -1 -21 -11 -7 -10 -10
6 -15 11 -3 29 -23 40 -44 11 -20 32 -58 46 -84 24 -42 25 -47 9 -51 -13 -4
-12 -5 5 -6 22 -1 21 5 39 -153 3 -26 15 -57 25 -69 13 -16 18 -31 14 -49 -8
-36 30 -221 55 -264 11 -20 20 -44 20 -54 0 -10 9 -24 20 -32 11 -8 20 -24 20
-36 0 -25 25 -77 45 -94 12 -10 15 -9 15 9 0 11 -4 21 -10 21 -5 0 -10 18 -10
40 0 22 -4 40 -10 40 -5 0 -10 9 -10 20 0 12 -9 30 -20 42 -15 17 -20 36 -20
80 0 32 4 58 10 58 6 0 10 9 10 20 0 13 7 20 20 20 13 0 20 -7 20 -20 0 -11 5
-20 10 -20 6 0 10 -9 10 -19 0 -11 4 -21 8 -23 11 -4 46 -56 88 -130 20 -34
46 -79 57 -98 11 -19 29 -53 40 -75 11 -22 28 -52 38 -67 11 -14 19 -32 19
-40 0 -19 38 -60 90 -95 25 -17 54 -41 66 -54 27 -31 62 -59 72 -59 5 0 24
-15 44 -32 20 -18 46 -40 58 -48 12 -8 31 -23 42 -32 12 -10 26 -18 32 -19 6
0 19 -2 29 -4 13 -2 17 4 17 26 0 18 -4 28 -10 24 -5 -3 -10 -13 -10 -22 0
-14 -3 -14 -20 2 -11 10 -20 26 -20 37 0 10 -4 18 -10 18 -5 0 -10 9 -10 19 0
23 -30 37 -41 19 -12 -19 -38 20 -39 57 0 38 16 55 52 55 15 0 28 5 28 10 0 6
-4 10 -10 10 -5 0 -10 9 -10 20 0 11 -4 20 -10 20 -5 0 -10 7 -10 15 0 24 -14
17 -34 -16 -24 -40 -46 -23 -46 35 0 32 -6 48 -24 65 -13 12 -34 43 -47 68
-25 49 -69 100 -69 81 0 -6 6 -19 14 -27 15 -19 28 -65 20 -74 -12 -12 -35 6
-51 42 -9 20 -25 43 -35 52 -10 9 -18 23 -18 32 0 8 -6 18 -12 21 -10 5 -10 7
0 12 14 7 16 60 2 69 -5 3 -10 17 -10 31 0 13 -4 24 -10 24 -5 0 -10 8 -10 19
0 10 -13 32 -29 49 -17 17 -39 49 -50 70 -29 56 -71 184 -64 195 8 13 63 -51
63 -74 0 -10 7 -19 15 -19 25 0 17 41 -18 99 -17 29 -38 63 -44 75 -12 19 -13
17 -13 -21 0 -62 -4 -60 -78 33 -30 38 -32 44 -20 64 10 18 10 24 1 27 -7 3
-13 11 -13 19 0 8 -4 14 -10 14 -5 0 -10 -7 -10 -15 0 -8 -4 -15 -10 -15 -5 0
-10 7 -10 15 0 8 -4 15 -10 15 -5 0 -10 7 -10 15 0 8 -4 15 -10 15 -5 0 -10 5
-10 11 0 13 -38 49 -52 49 -16 0 -8 48 10 54 9 3 23 9 30 12 8 4 12 -3 12 -21
0 -32 41 -75 73 -75 19 0 26 -8 37 -42 8 -24 24 -52 36 -64 12 -12 24 -30 27
-40 6 -18 4 1 -9 165 -5 60 -4 73 7 69 8 -3 14 -14 14 -25 1 -11 6 -27 11 -34
6 -8 19 -38 29 -67 9 -29 22 -58 29 -65 7 -7 15 -19 18 -27 4 -10 8 -5 13 14
6 20 3 37 -9 57 -10 16 -18 47 -18 69 0 29 -5 41 -18 45 -11 3 -21 20 -25 41
-3 20 -14 38 -23 41 -9 3 -29 17 -44 31 -21 19 -25 29 -17 39 6 7 20 13 30 13
11 0 19 5 19 10 0 6 -4 10 -9 10 -5 0 -19 22 -32 50 -33 68 -59 69 -59 1 0
-28 5 -53 10 -56 8 -5 7 -11 -1 -21 -16 -20 -29 -17 -29 5 0 11 -4 23 -10 26
-5 3 -10 13 -10 21 0 16 -48 63 -65 64 -14 0 -15 73 -1 82 15 10 2 20 -18 12
-9 -3 -16 -12 -16 -20 0 -8 -4 -14 -9 -14 -5 0 -11 -9 -14 -20 -7 -28 -35 -25
-43 5 -4 17 -1 32 11 45 16 18 16 20 -2 44 -18 25 -48 31 -48 10 0 -6 -8 -19
-18 -29 -16 -15 -21 -16 -43 -4 -20 10 -25 20 -22 45 2 24 -4 38 -20 52 -12
11 -22 27 -22 37 0 9 -9 19 -20 22 -11 3 -20 14 -20 24 0 10 -4 21 -10 24 -14
9 -13 43 2 59 31 33 108 -44 108 -107 0 -37 12 -67 25 -67 19 0 26 52 9 71 -8
9 -14 37 -14 72 0 47 -3 57 -20 62 -11 3 -20 10 -20 15 0 5 -9 12 -20 15 -11
3 -20 12 -20 20 0 7 -14 19 -30 27 -17 7 -32 20 -35 28 -3 9 -28 33 -55 54
-39 30 -50 44 -50 66 0 20 -6 31 -21 35 -24 8 -51 -11 -33 -23 21 -13 54 -77
54 -103 0 -14 5 -30 12 -37 9 -9 9 -12 0 -12 -17 0 -92 79 -92 97 0 7 -3 13
-7 13 -9 0 -33 49 -33 67 0 7 -4 13 -10 13 -5 0 -10 9 -10 20 0 11 -4 20 -10
20 -5 0 -10 6 -10 13 0 18 -24 67 -32 67 -5 0 -8 7 -8 16 0 18 -51 115 -81
152 -10 14 -19 32 -19 41 0 9 -11 36 -25 60 -14 23 -25 50 -25 58 0 8 -9 17
-20 20 -11 3 -20 14 -20 24 0 12 7 19 20 19 11 0 20 -4 20 -8 0 -15 52 -34 63
-23 17 17 -1 41 -32 41 -31 0 -71 42 -71 73 0 9 -4 19 -10 22 -5 3 -10 26 -10
51 0 46 -13 77 -42 105 -10 9 -18 23 -18 32 0 9 -9 19 -20 22 -11 3 -20 13
-20 22 0 8 -8 27 -19 41 -32 47 -111 220 -111 244 0 13 -14 37 -30 55 -17 18
-30 39 -30 47 0 9 -4 16 -10 16 -5 0 -10 11 -10 25 0 14 -4 25 -10 25 -5 0
-10 14 -10 30 0 17 -5 30 -11 30 -9 0 -9 4 0 14 8 10 4 20 -19 44 -17 18 -30
36 -30 41 0 6 -4 13 -10 16 -5 3 -10 -3 -10 -14z m310 -692 c0 -6 -4 -7 -10
-4 -5 3 -10 11 -10 16 0 6 5 7 10 4 6 -3 10 -11 10 -16z m60 -59 c0 -5 -5 -10
-11 -10 -5 0 -7 5 -4 10 3 6 8 10 11 10 2 0 4 -4 4 -10z m930 -1516 c0 -13 -4
-24 -9 -24 -11 0 -22 40 -15 52 9 15 24 -2 24 -28z m66 -32 c15 -9 27 -83 16
-100 -5 -7 -16 -10 -25 -6 -13 5 -17 19 -17 60 0 53 4 61 26 46z m-46 -332 c0
-5 -2 -10 -4 -10 -3 0 -8 5 -11 10 -3 6 -1 10 4 10 6 0 11 -4 11 -10z m100
-170 c0 -16 -4 -30 -9 -30 -14 0 -20 37 -8 49 16 16 17 14 17 -19z m43 -108
c3 -15 8 -37 12 -50 6 -17 4 -21 -6 -17 -16 6 -47 85 -41 104 6 19 29 -5 35
-37z m342 -570 c-10 -10 -55 22 -55 38 0 31 13 30 36 -2 13 -17 22 -34 19 -36z
m35 -103 c0 -5 -4 -9 -10 -9 -5 0 -10 7 -10 16 0 8 5 12 10 9 6 -3 10 -10 10
-16z"/>
<path d="M10741 8241 c-12 -8 -12 -11 0 -23 8 -8 22 -17 32 -21 20 -8 23 -56
5 -76 -11 -11 -9 -13 7 -9 21 5 45 -12 45 -32 0 -5 4 -10 8 -10 5 0 15 -18 22
-40 7 -22 19 -45 27 -51 7 -6 13 -17 13 -25 0 -7 13 -41 29 -76 16 -35 35 -78
42 -95 8 -18 17 -33 21 -33 5 0 8 -7 8 -15 0 -8 -7 -15 -15 -15 -8 0 -15 -4
-15 -8 0 -17 39 -44 55 -39 9 4 15 1 15 -6 0 -7 10 -24 22 -36 16 -18 19 -28
11 -40 -12 -20 10 -46 33 -37 8 3 14 -1 14 -9 0 -8 5 -15 10 -15 6 0 10 -4 10
-10 0 -5 7 -18 15 -27 33 -41 166 -237 191 -283 15 -27 35 -52 44 -55 16 -5
32 -17 78 -56 7 -6 34 -20 60 -31 26 -11 54 -27 64 -35 14 -13 18 -11 30 14
16 33 46 42 54 16 3 -10 10 -26 15 -35 5 -10 9 -24 9 -32 0 -20 16 -29 40 -21
20 6 29 45 10 45 -5 0 -10 13 -10 29 0 22 -7 31 -28 40 -16 7 -33 11 -38 10
-30 -9 -74 37 -74 78 0 7 -4 13 -10 13 -5 0 -10 7 -10 15 0 8 7 15 15 15 8 0
15 -7 15 -15 0 -9 9 -15 25 -15 14 0 25 6 25 14 0 23 -49 68 -73 66 -35 -3
-40 -1 -29 13 7 8 7 23 -1 50 -11 34 -15 37 -49 37 -31 0 -38 -4 -38 -20 0
-11 5 -20 10 -20 6 0 10 -11 10 -25 0 -31 31 -87 74 -131 25 -25 32 -41 28
-59 -8 -43 -30 -28 -52 37 -8 22 -24 41 -39 49 -14 6 -36 16 -48 22 -23 10
-32 47 -13 47 6 0 10 7 10 15 0 8 -4 15 -10 15 -5 0 -10 4 -10 10 0 5 -16 24
-36 42 -25 24 -33 38 -28 51 4 10 13 16 23 13 21 -7 48 9 32 18 -6 4 -11 15
-11 24 0 22 -33 43 -50 32 -7 -4 -23 -2 -37 5 -27 14 -56 10 -74 -11 -9 -11
-15 -11 -37 3 -56 34 -95 93 -62 93 18 0 10 19 -10 25 -30 10 -60 45 -60 71 0
13 -9 29 -20 37 -11 8 -31 36 -44 64 -13 27 -31 55 -40 62 -9 7 -16 21 -16 30
0 9 -6 23 -12 30 -11 10 -8 16 15 33 37 27 34 44 -13 90 -22 22 -40 44 -40 49
0 17 -31 42 -54 44 -16 1 -22 9 -24 33 -2 18 -7 32 -13 32 -5 0 -9 7 -9 15 0
8 -4 15 -9 15 -5 0 -11 9 -14 20 -5 21 -23 25 -46 11z"/>
<path d="M13916 6042 c-3 -5 4 -23 15 -40 10 -18 19 -44 19 -57 0 -14 5 -25
10 -25 14 0 12 -96 -2 -119 -9 -15 -9 -25 0 -46 15 -32 16 -75 2 -75 -5 0 -10
-13 -10 -29 0 -17 5 -33 10 -36 17 -11 11 -23 -12 -27 -29 -4 -48 -42 -48 -95
0 -39 2 -43 25 -43 18 0 25 -5 25 -20 0 -26 49 -28 76 -2 23 21 44 57 44 75 0
7 12 24 26 38 24 22 26 29 20 81 -3 33 -1 60 4 63 6 3 10 21 10 38 0 35 26 81
40 72 10 -6 21 24 22 65 1 32 -17 60 -39 60 -7 0 -16 7 -19 15 -4 9 -19 15
-35 15 -19 0 -29 5 -29 15 0 10 -7 15 -17 13 -13 -2 -18 4 -19 22 -1 14 -2 31
-3 38 -1 14 -41 17 -41 2 0 -5 -9 -10 -19 -10 -11 0 -23 5 -26 10 -7 12 -22
13 -29 2z"/>
<path d="M16225 4148 c-11 -6 -29 -20 -40 -31 -11 -11 -49 -33 -84 -49 -50
-23 -69 -27 -90 -20 -36 12 -73 -2 -94 -37 -9 -16 -32 -44 -50 -62 -17 -19
-39 -47 -47 -62 -29 -58 39 -111 88 -69 12 11 22 29 22 41 0 13 6 29 14 37 8
7 24 26 36 41 15 20 23 24 32 15 9 -9 7 -16 -5 -30 -9 -10 -17 -26 -17 -35 0
-9 -4 -19 -10 -22 -5 -3 -10 -15 -10 -26 0 -10 -6 -28 -12 -39 -11 -17 -10
-22 2 -30 10 -6 24 -2 45 14 66 49 88 37 66 -36 -14 -46 -11 -54 18 -38 18 9
21 20 21 77 0 37 -5 81 -11 98 -13 34 -5 90 11 80 6 -3 10 -14 10 -24 0 -10 7
-24 15 -31 13 -11 22 -9 50 6 19 10 35 22 35 26 0 3 9 10 20 13 16 5 20 15 20
46 0 31 6 45 28 64 15 13 33 25 40 25 13 0 17 20 4 20 -4 0 -12 10 -17 23 -12
26 -59 34 -90 15z"/>
<path d="M15505 3577 c-10 -8 -23 -29 -29 -48 -9 -27 -17 -35 -43 -39 -18 -3
-41 -13 -52 -22 -41 -35 -62 -41 -77 -21 -7 10 -14 26 -14 36 0 17 -20 25 -20
8 0 -5 -9 -13 -20 -16 -16 -5 -20 -15 -20 -50 0 -24 -4 -47 -10 -50 -5 -3 -10
-21 -10 -39 0 -31 3 -34 35 -40 26 -5 40 -3 51 9 8 8 29 15 46 15 22 0 31 6
35 20 6 21 28 22 28 2 0 -24 43 -43 80 -36 28 5 35 3 35 -9 0 -19 -33 -31 -60
-22 -16 5 -20 2 -20 -18 0 -13 -9 -32 -20 -42 -11 -10 -20 -30 -20 -44 0 -14
-7 -39 -16 -56 -10 -20 -14 -44 -10 -70 7 -56 -3 -70 -38 -51 -43 22 -80 5
-88 -39 -1 -11 -11 -27 -20 -36 -10 -9 -18 -22 -18 -29 0 -6 -10 -26 -22 -42
-18 -26 -20 -35 -10 -60 7 -20 8 -38 1 -54 -15 -41 -12 -114 6 -114 23 0 105
43 105 55 0 6 9 17 20 25 11 8 20 22 20 31 0 10 5 19 10 21 6 2 17 21 24 43
11 33 22 45 67 68 29 15 57 34 61 41 4 8 5 35 1 61 -5 42 -8 46 -29 42 -13 -2
-24 -1 -24 2 1 7 47 61 54 61 2 0 9 -13 14 -30 11 -31 64 -70 95 -70 31 0 22
61 -13 89 -24 18 -30 31 -30 61 0 33 3 38 28 43 44 10 58 23 43 40 -9 12 -9
16 1 21 10 5 10 7 1 12 -9 4 -13 28 -13 68 0 50 4 64 20 76 11 8 20 24 20 37
0 12 5 25 10 28 14 9 12 82 -2 89 -10 5 -10 7 0 12 6 3 12 10 12 15 0 16 -30
10 -53 -12 -22 -20 -22 -20 -25 10 -3 29 -6 31 -41 31 -20 0 -45 -6 -56 -13z
m153 -77 c4 -23 -15 -43 -30 -34 -10 6 -11 48 -1 58 12 12 28 0 31 -24z m-408
-665 c0 -18 -5 -25 -20 -25 -11 0 -20 5 -20 10 0 6 5 10 10 10 6 0 10 7 10 15
0 8 5 15 10 15 6 0 10 -11 10 -25z"/>
<path d="M15079 3136 c-13 -13 -41 -27 -62 -31 -28 -6 -37 -12 -37 -27 0 -12
-25 -43 -60 -75 -37 -34 -60 -64 -60 -77 0 -13 -14 -30 -35 -44 -28 -20 -35
-33 -41 -69 -4 -31 -16 -56 -36 -76 -17 -18 -28 -39 -26 -51 3 -21 6 -22 68
-14 21 3 26 -2 28 -27 3 -19 -2 -33 -14 -42 -17 -12 -17 -14 2 -28 25 -19 31
-19 51 5 10 11 32 25 50 31 25 8 33 16 33 35 0 13 5 24 10 24 6 0 10 8 10 18
0 9 13 23 30 30 26 12 30 19 30 53 0 23 -5 39 -12 39 -6 0 -1 9 12 20 13 11
29 20 36 20 19 0 27 18 37 80 12 75 11 91 -7 108 -13 14 -9 18 37 41 42 21 52
31 52 51 0 21 -5 25 -36 28 -27 2 -41 -3 -60 -22z"/>
<path d="M14536 1815 c-15 -19 -22 -23 -32 -14 -20 16 -44 3 -45 -23 -1 -18
-4 -14 -13 13 -7 24 -16 34 -25 31 -26 -9 -81 -65 -81 -83 0 -9 -6 -20 -12
-23 -10 -5 -10 -7 0 -12 6 -3 12 -13 12 -23 0 -9 -6 -23 -12 -30 -11 -11 -9
-13 10 -8 17 4 22 1 22 -15 0 -12 6 -26 14 -32 20 -16 10 -118 -15 -145 -11
-11 -19 -25 -19 -31 0 -5 -4 -10 -10 -10 -5 0 -10 -7 -10 -16 0 -10 6 -14 14
-11 8 3 30 9 50 12 21 4 49 21 68 41 27 28 41 34 75 34 24 0 48 -6 57 -15 19
-19 18 -19 47 6 13 11 31 18 40 16 38 -10 54 83 19 120 -10 12 -33 24 -50 28
-35 8 -34 5 -16 40 18 35 8 66 -29 84 -26 13 -27 14 -9 24 26 14 32 26 27 48
-8 28 -54 25 -77 -6z m-106 -79 c0 -16 -14 -36 -25 -36 -14 0 -27 25 -18 34 7
7 43 8 43 2z"/>
<path d="M14708 1343 c-11 -3 -18 -14 -18 -28 0 -23 -24 -40 -41 -30 -4 3 -26
-3 -48 -15 -22 -11 -47 -17 -55 -14 -9 3 -16 2 -16 -4 0 -13 -39 -22 -46 -11
-3 5 -17 0 -31 -11 -14 -11 -32 -20 -39 -20 -7 0 -20 -7 -29 -16 -14 -15 -17
-14 -34 5 -10 12 -25 21 -33 21 -8 0 -28 11 -44 25 -28 25 -64 30 -66 10 0 -5
-9 -26 -19 -45 -11 -19 -19 -49 -19 -67 0 -18 -9 -55 -20 -84 -17 -43 -19 -56
-9 -83 10 -26 9 -38 -5 -64 -9 -18 -16 -49 -16 -70 1 -20 -2 -58 -6 -84 -5
-39 -4 -48 8 -48 27 0 76 30 81 50 4 14 15 20 48 22 42 3 44 5 47 36 2 17 7
32 13 32 5 0 9 15 9 34 0 35 -12 46 -53 46 -17 0 -25 10 -35 41 -14 46 -10 54
32 65 26 6 29 5 24 -14 -8 -31 12 -43 51 -32 18 5 39 14 47 21 10 8 14 8 14 0
0 -6 9 -11 20 -11 18 0 20 7 20 54 0 52 1 55 30 61 16 4 33 11 36 16 7 13 44
-19 44 -38 0 -7 3 -13 8 -13 22 1 52 48 52 83 0 31 9 39 26 22 21 -21 18 -78
-6 -95 -13 -9 -20 -26 -20 -47 0 -18 -4 -33 -10 -33 -5 0 -10 -20 -10 -45 0
-25 2 -45 4 -45 18 0 36 15 36 31 0 34 18 20 24 -18 13 -76 12 -78 -14 -81
-13 -2 -35 -16 -47 -30 -24 -28 -31 -72 -12 -72 6 0 9 -14 7 -32 -2 -25 -10
-37 -34 -48 -44 -23 -102 -84 -109 -117 -11 -47 -27 -72 -49 -75 -19 -3 -21
-8 -18 -55 3 -34 0 -53 -7 -53 -6 0 -11 -6 -11 -14 0 -8 -6 -16 -12 -19 -10
-3 -10 -9 0 -26 14 -25 16 -77 2 -86 -5 -3 -10 -17 -10 -31 0 -13 -4 -24 -10
-24 -6 0 -10 -27 -10 -60 0 -33 -4 -60 -10 -60 -5 0 -10 -6 -10 -14 0 -18 -22
-26 -77 -26 -45 0 -45 0 -40 38 6 44 39 162 51 180 11 18 -4 198 -20 246 -8
21 -14 53 -14 72 0 30 -3 34 -35 40 -40 7 -84 -15 -92 -47 -3 -10 -9 -19 -14
-19 -5 0 -9 -9 -9 -20 0 -11 -4 -20 -10 -20 -5 0 -10 5 -10 11 0 5 -4 7 -10 4
-5 -3 -10 -17 -10 -31 0 -13 -4 -24 -10 -24 -5 0 -10 -6 -10 -13 0 -7 -8 -22
-18 -33 -72 -80 -152 -187 -152 -204 0 -24 15 -26 36 -5 9 9 25 12 43 9 21 -5
34 0 49 17 18 18 24 20 37 9 19 -15 65 -5 65 15 0 8 3 15 8 15 8 0 32 70 32
93 0 8 9 22 20 32 20 18 20 17 20 -18 0 -20 -4 -39 -10 -42 -5 -3 -10 -22 -10
-41 0 -40 -14 -68 -52 -105 -33 -32 -36 -64 -8 -81 13 -9 20 -24 20 -45 0 -33
0 -33 -151 -33 -107 0 -148 3 -143 11 9 16 -16 87 -33 93 -24 10 -83 -29 -83
-54 0 -13 -17 -32 -45 -48 -15 -9 2558 -11 10565 -9 l10585 2 -9819 5 c-9656
5 -9818 5 -9797 24 16 15 21 31 21 73 0 49 2 55 30 71 24 14 30 24 30 50 0 25
-5 35 -20 39 -14 4 -20 14 -20 34 0 24 5 31 29 35 20 4 32 15 41 40 8 19 17
34 22 34 12 0 9 63 -4 93 -7 15 -15 27 -18 27 -15 0 -27 -19 -38 -58 -11 -37
-16 -41 -36 -36 -20 5 -27 -2 -50 -40 -14 -24 -26 -57 -26 -73 0 -16 -12 -46
-27 -68 -22 -32 -27 -50 -25 -95 1 -52 -12 -111 -31 -137 -10 -14 -397 -18
-397 -4 0 5 14 14 30 20 24 8 30 16 30 40 0 30 13 41 25 21 3 -6 16 -10 29
-10 16 0 24 8 31 32 8 25 21 38 52 53 47 22 54 39 23 55 -17 9 -20 20 -18 83
1 40 0 81 -3 91 -3 13 4 24 19 32 36 18 41 26 47 69 2 22 9 41 15 43 12 4 14
142 1 142 -5 0 -14 -7 -21 -15 -7 -8 -19 -15 -27 -15 -19 0 -6 67 18 94 11 11
19 28 19 38 0 10 4 18 8 18 15 0 32 -24 32 -47 0 -27 1 -27 35 -11 25 11 34
28 15 28 -5 0 -10 6 -10 14 0 8 -9 18 -20 21 -26 8 -28 55 -2 55 11 0 26 15
38 38 37 69 104 48 104 -34 0 -24 4 -46 10 -49 14 -8 68 22 80 45 6 11 17 20
24 20 47 0 78 92 36 105 -20 6 -20 6 0 28 15 16 17 23 8 29 -19 11 -28 10 -28
-5 0 -7 -9 -19 -20 -27 -11 -8 -20 -19 -20 -26 0 -15 -35 -46 -43 -37 -12 11
-8 46 8 77 19 36 19 80 0 96 -19 16 -31 7 -38 -29 -4 -16 -19 -48 -34 -70 -28
-41 -28 -41 -83 -36 -39 4 -63 1 -84 -10 -15 -8 -34 -15 -41 -15 -17 0 -45
-61 -45 -97 0 -34 -40 -131 -58 -138 -33 -13 -21 72 21 143 16 27 18 43 12 88
-7 56 -55 163 -81 177 -20 11 -17 51 7 120 18 50 19 61 8 71 -8 7 -22 11 -31
9z m-328 -222 c0 -6 5 -11 10 -11 6 0 10 -13 10 -30 0 -34 0 -34 -35 -18 -20
9 -25 18 -25 48 0 20 3 39 6 43 8 7 34 -17 34 -32z m338 -713 c10 -27 9 -36
-8 -65 -12 -21 -20 -52 -20 -80 0 -54 -19 -113 -36 -113 -30 0 -44 14 -44 41
0 16 5 29 10 29 6 0 10 14 10 30 0 17 5 30 10 30 6 0 10 27 10 60 0 33 4 60
10 60 6 0 10 6 10 14 0 12 12 23 30 25 3 1 11 -13 18 -31z"/>
</g>
</svg>
