<?xml version="1.0" standalone="no"?>
<!DOCTYPE svg PUBLIC "-//W3C//DTD SVG 20010904//EN"
 "http://www.w3.org/TR/2001/REC-SVG-20010904/DTD/svg10.dtd">
<svg version="1.0" xmlns="http://www.w3.org/2000/svg"
 width="3508.000000pt" height="4961.000000pt" viewBox="0 0 3508.000000 4961.000000"
 preserveAspectRatio="xMidYMid meet">
<metadata>
Created by potrace 1.16, written by Peter Selinger 2001-2019
</metadata>
<g transform="translate(0.000000,4961.000000) scale(0.100000,-0.100000)"
fill="#151011" stroke="none">
<path d="M4635 38980 c-8 -13 4 -50 16 -50 5 0 9 -12 8 -27 0 -16 -3 -22 -6
-15 -7 17 -30 15 -37 -4 -8 -20 2 -54 15 -54 5 0 9 -6 9 -14 0 -16 46 -57 107
-94 7 -4 13 -36 14 -74 2 -69 -11 -98 -45 -98 -9 0 -16 -4 -16 -10 0 -5 -8
-10 -17 -10 -10 0 -25 -13 -34 -29 -9 -15 -46 -47 -83 -71 -36 -23 -66 -46
-66 -50 0 -4 -11 -11 -25 -14 -14 -4 -25 -13 -25 -21 0 -8 -4 -15 -10 -15 -5
0 -10 -7 -10 -15 0 -8 -7 -15 -16 -15 -9 0 -29 -13 -44 -30 -17 -18 -38 -30
-54 -30 -14 0 -26 -4 -26 -10 0 -5 -7 -10 -15 -10 -8 0 -15 -4 -15 -10 0 -5
-9 -10 -20 -10 -11 0 -20 -6 -20 -14 0 -15 -74 -86 -90 -86 -6 0 -10 -5 -10
-11 0 -6 -18 -28 -40 -49 -49 -47 -53 -80 -10 -80 23 0 30 4 30 20 0 12 7 20
16 20 17 0 44 23 44 38 0 36 171 152 224 152 14 0 26 5 26 10 0 6 9 10 20 10
11 0 20 5 20 10 0 6 9 10 20 10 11 0 20 5 20 10 0 6 14 10 30 10 17 0 30 5 30
10 0 6 11 10 25 10 14 0 25 5 25 10 0 6 9 10 20 10 11 0 20 5 20 10 0 6 27 10
60 10 60 0 60 0 60 29 0 24 6 31 31 40 18 6 48 11 68 11 20 0 45 7 55 15 22
17 62 20 71 5 3 -5 23 -14 43 -20 20 -5 49 -21 64 -35 18 -17 39 -25 63 -25
19 0 35 -3 35 -7 0 -14 53 -33 92 -33 21 0 38 -4 38 -10 0 -6 27 -10 60 -10
33 0 60 4 60 10 0 6 18 10 40 10 22 0 40 5 40 10 0 6 16 10 35 10 19 0 35 -4
35 -10 0 -5 8 -10 18 -10 10 0 24 -9 32 -20 8 -11 22 -20 32 -20 13 0 18 -8
18 -25 0 -20 -5 -25 -26 -25 -16 0 -37 -12 -54 -30 -28 -30 -72 -40 -85 -20
-3 6 -28 10 -56 10 -27 0 -49 5 -49 10 0 6 -13 10 -30 10 -16 0 -30 5 -30 10
0 6 -13 10 -30 10 -16 0 -30 5 -30 10 0 6 -27 10 -60 10 -57 0 -60 -1 -60 -25
0 -20 5 -25 25 -25 14 0 25 -4 25 -10 0 -5 8 -10 19 -10 25 0 124 -32 132 -42
3 -5 25 -14 50 -21 24 -7 45 -19 47 -27 4 -25 -43 -70 -72 -70 -14 0 -26 -4
-26 -10 0 -5 -13 -10 -30 -10 -16 0 -30 -4 -30 -10 0 -5 -9 -10 -20 -10 -11 0
-20 -4 -20 -10 0 -5 -18 -10 -39 -10 -31 0 -41 -4 -46 -20 -3 -11 -15 -20 -26
-20 -10 0 -19 -4 -19 -10 0 -5 -9 -10 -20 -10 -11 0 -20 -4 -20 -10 0 -5 -17
-10 -38 -10 -26 0 -42 -6 -52 -20 -15 -21 -50 -28 -50 -10 0 6 -9 10 -19 10
-11 0 -23 -4 -26 -10 -3 -5 -13 -10 -22 -10 -9 0 -27 -10 -40 -22 -16 -15 -40
-23 -80 -26 -32 -3 -62 -10 -66 -16 -6 -8 -10 -8 -14 2 -6 15 -75 16 -91 0 -7
-7 -12 -27 -12 -45 0 -33 0 -33 110 -33 72 0 110 -4 110 -11 0 -16 -26 -39
-44 -39 -9 0 -16 -4 -16 -10 0 -5 -11 -10 -25 -10 -17 0 -43 -17 -78 -50 -28
-27 -78 -73 -109 -101 -32 -29 -58 -56 -58 -61 0 -12 -108 -118 -120 -118 -16
0 -40 -26 -40 -43 0 -8 -7 -17 -15 -21 -8 -3 -15 -11 -15 -19 0 -7 -18 -26
-40 -43 -22 -16 -40 -34 -40 -41 0 -6 -40 -53 -90 -102 -49 -50 -90 -96 -90
-102 0 -6 -29 -38 -65 -71 -35 -33 -67 -69 -70 -79 -4 -10 -13 -19 -21 -19 -8
0 -14 -6 -15 -12 0 -7 -5 -3 -11 10 -6 12 -15 22 -20 22 -4 0 -8 6 -8 14 0 7
-13 19 -30 26 -16 7 -30 16 -30 20 0 4 -13 13 -30 20 -16 7 -30 16 -30 21 0 5
-47 9 -105 9 -98 0 -105 1 -105 20 0 16 -7 20 -30 20 -16 0 -30 5 -30 10 0 6
-22 10 -50 10 -27 0 -50 5 -50 10 0 6 -25 10 -55 10 -30 0 -55 5 -55 10 0 6
-52 10 -135 10 -83 0 -135 -4 -135 -10 0 -6 -40 -10 -100 -10 -60 0 -100 -4
-100 -10 0 -5 -13 -10 -29 -10 -22 0 -31 -7 -40 -29 -22 -52 -84 -111 -117
-111 -16 0 -54 -9 -84 -20 -30 -11 -56 -20 -57 -20 -2 0 -3 -7 -3 -15 0 -10
-10 -15 -30 -15 -16 0 -30 -4 -30 -10 0 -5 -16 -10 -35 -10 -19 0 -35 -4 -35
-10 0 -5 -18 -10 -40 -10 -22 0 -40 -4 -40 -10 0 -5 -8 -10 -18 -10 -10 0 -24
-9 -32 -20 -8 -11 -20 -20 -28 -20 -17 0 -252 -234 -252 -251 0 -8 -9 -21 -20
-29 -12 -8 -20 -26 -20 -42 0 -15 -4 -28 -10 -28 -5 0 -10 -19 -10 -43 0 -31
-5 -45 -19 -54 -19 -12 -25 -40 -38 -168 -5 -59 -6 -61 -70 -115 -100 -85
-143 -127 -143 -140 0 -7 -13 -25 -30 -40 -16 -15 -30 -33 -30 -40 0 -16 -26
-40 -44 -40 -9 0 -16 5 -16 10 0 6 -8 10 -18 10 -10 0 -24 9 -32 20 -15 21
-80 29 -80 10 0 -5 -8 -10 -18 -10 -10 0 -24 -9 -32 -20 -16 -22 -46 -27 -53
-7 -3 8 -10 6 -23 -9 -11 -11 -31 -24 -47 -28 -15 -3 -27 -11 -27 -16 0 -6
-18 -10 -39 -10 -22 0 -43 -4 -46 -10 -3 -5 -17 -10 -31 -10 -26 0 -99 -33
-121 -56 -7 -7 -21 -15 -31 -19 -9 -3 -28 -19 -42 -36 -14 -16 -42 -48 -62
-70 -21 -22 -38 -45 -38 -49 0 -5 -16 -25 -35 -44 -32 -32 -35 -41 -35 -91 0
-30 5 -55 10 -55 6 0 10 -11 10 -25 0 -14 -4 -25 -10 -25 -5 0 -10 -7 -10 -15
0 -8 5 -15 10 -15 6 0 10 -42 10 -105 0 -63 4 -105 10 -105 6 0 10 -32 10 -75
0 -43 -4 -75 -10 -75 -5 0 -10 -22 -10 -49 0 -28 -4 -53 -10 -56 -5 -3 -10
-15 -10 -26 0 -10 -4 -19 -10 -19 -5 0 -10 -9 -10 -20 0 -11 -4 -20 -10 -20
-5 0 -10 -13 -10 -30 0 -16 -4 -30 -10 -30 -5 0 -10 -18 -10 -40 0 -22 -4 -40
-10 -40 -5 0 -10 -18 -10 -40 0 -22 -4 -40 -9 -40 -5 0 -12 -26 -15 -57 -3
-32 -9 -89 -15 -128 -5 -38 -14 -117 -20 -174 -6 -57 -13 -111 -16 -120 -10
-32 -24 -375 -15 -381 11 -7 20 -150 19 -322 -1 -134 2 -157 42 -284 5 -17 9
-40 9 -52 0 -12 5 -22 10 -22 6 0 10 -9 10 -19 0 -11 9 -23 20 -26 17 -5 20
-15 20 -66 0 -33 4 -59 10 -59 6 0 10 -13 10 -28 0 -16 8 -34 20 -42 11 -8 20
-25 20 -39 0 -13 8 -31 18 -40 10 -9 25 -32 34 -51 9 -19 29 -46 43 -60 15
-14 38 -47 52 -75 14 -27 38 -61 54 -76 16 -15 29 -33 29 -41 0 -7 9 -20 20
-28 11 -8 20 -22 20 -32 0 -9 9 -20 20 -23 11 -3 20 -13 20 -22 0 -8 13 -28
30 -43 16 -15 30 -33 30 -39 0 -15 66 -81 80 -81 5 0 10 -8 10 -18 0 -11 9
-27 20 -37 11 -10 20 -22 20 -27 0 -16 29 -40 40 -33 17 10 51 -15 141 -106
49 -49 91 -89 94 -89 3 0 31 -24 61 -54 31 -30 77 -74 103 -99 66 -64 132 -77
139 -29 5 31 36 25 40 -8 4 -35 23 -80 33 -80 15 0 10 -60 -6 -76 -8 -9 -15
-27 -15 -41 0 -15 -6 -34 -14 -42 -24 -28 -26 -64 -6 -88 10 -13 23 -23 29
-23 7 0 27 -16 46 -35 34 -33 35 -36 35 -115 0 -47 -4 -80 -10 -80 -5 0 -10 5
-10 10 0 6 -30 10 -69 10 -39 0 -73 -4 -76 -10 -3 -5 -22 -10 -41 -10 -24 0
-43 -8 -59 -24 -13 -14 -34 -27 -45 -31 -11 -3 -20 -11 -20 -16 0 -12 -87 -99
-99 -99 -5 0 -13 -9 -16 -20 -3 -11 -11 -20 -17 -20 -5 0 -23 -13 -38 -30 -15
-16 -33 -30 -39 -30 -14 0 -121 -106 -121 -120 0 -5 -4 -10 -10 -10 -5 0 -10
-7 -10 -16 0 -8 -18 -32 -39 -53 -21 -21 -54 -66 -72 -102 -32 -64 -32 -64
-37 -266 -3 -112 -9 -203 -13 -203 -18 0 -10 -82 10 -99 10 -9 30 -39 44 -68
15 -28 31 -54 37 -58 17 -11 11 -71 -9 -89 -11 -10 -25 -31 -31 -47 -7 -16
-18 -29 -24 -29 -6 0 -18 -9 -26 -20 -8 -11 -21 -20 -28 -20 -8 0 -27 -13 -42
-30 -15 -16 -33 -30 -39 -30 -7 0 -23 -11 -36 -25 -20 -19 -25 -34 -25 -75 0
-38 -4 -50 -15 -50 -11 0 -15 -11 -15 -37 -1 -21 -7 -49 -15 -63 -8 -14 -14
-42 -15 -62 0 -24 -5 -38 -12 -38 -7 0 -40 -13 -73 -29 -33 -16 -97 -46 -141
-66 -81 -38 -81 -38 -149 -179 -37 -77 -71 -149 -76 -158 -5 -10 -9 -25 -9
-33 0 -8 -4 -15 -10 -15 -5 0 -10 -8 -10 -18 0 -10 -9 -24 -20 -32 -15 -11
-20 -26 -20 -62 0 -26 -4 -48 -10 -48 -6 0 -10 -28 -10 -65 0 -37 -4 -65 -10
-65 -6 0 -10 -33 -10 -80 0 -44 -4 -80 -9 -80 -5 0 -12 -35 -15 -77 -3 -43 -8
-106 -12 -140 -5 -59 -5 -63 15 -63 12 0 21 -4 21 -10 0 -5 14 -10 30 -10 17
0 30 -4 30 -10 0 -5 9 -10 20 -10 11 0 20 -4 20 -10 0 -5 14 -10 30 -10 22 0
30 -5 30 -18 0 -11 9 -27 20 -37 11 -10 20 -15 20 -11 0 8 100 -42 118 -60 7
-8 18 -14 23 -14 17 0 9 -35 -11 -50 -16 -11 -20 -26 -20 -67 0 -29 5 -53 10
-53 6 0 10 -9 10 -20 0 -11 5 -20 10 -20 6 0 10 -8 10 -19 0 -10 15 -30 34
-45 30 -22 45 -26 105 -26 61 0 71 -2 71 -18 0 -10 9 -24 20 -32 23 -17 27
-40 6 -40 -7 0 -19 -15 -26 -32 -29 -78 -44 -108 -61 -124 -29 -26 -21 -104
10 -104 9 0 21 -4 26 -9 6 -5 19 -11 30 -14 18 -4 18 -5 -2 -6 -26 -1 -32 -31
-7 -31 20 0 44 -24 44 -44 0 -9 8 -16 20 -16 11 0 20 -4 20 -10 0 -5 9 -10 20
-10 11 0 20 -4 20 -10 0 -5 9 -10 20 -10 11 0 20 -4 20 -10 0 -5 9 -10 20 -10
11 0 20 6 20 14 0 13 20 26 41 26 5 0 9 -36 9 -80 0 -43 5 -91 12 -105 8 -19
9 -28 1 -33 -6 -4 -14 -23 -18 -42 -8 -39 -24 -73 -25 -52 0 7 -15 12 -40 12
-22 0 -40 5 -40 10 0 20 -52 9 -77 -16 -25 -25 -26 -31 -24 -118 1 -50 6 -92
11 -94 6 -2 10 -19 10 -38 0 -37 -2 -38 -97 -34 -34 1 -42 -2 -48 -19 -3 -12
-11 -21 -16 -21 -5 0 -9 -9 -9 -20 0 -11 -4 -20 -10 -20 -5 0 -10 -16 -10 -35
0 -24 -6 -39 -20 -47 -11 -7 -20 -20 -20 -28 0 -9 -9 -22 -20 -30 -11 -8 -20
-26 -20 -41 0 -15 -5 -29 -11 -31 -16 -5 -15 -73 0 -92 8 -9 22 -16 32 -16 11
0 19 -4 19 -9 0 -5 14 -14 30 -21 17 -7 30 -19 30 -26 0 -8 10 -14 24 -14 42
0 126 -76 126 -115 0 -14 5 -25 10 -25 6 0 10 -11 10 -25 0 -14 -4 -25 -9 -25
-14 0 -21 -53 -31 -230 -6 -91 -17 -187 -25 -214 -8 -27 -15 -78 -15 -113 0
-35 -4 -63 -10 -63 -5 0 -10 -11 -10 -25 0 -14 5 -25 10 -25 6 0 10 -7 10 -15
0 -21 39 -88 61 -103 11 -7 19 -17 19 -22 0 -25 78 -87 125 -99 28 -7 64 -19
80 -26 22 -9 95 -11 285 -9 163 3 268 0 290 -6 38 -12 210 6 210 22 0 4 49 8
108 8 66 0 112 4 119 11 8 8 39 9 95 5 45 -3 153 -9 238 -12 85 -3 157 -9 160
-13 8 -9 63 -41 83 -48 9 -3 17 -9 17 -14 0 -5 11 -9 25 -9 14 0 25 -4 25 -10
0 -5 9 -10 20 -10 11 0 20 -4 20 -10 0 -5 9 -10 20 -10 11 0 20 -4 20 -10 0
-5 9 -10 20 -10 11 0 20 -7 20 -15 0 -8 7 -15 16 -15 9 0 41 -13 71 -30 30
-16 61 -30 69 -30 8 0 14 -4 14 -10 0 -5 9 -10 20 -10 12 0 20 -7 20 -16 0
-20 24 -44 44 -44 9 0 16 -4 16 -10 0 -5 8 -10 18 -10 10 0 24 -9 32 -20 10
-14 26 -20 54 -20 26 0 50 -8 72 -25 18 -14 37 -25 43 -25 6 0 11 -7 11 -15 0
-9 9 -15 23 -15 15 0 52 -29 112 -91 50 -50 105 -97 123 -104 17 -8 32 -19 32
-24 0 -6 7 -11 16 -11 9 0 24 -8 33 -17 9 -10 28 -25 43 -33 33 -19 148 -128
148 -141 0 -5 16 -26 35 -46 19 -20 35 -41 35 -45 0 -4 12 -8 26 -8 15 0 40
-14 63 -37 21 -20 57 -44 81 -53 35 -14 49 -27 75 -74 43 -78 76 -109 114
-108 21 0 31 -4 31 -14 0 -18 123 -144 141 -145 8 0 43 -34 79 -75 36 -41 68
-74 73 -74 17 0 197 -191 197 -210 0 -11 6 -20 14 -20 18 0 58 -48 75 -89 8
-17 17 -31 22 -31 13 0 119 -107 119 -121 0 -6 18 -28 40 -49 22 -21 40 -41
40 -44 0 -12 44 -56 56 -56 7 0 16 -9 19 -21 4 -11 54 -67 111 -125 57 -57
104 -106 104 -109 0 -6 89 -95 96 -95 11 0 34 -29 34 -44 0 -19 36 -22 44 -3
5 10 7 10 12 0 3 -7 13 -13 23 -13 9 0 23 -9 31 -20 8 -11 22 -20 32 -20 10 0
18 -4 18 -10 0 -5 9 -10 20 -10 11 0 20 -4 20 -10 0 -5 9 -10 20 -10 11 0 20
-4 20 -10 0 -5 7 -10 15 -10 8 0 15 -7 15 -15 0 -8 12 -18 28 -21 35 -9 121
-52 140 -70 7 -8 17 -14 22 -14 5 0 25 -16 44 -35 20 -19 41 -35 48 -35 8 0
20 -9 28 -20 8 -11 20 -20 27 -20 7 0 13 -4 13 -10 0 -5 8 -10 18 -10 10 0 24
-9 32 -20 8 -11 20 -20 28 -20 18 0 62 -46 62 -65 0 -12 12 -15 59 -15 51 0
59 -3 64 -21 3 -11 14 -23 25 -26 11 -2 26 -17 33 -31 18 -36 35 -52 51 -52 8
0 20 -9 28 -20 8 -11 20 -20 28 -20 22 0 42 -26 42 -54 0 -19 5 -26 20 -26 11
0 20 -4 20 -9 0 -5 9 -13 20 -16 12 -4 20 -15 20 -30 0 -16 8 -26 28 -33 33
-13 92 -65 92 -82 0 -6 6 -18 13 -25 31 -35 37 -45 37 -60 0 -8 5 -15 10 -15
6 0 10 -9 10 -20 0 -11 5 -20 10 -20 6 0 10 -11 10 -25 0 -14 5 -25 10 -25 6
0 10 -13 10 -30 0 -16 5 -30 10 -30 6 0 10 -7 10 -16 0 -9 13 -29 30 -44 23
-21 30 -37 30 -64 0 -22 5 -36 13 -36 13 0 67 -96 67 -119 0 -8 11 -29 25 -47
14 -18 25 -40 25 -48 0 -9 5 -16 10 -16 6 0 10 -13 10 -30 0 -16 5 -30 10 -30
6 0 10 -8 10 -18 0 -10 9 -24 20 -32 11 -8 20 -22 20 -32 0 -10 5 -18 10 -18
6 0 10 -8 10 -18 0 -10 9 -24 20 -32 11 -8 20 -22 20 -32 0 -10 5 -18 10 -18
6 0 10 -7 10 -15 0 -8 5 -15 10 -15 6 0 10 -18 10 -40 0 -22 5 -40 10 -40 6 0
10 -13 10 -30 0 -16 5 -30 10 -30 6 0 10 -28 10 -63 0 -52 6 -74 32 -123 18
-32 37 -64 42 -71 31 -35 36 -43 36 -55 0 -8 9 -20 20 -28 11 -8 20 -21 20
-30 0 -9 9 -22 20 -30 11 -8 20 -25 20 -37 0 -13 5 -23 10 -23 6 0 10 -9 10
-20 0 -13 7 -20 20 -20 15 0 20 -7 20 -26 0 -16 11 -37 30 -54 29 -27 29 -27
30 -256 1 -155 -2 -230 -9 -232 -7 -2 -11 -69 -11 -201 0 -185 1 -197 20 -211
17 -12 20 -26 20 -85 0 -93 -22 -305 -32 -305 -4 0 -8 -47 -8 -105 0 -63 -4
-105 -10 -105 -5 0 -10 -25 -10 -55 0 -30 5 -55 10 -55 6 0 10 -62 10 -165 0
-103 4 -165 10 -165 6 0 10 -55 10 -145 0 -85 4 -145 9 -145 18 0 30 -544 20
-965 -3 -144 0 -238 9 -300 7 -49 16 -120 18 -157 3 -38 10 -68 15 -68 5 0 9
-23 9 -52 0 -53 16 -114 36 -135 6 -6 14 -49 17 -95 3 -46 12 -112 21 -148 12
-48 18 -147 24 -387 5 -234 11 -326 20 -335 6 -6 12 -31 12 -54 0 -44 15 -59
46 -47 18 7 34 43 34 76 0 13 9 29 20 37 11 8 20 22 20 32 0 13 8 18 30 18 17
0 30 5 30 10 0 6 6 10 14 10 10 0 14 -30 19 -127 3 -71 8 -136 12 -145 6 -15
20 -18 82 -18 77 0 103 -11 103 -44 0 -9 5 -16 10 -16 6 0 10 -22 10 -49 0
-28 5 -53 10 -56 6 -3 10 -24 10 -45 0 -21 5 -42 10 -45 6 -3 10 -31 10 -61 0
-30 5 -54 10 -54 6 0 10 -17 10 -38 0 -21 4 -42 9 -47 5 -6 12 -32 14 -60 10
-88 39 -221 55 -252 7 -12 12 -41 12 -65 0 -24 4 -48 9 -53 5 -6 11 -28 15
-50 12 -87 19 -115 27 -115 5 0 9 -16 9 -35 0 -19 5 -35 10 -35 6 0 10 -13 10
-30 0 -16 5 -30 10 -30 6 0 10 -18 10 -40 0 -22 5 -40 10 -40 6 0 10 -13 10
-30 0 -16 5 -30 10 -30 6 0 10 -13 10 -30 0 -16 5 -30 10 -30 6 0 10 -16 10
-35 0 -19 5 -35 10 -35 6 0 10 -13 10 -30 0 -16 5 -30 10 -30 6 0 10 -13 10
-30 0 -16 5 -30 10 -30 6 0 10 -7 10 -15 0 -17 28 -77 40 -85 14 -10 30 -49
30 -74 0 -14 5 -26 10 -26 6 0 10 -9 10 -19 0 -11 5 -23 10 -26 6 -3 10 -19
10 -36 0 -16 5 -29 10 -29 6 0 10 -13 10 -30 0 -16 5 -30 10 -30 6 0 10 -13
10 -30 0 -16 5 -30 10 -30 6 0 10 -13 10 -30 0 -16 5 -30 10 -30 6 0 10 -11
10 -25 0 -14 5 -25 10 -25 6 0 10 -18 10 -40 0 -22 5 -40 10 -40 6 0 10 -9 10
-20 0 -11 5 -20 10 -20 6 0 10 -18 10 -40 0 -22 5 -40 10 -40 6 0 10 -9 10
-20 0 -11 5 -20 10 -20 6 0 10 -6 10 -14 0 -8 9 -31 19 -53 36 -72 61 -133 61
-148 0 -8 4 -15 8 -15 5 0 26 -37 47 -83 22 -45 43 -83 47 -85 4 -2 8 -17 8
-33 0 -16 5 -29 10 -29 6 0 10 -9 10 -20 0 -11 5 -20 10 -20 6 0 10 -9 10 -20
0 -11 5 -20 10 -20 6 0 10 -9 10 -20 0 -11 5 -20 10 -20 6 0 10 -9 10 -20 0
-11 5 -20 10 -20 6 0 10 -9 10 -20 0 -11 3 -20 8 -20 10 0 32 -50 32 -72 0
-10 5 -18 10 -18 6 0 10 -13 10 -30 0 -16 5 -30 10 -30 6 0 10 -7 10 -15 0 -9
9 -33 19 -53 11 -21 22 -55 26 -75 4 -20 11 -37 16 -37 5 0 9 -9 9 -19 0 -11
5 -23 10 -26 6 -3 10 -15 10 -26 0 -27 23 -99 32 -99 5 0 8 -13 8 -30 0 -16 5
-30 10 -30 6 0 10 -13 10 -30 0 -16 5 -30 10 -30 6 0 10 -13 10 -30 0 -16 5
-30 10 -30 6 0 10 -11 10 -25 0 -14 5 -25 10 -25 6 0 10 -13 10 -28 0 -16 8
-34 20 -42 11 -8 20 -22 20 -32 0 -10 5 -18 10 -18 6 0 10 -8 10 -18 0 -10 9
-24 20 -32 11 -8 20 -22 20 -32 0 -10 5 -18 10 -18 6 0 10 -6 10 -14 0 -15 33
-78 55 -106 7 -8 15 -27 19 -42 3 -15 13 -33 21 -42 8 -8 15 -21 15 -28 0 -8
9 -20 20 -28 12 -8 20 -26 20 -42 0 -15 5 -28 10 -28 6 0 10 -7 10 -15 0 -8 5
-15 10 -15 6 0 10 -9 10 -20 0 -11 5 -20 10 -20 6 0 10 -7 10 -16 0 -17 23
-44 38 -44 6 0 13 -48 17 -107 4 -60 12 -114 18 -121 6 -8 17 -53 24 -100 24
-168 30 -196 41 -200 7 -2 12 -14 12 -27 0 -13 5 -27 10 -30 6 -3 10 -14 10
-24 0 -9 9 -27 20 -39 11 -12 20 -33 20 -47 0 -14 5 -25 10 -25 6 0 10 -13 10
-30 0 -16 5 -30 10 -30 6 0 10 -9 10 -20 0 -11 5 -20 10 -20 6 0 10 -16 10
-35 0 -19 5 -35 10 -35 6 0 10 -9 10 -20 0 -11 5 -20 10 -20 6 0 10 -13 10
-30 0 -23 5 -30 19 -30 12 0 20 -9 24 -28 3 -15 15 -38 26 -51 13 -15 21 -38
21 -61 0 -28 8 -43 35 -70 34 -33 65 -82 65 -103 0 -5 13 -22 30 -37 16 -15
30 -35 30 -44 0 -9 5 -16 10 -16 6 0 10 -8 10 -18 0 -10 9 -24 20 -32 11 -8
20 -20 20 -27 0 -7 5 -13 10 -13 6 0 10 -7 10 -15 0 -8 9 -15 20 -15 13 0 20
-7 20 -20 0 -12 15 -36 34 -55 19 -19 37 -43 41 -55 3 -11 11 -20 16 -20 16 0
99 -88 99 -105 0 -8 5 -15 10 -15 6 0 10 -7 10 -15 0 -8 5 -15 10 -15 6 0 10
-9 10 -20 0 -11 5 -20 10 -20 6 0 10 -13 10 -30 0 -16 5 -30 10 -30 6 0 10 -8
10 -18 0 -10 9 -24 20 -32 12 -8 20 -26 20 -42 0 -15 5 -28 10 -28 6 0 10 -9
10 -20 0 -11 7 -20 15 -20 9 0 18 -12 22 -30 3 -17 10 -33 14 -36 5 -3 9 -13
9 -23 0 -10 9 -26 21 -37 12 -10 33 -41 46 -69 14 -27 34 -57 44 -66 11 -9 19
-24 19 -33 0 -9 5 -16 10 -16 6 0 10 -9 10 -20 0 -11 5 -20 10 -20 6 0 10 -6
10 -13 0 -7 9 -19 20 -27 11 -8 20 -21 20 -30 0 -9 9 -22 20 -30 11 -8 20 -21
20 -30 0 -9 9 -22 20 -30 11 -8 20 -20 20 -28 0 -15 24 -42 38 -42 5 0 19 -22
32 -49 12 -28 33 -54 47 -60 13 -6 29 -16 36 -21 46 -39 62 -50 78 -55 11 -4
19 -11 19 -16 0 -5 9 -9 20 -9 11 0 20 -4 20 -10 0 -5 9 -10 20 -10 11 0 25
-9 32 -20 7 -11 22 -20 33 -20 11 0 27 -9 35 -20 8 -11 22 -20 32 -20 10 0 18
-4 18 -10 0 -5 16 -10 36 -10 54 0 64 -17 64 -109 0 -47 4 -81 10 -81 6 0 10
-18 10 -40 0 -29 4 -40 15 -40 8 0 17 -12 20 -27 15 -68 35 -124 54 -147 9
-11 17 -58 22 -129 11 -154 14 -167 50 -167 29 0 29 0 29 -85 0 -50 4 -85 10
-85 6 0 10 -9 10 -20 0 -11 5 -20 10 -20 6 0 10 -13 10 -30 0 -16 5 -30 10
-30 6 0 10 -9 10 -20 0 -11 5 -20 10 -20 6 0 10 -20 10 -45 0 -25 5 -45 10
-45 6 0 10 -7 10 -16 0 -9 13 -29 30 -44 16 -15 30 -33 30 -39 0 -7 15 -27 32
-45 18 -19 44 -53 57 -75 14 -23 33 -43 43 -47 10 -3 18 -14 18 -25 0 -15 5
-19 18 -15 33 11 62 -26 62 -75 0 -33 5 -48 20 -59 11 -8 20 -21 20 -28 0 -8
13 -27 30 -42 16 -15 30 -32 30 -37 0 -7 42 -64 79 -109 5 -6 19 -31 32 -55
12 -24 30 -51 40 -60 11 -9 19 -22 19 -29 0 -6 13 -25 30 -40 16 -15 30 -35
30 -44 0 -9 5 -16 10 -16 6 0 10 -7 10 -15 0 -8 5 -15 10 -15 6 0 10 -8 10
-18 0 -10 9 -24 20 -32 11 -8 20 -20 20 -28 0 -7 11 -24 24 -37 14 -13 27 -34
31 -45 3 -11 12 -20 20 -20 8 0 17 -9 20 -21 4 -11 22 -36 41 -56 19 -19 34
-43 34 -54 0 -10 5 -19 10 -19 6 0 10 -8 10 -18 0 -10 9 -24 20 -32 11 -8 20
-21 20 -28 0 -8 13 -27 30 -42 16 -15 30 -33 30 -39 0 -6 13 -25 30 -43 16
-17 30 -36 30 -42 0 -7 13 -27 30 -46 16 -19 29 -40 30 -46 0 -6 20 -32 45
-57 25 -26 45 -53 45 -60 0 -7 9 -19 20 -27 11 -8 20 -21 20 -28 0 -8 13 -27
30 -42 16 -15 30 -32 30 -37 0 -5 9 -15 20 -23 11 -8 20 -20 20 -28 0 -24 28
-42 64 -42 19 0 38 -4 41 -10 3 -5 15 -10 26 -10 10 0 19 -4 19 -10 0 -5 16
-10 35 -10 38 0 85 -36 85 -65 0 -8 5 -15 10 -15 6 0 10 -9 10 -20 0 -11 5
-20 10 -20 6 0 10 -7 10 -16 0 -8 18 -34 39 -57 21 -23 52 -58 67 -77 16 -19
100 -105 187 -191 86 -86 157 -161 157 -167 0 -7 5 -12 10 -12 14 0 80 -66 80
-80 0 -5 54 -63 120 -129 66 -65 120 -124 120 -130 0 -6 5 -11 10 -11 6 0 31
-20 55 -45 34 -33 45 -52 45 -75 0 -16 -4 -30 -10 -30 -5 0 -10 -13 -10 -30 0
-16 -4 -30 -10 -30 -5 0 -10 -7 -10 -15 0 -8 -4 -15 -10 -15 -5 0 -10 -13 -10
-30 0 -16 -4 -30 -10 -30 -5 0 -10 -13 -10 -30 0 -16 -4 -30 -9 -30 -9 0 -16
-31 -30 -135 -4 -33 -11 -69 -15 -80 -4 -11 -12 -32 -18 -48 -6 -15 -16 -27
-22 -27 -12 0 -36 -121 -36 -185 -1 -35 -20 -65 -44 -65 -9 0 -16 -7 -16 -16
0 -8 -18 -33 -40 -54 -40 -38 -40 -39 -40 -114 0 -44 4 -76 10 -76 6 0 10 -18
10 -40 0 -22 5 -40 10 -40 6 0 10 -16 10 -35 0 -19 -4 -35 -10 -35 -5 0 -10
-8 -10 -18 0 -10 -9 -24 -20 -32 -11 -8 -20 -21 -20 -30 0 -9 -9 -22 -20 -30
-11 -8 -20 -25 -20 -37 0 -13 -4 -23 -10 -23 -5 0 -10 -11 -10 -23 0 -16 -9
-28 -25 -35 -30 -14 -56 -62 -66 -122 -14 -84 -32 -140 -46 -140 -8 0 -13 -13
-13 -35 0 -19 -4 -35 -10 -35 -5 0 -10 -9 -10 -20 0 -11 -4 -20 -10 -20 -6 0
-10 -30 -10 -70 0 -40 -4 -70 -10 -70 -5 0 -10 -9 -10 -20 0 -11 -4 -20 -10
-20 -6 0 -10 -32 -10 -75 0 -43 -4 -75 -10 -75 -5 0 -10 -25 -10 -56 0 -51 -3
-59 -37 -92 -21 -20 -51 -54 -66 -74 -15 -21 -77 -88 -138 -148 -60 -61 -109
-117 -109 -124 0 -8 -9 -18 -20 -21 -11 -3 -20 -15 -20 -26 0 -19 130 -19
10581 -19 l10582 0 -5 307 c-3 223 -8 308 -16 311 -8 2 -12 33 -12 94 0 74 -3
94 -18 107 -24 22 -42 79 -42 132 0 31 -9 63 -29 100 -16 30 -32 75 -35 101
-4 25 -16 56 -26 69 -13 14 -20 37 -20 66 0 23 -4 43 -10 43 -6 0 -10 27 -10
60 0 53 -2 60 -20 60 -13 0 -20 7 -20 20 0 11 -4 20 -10 20 -5 0 -10 13 -10
28 0 16 -8 34 -20 42 -15 11 -20 26 -20 57 0 36 -3 43 -20 43 -17 0 -20 7 -20
40 0 22 -4 40 -10 40 -5 0 -10 13 -10 28 0 16 -8 34 -20 42 -11 8 -20 20 -20
27 0 7 -12 39 -27 70 -14 32 -29 67 -33 78 -4 11 -17 41 -29 68 -11 26 -21 53
-21 60 0 7 -9 19 -20 27 -11 8 -20 22 -20 32 0 10 -4 18 -10 18 -5 0 -10 14
-10 30 0 17 -4 30 -10 30 -5 0 -10 16 -10 35 0 19 -4 35 -10 35 -5 0 -10 9
-10 20 0 11 -4 20 -10 20 -5 0 -10 9 -10 20 0 11 -4 20 -10 20 -5 0 -10 12
-10 26 0 15 -9 35 -21 45 -11 9 -31 48 -45 86 -13 37 -28 77 -33 88 -5 11 -17
40 -27 64 -10 25 -29 55 -41 67 -13 13 -23 33 -23 45 0 11 -14 34 -30 49 -24
22 -30 36 -30 69 0 23 -4 41 -10 41 -5 0 -10 22 -10 48 0 36 -5 51 -20 62 -11
8 -20 22 -20 32 0 10 -4 18 -10 18 -5 0 -10 9 -10 20 0 11 -4 20 -10 20 -5 0
-10 9 -10 19 0 11 -4 23 -10 26 -5 3 -10 13 -10 22 0 8 -13 31 -30 50 -16 18
-30 38 -30 43 0 6 -6 10 -14 10 -8 0 -17 9 -21 20 -8 24 -79 100 -95 100 -11
0 -80 65 -80 76 0 3 -17 22 -39 40 -22 20 -41 47 -45 64 -4 21 -11 30 -26 30
-17 0 -20 7 -20 40 0 22 -3 40 -7 40 -5 0 -8 76 -8 169 0 163 -1 170 -23 189
-12 11 -22 27 -22 36 0 9 -9 21 -20 28 -21 13 -27 52 -10 63 13 8 13 55 0 55
-5 0 -10 8 -10 18 0 10 -9 24 -20 32 -11 8 -20 21 -20 30 0 9 -9 22 -20 30
-11 8 -20 21 -20 30 0 8 -9 21 -20 28 -11 7 -20 21 -20 32 0 11 -4 20 -10 20
-5 0 -10 10 -10 23 0 13 -11 33 -25 45 -14 12 -25 26 -25 32 0 5 -7 10 -15 10
-19 0 -205 185 -205 203 0 8 -9 22 -20 32 -13 12 -20 31 -20 57 0 21 -4 38
-10 38 -5 0 -10 7 -10 15 0 13 -24 69 -70 165 -27 56 -44 84 -62 101 -10 9
-18 24 -18 33 0 9 -4 16 -10 16 -5 0 -10 14 -10 30 0 17 -4 30 -10 30 -5 0
-10 7 -10 16 0 8 -18 33 -40 54 -22 21 -40 45 -40 53 0 8 -7 20 -16 28 -22 18
-44 64 -44 94 0 14 -4 25 -8 25 -5 0 -19 23 -32 50 -13 28 -29 50 -37 50 -8 0
-13 12 -13 29 0 17 -4 33 -10 36 -5 3 -10 13 -10 21 0 8 -11 25 -23 38 -24 24
-30 25 -179 42 -29 3 -57 10 -62 15 -6 5 -36 9 -68 9 -32 0 -58 4 -58 10 0 6
-13 10 -28 10 -16 0 -34 8 -42 20 -10 14 -26 20 -52 20 -28 0 -38 5 -43 20 -4
13 -15 20 -31 20 -27 0 -61 17 -84 41 -8 9 -60 39 -115 67 -57 29 -121 71
-148 97 -26 25 -54 45 -62 45 -8 0 -15 5 -15 10 0 6 -8 10 -18 10 -10 0 -24 9
-32 20 -8 11 -21 20 -29 20 -7 0 -21 8 -30 18 -31 34 -128 112 -140 112 -16 0
-91 39 -108 55 -7 8 -13 19 -13 25 0 18 -68 80 -89 80 -11 0 -22 9 -26 20 -3
11 -11 20 -16 20 -10 0 -119 105 -119 115 0 11 -110 115 -121 115 -6 0 -24 14
-39 30 -15 17 -35 30 -44 30 -9 0 -16 4 -16 10 0 5 -19 29 -43 52 -38 38 -81
63 -140 82 -10 3 -15 10 -12 16 4 6 -10 10 -34 10 -22 0 -43 5 -46 10 -8 14
-141 13 -240 -2 -78 -11 -83 -11 -113 10 -16 12 -44 22 -62 22 -42 0 -65 14
-121 71 -26 27 -55 49 -63 49 -9 0 -16 5 -16 10 0 6 -9 10 -19 10 -11 0 -23 9
-26 20 -3 11 -12 20 -19 20 -8 0 -30 15 -50 32 -52 48 -79 68 -89 68 -5 0 -42
34 -82 75 -41 41 -81 75 -89 75 -9 0 -16 5 -16 10 0 6 -10 10 -23 10 -12 0
-29 9 -37 20 -8 11 -21 20 -29 20 -7 0 -21 8 -30 19 -13 15 -88 58 -181 106
-11 5 -20 13 -20 17 0 5 -9 8 -20 8 -11 0 -20 5 -20 10 0 6 -7 10 -16 10 -9 0
-29 14 -44 30 -15 17 -35 30 -43 30 -18 0 -30 27 -15 36 6 4 8 21 4 42 -5 32
-2 39 34 70 22 18 40 42 40 53 0 10 6 19 13 19 7 0 26 13 42 30 16 16 36 30
45 30 9 0 29 13 45 30 16 16 34 30 40 30 7 0 20 9 30 20 10 11 26 20 37 20 26
0 52 17 137 87 41 35 80 63 86 63 7 0 42 32 79 70 36 39 73 70 82 70 9 0 18 9
21 20 3 11 11 20 19 20 7 0 18 9 24 20 6 11 16 20 22 20 15 0 101 80 110 102
4 9 27 26 51 37 54 25 117 92 117 126 0 14 5 25 12 25 14 0 168 161 168 176 0
6 9 19 20 29 11 10 20 23 20 30 0 6 14 24 30 40 17 16 30 37 30 48 0 10 8 31
19 45 11 16 21 55 26 97 4 38 13 79 21 90 21 29 18 102 -6 132 -11 14 -20 40
-20 57 0 20 -7 37 -20 46 -15 11 -20 26 -20 62 0 26 -4 48 -10 48 -5 0 -10 9
-10 20 0 11 -4 20 -10 20 -5 0 -10 7 -10 15 0 8 -4 15 -10 15 -5 0 -10 18 -10
39 0 31 -4 41 -20 46 -19 6 -25 25 -21 66 1 9 -9 24 -22 34 -16 11 -23 25 -20
36 3 11 0 19 -6 19 -6 0 -11 14 -11 30 0 17 -4 30 -8 30 -5 0 -15 12 -22 28
-15 29 -166 182 -181 182 -5 0 -12 12 -15 27 -4 15 -34 53 -66 85 -32 31 -58
62 -58 67 0 6 -3 11 -7 11 -14 1 -93 76 -93 88 0 6 -38 50 -85 97 -47 46 -85
87 -85 90 0 10 -99 108 -121 119 -13 6 -30 25 -38 41 -8 16 -48 63 -90 104
-42 42 -83 90 -91 106 -8 16 -29 44 -47 62 -17 18 -34 41 -38 53 -3 11 -10 20
-15 20 -16 0 -100 86 -100 101 0 8 -9 21 -20 29 -11 8 -20 20 -20 26 0 6 -13
17 -30 24 -16 7 -30 16 -30 21 0 5 -6 9 -14 9 -7 0 -27 14 -44 30 -18 17 -36
30 -42 30 -5 0 -10 5 -10 10 0 6 -7 10 -15 10 -8 0 -15 5 -15 10 0 6 -6 10
-13 10 -7 0 -19 9 -27 20 -8 11 -21 20 -28 20 -8 0 -27 14 -42 30 -15 17 -35
30 -44 30 -9 0 -16 5 -16 10 0 6 -6 10 -14 10 -8 0 -40 25 -73 55 -32 30 -64
55 -70 55 -7 0 -13 5 -13 10 0 6 -11 10 -25 10 -14 0 -25 3 -25 8 0 15 -58 72
-74 72 -9 0 -16 5 -16 10 0 6 -13 10 -28 10 -16 0 -34 8 -42 20 -8 11 -26 20
-40 20 -29 0 -80 21 -80 33 0 4 -9 7 -19 7 -11 0 -23 4 -26 10 -10 17 -227
120 -253 120 -15 0 -26 7 -29 20 -3 11 -14 20 -24 20 -11 0 -19 5 -19 10 0 6
-9 10 -20 10 -11 0 -20 5 -20 10 0 6 -13 10 -30 10 -16 0 -30 5 -30 10 0 6 -9
10 -20 10 -11 0 -20 5 -20 10 0 6 -9 10 -20 10 -11 0 -20 5 -20 10 0 6 -9 10
-20 10 -11 0 -20 5 -20 10 0 6 -11 10 -24 10 -13 0 -28 6 -34 13 -10 11 -83
48 -254 127 -38 17 -68 35 -68 40 0 6 -13 10 -28 10 -16 0 -34 8 -42 20 -8 11
-22 20 -32 20 -10 0 -18 5 -18 10 0 6 -13 10 -30 10 -16 0 -30 5 -30 10 0 6
-9 10 -20 10 -11 0 -20 5 -20 10 0 6 -7 10 -15 10 -8 0 -15 5 -15 10 0 6 -13
10 -30 10 -16 0 -30 5 -30 10 0 6 -9 10 -19 10 -11 0 -21 3 -23 8 -5 13 -145
82 -166 82 -12 0 -24 5 -27 10 -3 6 -15 10 -26 10 -19 0 -80 37 -87 53 -2 4
-17 7 -33 7 -18 0 -33 7 -41 20 -7 11 -21 20 -30 20 -10 0 -18 5 -18 10 0 6
-9 10 -20 10 -11 0 -20 5 -20 10 0 6 -7 10 -15 10 -8 0 -15 5 -15 10 0 6 -9
10 -19 10 -25 0 -61 62 -61 105 0 21 -6 35 -16 39 -25 10 -124 7 -144 -4 -15
-8 -24 -6 -40 10 -11 11 -20 27 -20 36 0 20 -24 44 -44 44 -8 0 -23 14 -33 30
-9 17 -21 30 -24 30 -4 0 -11 9 -14 20 -3 11 -12 20 -19 20 -6 0 -34 22 -61
50 -47 48 -52 50 -102 50 -31 0 -63 6 -77 15 -12 8 -45 18 -72 21 -27 4 -52
12 -56 18 -4 6 -40 14 -80 18 -140 14 -167 20 -184 39 -9 10 -23 19 -30 19 -7
0 -24 14 -37 30 -14 17 -33 30 -41 30 -9 0 -16 5 -16 10 0 6 -9 10 -20 10 -11
0 -20 5 -20 10 0 6 -9 10 -20 10 -11 0 -20 5 -20 10 0 6 -9 10 -20 10 -10 0
-24 8 -29 18 -5 9 -33 25 -61 35 -31 11 -54 26 -57 36 -3 10 -29 28 -61 41
-31 13 -66 31 -78 41 -11 11 -27 19 -36 19 -8 0 -23 9 -33 20 -10 11 -23 20
-30 20 -7 0 -20 9 -30 20 -10 11 -24 20 -31 20 -8 0 -19 9 -26 20 -7 11 -20
20 -28 21 -8 0 -28 8 -45 18 -26 15 -30 24 -33 66 -2 26 2 53 7 58 6 6 11 26
11 43 0 18 5 36 10 39 6 3 10 17 10 30 0 13 5 27 10 30 5 3 10 21 10 40 0 19
4 37 10 40 5 3 10 24 10 45 0 21 5 42 10 45 5 3 10 26 10 50 0 24 5 47 10 50
6 3 10 17 10 29 0 15 7 26 20 29 19 5 20 14 20 129 0 74 4 118 9 109 14 -21
26 -6 25 31 -2 81 -4 88 -21 88 -13 0 -14 3 -5 12 7 7 13 23 13 37 2 25 2 25
6 3 3 -13 9 -22 15 -20 10 4 12 32 23 343 5 144 10 192 21 198 7 4 11 14 8 21
-3 8 -1 17 4 20 5 3 10 69 11 147 2 137 1 141 -20 146 -21 6 -22 9 -16 127 4
67 3 177 0 245 -6 112 -8 124 -26 129 -20 5 -20 11 -14 240 6 209 4 238 -11
264 -9 15 -20 28 -24 28 -4 0 -8 27 -8 59 0 33 -5 63 -11 67 -6 4 -9 32 -7 71
2 46 -1 66 -11 72 -11 7 -13 24 -8 71 4 45 2 63 -8 66 -9 4 -11 19 -7 51 4 37
1 49 -13 59 -14 10 -16 22 -12 49 3 21 0 45 -7 60 -9 16 -12 51 -10 93 2 43
-1 69 -9 74 -9 6 -9 12 -1 25 6 10 11 51 10 91 -1 39 2 73 7 75 5 1 10 33 11
70 1 37 7 72 14 79 7 7 12 41 12 84 0 40 5 76 10 79 5 3 10 32 10 64 0 32 3
61 7 65 4 4 8 25 9 47 1 22 7 46 14 54 6 7 11 22 10 32 -4 33 0 41 20 46 19 5
20 14 20 141 0 114 -2 136 -15 136 -8 0 -15 9 -15 20 0 11 -5 20 -11 20 -7 0
-9 10 -6 25 3 21 -1 29 -26 42 -33 17 -57 37 -57 49 0 3 -9 15 -20 24 -12 10
-19 24 -18 31 2 7 -6 15 -17 17 -11 2 -26 13 -33 23 -7 11 -20 19 -29 19 -10
0 -13 6 -9 16 4 10 0 18 -12 21 -11 3 -23 22 -31 51 -15 51 -55 102 -81 102
-9 0 -27 9 -40 20 -13 11 -27 20 -31 20 -4 0 -7 12 -6 27 2 22 -3 29 -20 31
-13 2 -23 8 -23 13 0 5 -6 9 -14 9 -8 0 -18 9 -21 20 -3 11 -12 20 -20 20 -8
0 -17 9 -20 20 -3 11 -11 20 -16 20 -15 0 -36 24 -32 36 2 6 -7 18 -21 27 -17
11 -23 23 -19 36 5 20 -17 51 -36 51 -6 0 -15 9 -21 20 -6 11 -20 20 -30 20
-11 0 -20 5 -20 10 0 6 -9 10 -20 10 -11 0 -20 -4 -20 -10 0 -18 -28 -11 -34
8 -4 10 -6 39 -5 63 1 29 -5 55 -19 78 -11 18 -18 40 -15 48 3 7 -2 22 -11 32
-9 10 -13 21 -9 24 11 12 -29 47 -53 47 -21 0 -23 -5 -27 -57 -2 -47 -4 -41
-5 27 -2 73 -5 88 -22 100 -14 10 -20 26 -20 50 0 25 -6 40 -21 50 -38 27 -79
68 -79 79 0 17 -67 81 -85 81 -8 0 -20 12 -25 26 -11 28 -12 29 -89 108 -30
31 -58 56 -62 56 -5 0 -9 7 -9 15 0 8 -4 15 -10 15 -5 0 -20 11 -34 25 -14 14
-32 25 -41 25 -8 0 -15 5 -15 10 0 6 -13 10 -30 10 -16 0 -30 5 -30 10 0 6 -7
10 -15 10 -8 0 -20 9 -27 20 -8 12 -24 20 -40 20 -16 0 -28 5 -28 10 0 6 -9
10 -19 10 -11 0 -31 14 -44 30 -18 21 -35 30 -56 30 -17 0 -39 4 -49 9 -9 5
-33 16 -53 25 -19 8 -43 24 -54 36 -10 11 -28 20 -39 20 -12 1 -32 7 -46 15
-14 8 -51 14 -82 15 -43 0 -58 4 -58 14 0 10 -17 16 -57 20 -32 3 -89 10 -128
16 -38 6 -96 13 -127 16 -48 5 -62 11 -82 35 -14 16 -32 29 -40 29 -9 0 -21 9
-28 20 -7 11 -20 20 -29 20 -8 0 -28 14 -44 30 -16 17 -35 30 -43 30 -8 0 -25
11 -38 25 -13 14 -28 24 -33 23 -6 -2 -22 11 -35 27 -24 29 -25 29 -26 8 0
-30 -21 -29 -44 2 -18 25 -56 35 -56 15 0 -5 -4 -10 -10 -10 -5 0 -10 23 -10
51 0 38 5 55 18 65 16 12 16 14 -5 29 -13 9 -23 25 -23 36 0 10 -4 19 -10 19
-5 0 -10 7 -10 16 0 23 -41 53 -72 54 -16 0 -28 5 -28 10 0 6 11 10 24 10 41
0 56 46 56 175 0 104 1 113 20 118 32 8 28 70 -5 85 -14 7 -37 12 -50 12 -13
0 -27 5 -30 10 -3 6 -14 10 -24 10 -9 0 -28 13 -41 30 -16 19 -35 29 -52 30
-15 0 -30 5 -33 10 -3 6 -21 10 -40 10 -19 0 -37 5 -40 10 -3 6 -21 10 -40 10
-19 0 -37 5 -40 10 -3 6 -19 10 -36 10 -16 0 -29 5 -29 10 0 6 -8 10 -17 10
-23 1 -76 47 -68 60 3 6 0 13 -9 16 -8 3 -12 12 -10 19 5 12 -9 34 -44 71 -8
8 -13 45 -14 97 -2 80 -3 85 -31 108 -17 13 -44 39 -62 57 -17 17 -41 32 -53
32 -12 0 -22 4 -22 8 0 12 -308 36 -355 28 -67 -12 -232 -2 -249 15 -6 5 -18
9 -28 9 -26 0 -22 19 7 30 18 7 25 17 25 35 0 14 4 25 8 25 13 0 63 82 60 97
-2 8 16 35 39 59 39 40 42 46 30 67 -23 42 -40 57 -63 57 -18 0 -25 7 -30 28
-10 49 -13 52 -39 52 -44 0 -53 17 -36 67 16 42 16 42 -24 83 -22 22 -45 38
-52 36 -19 -8 -43 4 -43 21 0 7 -11 25 -25 38 -18 19 -35 25 -70 25 -25 0 -45
-4 -45 -10 0 -25 -26 -6 -36 26 -9 29 -9 44 2 70 8 18 14 44 14 58 0 14 4 27
9 30 5 3 12 22 15 41 3 19 9 51 12 70 5 27 2 36 -10 41 -11 4 -13 10 -8 18 15
19 12 164 -4 177 -8 6 -14 8 -14 4 0 -4 -7 -2 -15 5 -8 7 -15 21 -15 31 0 11
-4 19 -9 19 -5 0 -11 13 -14 28 -8 37 -59 92 -87 92 -25 0 -50 22 -50 44 0 9
-4 16 -10 16 -5 0 -10 9 -10 20 0 11 -4 20 -10 20 -5 0 -10 11 -10 25 0 16 -6
25 -16 25 -20 0 -134 61 -134 72 0 14 -138 9 -144 -4 -5 -10 -7 -10 -12 0 -3
6 -23 12 -45 12 -51 0 -49 15 4 39 24 11 50 27 57 36 7 8 20 15 30 15 9 0 31
7 49 16 32 16 32 16 26 133 -11 203 -13 222 -19 228 -3 4 -6 20 -6 36 0 20 -6
30 -20 34 -11 3 -20 14 -20 25 0 21 -13 38 -45 56 -11 6 -14 12 -7 12 6 0 12
11 12 25 0 19 -5 25 -22 25 -20 1 -21 2 -6 10 15 9 15 13 1 40 -8 17 -21 30
-29 30 -19 0 -42 22 -37 35 2 6 -21 34 -51 63 -39 38 -61 52 -81 52 -29 0 -85
15 -117 31 -10 5 -34 9 -53 9 -19 0 -35 5 -35 10 0 6 -28 10 -65 10 -37 0 -65
4 -65 10 0 6 -35 10 -85 10 -50 0 -85 4 -85 10 0 6 -9 10 -19 10 -26 0 -36 17
-20 36 20 25 12 69 -24 127 -18 28 -38 64 -45 80 -6 15 -19 27 -27 27 -19 0
-45 23 -45 40 0 15 -64 80 -79 80 -7 0 -23 11 -36 24 -33 33 -99 42 -194 27
-42 -6 -106 -11 -142 -11 -133 0 -249 -12 -249 -26 0 -10 -16 -14 -59 -14 -33
0 -63 -4 -66 -10 -7 -12 -185 -11 -185 1 0 12 -117 11 -125 -1 -3 -5 -15 -10
-26 -10 -10 0 -19 -4 -19 -10 0 -5 -8 -10 -18 -10 -10 0 -24 -9 -32 -20 -8
-12 -26 -20 -42 -20 -15 0 -28 -4 -28 -10 0 -6 -29 -10 -66 -10 -67 0 -94 13
-94 44 0 9 -8 16 -20 16 -11 0 -20 5 -20 10 0 6 -5 10 -10 10 -14 0 -80 66
-80 80 0 5 -7 10 -15 10 -9 0 -27 11 -41 25 -14 14 -29 25 -34 25 -5 0 -39 29
-75 65 -35 36 -67 65 -70 65 -3 0 -30 24 -60 53 -65 63 -74 71 -105 87 -13 7
-50 39 -81 71 -32 33 -62 59 -66 59 -5 0 -15 9 -23 20 -8 11 -24 20 -37 20
-14 0 -53 30 -109 85 -48 47 -93 85 -99 85 -6 0 -36 27 -66 60 -30 32 -62 59
-71 60 -10 0 -18 5 -18 10 0 6 -12 10 -28 10 -16 0 -32 8 -40 20 -8 13 -23 20
-42 20 -17 0 -30 5 -30 10 0 6 -15 10 -33 10 -21 0 -36 7 -45 20 -7 11 -21 20
-32 20 -11 0 -20 4 -20 8 0 8 -63 39 -170 82 -30 12 -72 31 -93 41 -22 11 -44
19 -51 19 -6 0 -18 9 -26 20 -8 11 -22 20 -32 20 -10 0 -18 5 -18 10 0 6 -13
10 -30 10 -16 0 -30 5 -30 10 0 6 -9 10 -20 10 -11 0 -20 5 -20 10 0 6 -13 10
-30 10 -16 0 -30 5 -30 10 0 6 -16 10 -35 10 -19 0 -35 5 -35 10 0 6 -9 10
-20 10 -11 0 -20 5 -20 10 0 6 -13 10 -30 10 -16 0 -30 5 -30 10 0 6 -9 10
-20 10 -11 0 -20 7 -20 15 0 8 -4 15 -10 15 -5 0 -10 25 -10 56 0 57 -14 84
-44 84 -9 0 -16 8 -16 20 0 12 -7 20 -16 20 -9 0 -25 10 -36 22 -16 19 -21 20
-28 8 -7 -10 -10 -11 -10 -2 0 6 -7 12 -16 12 -18 0 -44 24 -44 40 0 7 -14 25
-31 41 -25 24 -40 29 -78 29 -41 0 -49 3 -59 25 -7 14 -12 37 -12 50 0 14 -4
25 -10 25 -5 0 -10 23 -10 50 0 29 -5 50 -11 50 -27 0 -52 59 -64 150 -3 25
-14 63 -25 85 -10 22 -15 44 -10 49 11 11 1 37 -22 57 -11 10 -18 30 -18 52 0
19 -6 38 -12 41 -10 5 -10 7 0 12 14 7 17 74 2 74 -5 0 -10 9 -10 19 0 11 -5
21 -11 23 -7 2 -10 53 -10 146 1 89 -3 142 -9 142 -6 0 -10 74 -10 207 0 212
-14 317 -46 354 -16 18 -19 65 -4 74 6 3 10 17 10 31 0 17 5 24 20 24 17 0 20
7 20 40 0 22 5 40 10 40 6 0 10 18 10 40 0 22 5 40 10 40 6 0 10 18 10 39 0
22 5 43 10 46 13 8 13 95 0 95 -6 0 -10 42 -10 105 0 63 -4 105 -10 105 -5 0
-10 14 -10 30 0 36 -22 110 -32 110 -5 0 -8 9 -8 20 0 11 -4 20 -10 20 -5 0
-10 6 -10 14 0 8 -19 35 -43 60 -24 24 -50 64 -57 88 -8 24 -24 53 -37 65 -12
12 -24 32 -28 43 -4 12 -15 20 -28 20 -13 0 -17 3 -11 8 6 4 13 12 15 18 2 6
20 30 39 54 19 23 50 60 68 82 17 22 32 44 32 49 0 5 4 9 10 9 5 0 32 23 61
51 40 41 53 49 61 38 7 -11 11 -11 15 -1 15 36 23 -1 23 -103 0 -70 4 -115 10
-115 6 0 10 -18 10 -40 0 -22 5 -40 10 -40 6 0 10 -22 10 -50 0 -38 4 -50 15
-50 11 0 15 -11 15 -40 0 -22 5 -40 10 -40 6 0 10 -14 10 -31 0 -17 5 -40 11
-51 6 -12 11 -59 10 -105 -1 -45 2 -83 7 -83 5 0 12 -100 16 -222 5 -150 12
-237 22 -266 8 -23 14 -63 14 -87 0 -25 5 -45 10 -45 6 0 10 -26 10 -59 0 -33
5 -63 10 -66 6 -3 10 -50 10 -106 0 -59 4 -99 10 -99 6 0 10 -11 10 -25 0 -14
-4 -25 -10 -25 -5 0 -10 -9 -10 -20 0 -11 5 -20 10 -20 6 0 10 -45 10 -115 0
-63 -3 -115 -7 -115 -5 0 -9 -64 -9 -143 -1 -81 -7 -155 -14 -172 -6 -16 -15
-90 -20 -165 -5 -75 -14 -136 -20 -138 -5 -2 -10 -15 -10 -28 0 -20 4 -24 23
-21 53 8 63 21 62 91 0 36 3 66 8 66 4 0 7 29 7 65 0 37 4 65 10 65 6 0 10 33
10 79 0 47 4 81 11 83 7 2 10 57 11 156 0 83 4 152 9 152 5 0 9 59 9 130 0 80
-4 130 -10 130 -6 0 -10 110 -10 310 0 200 -4 310 -10 310 -6 0 -10 37 -10 90
0 53 -4 90 -10 90 -6 0 -10 90 -10 250 0 239 -1 250 -19 250 -16 0 -20 9 -25
53 -11 110 -34 263 -44 293 -5 17 -13 85 -17 150 -4 65 -11 130 -15 144 -5 17
-3 36 6 51 7 13 13 54 14 91 0 37 5 70 10 73 6 4 10 72 10 170 0 98 -4 166
-10 170 -5 3 -10 33 -10 66 0 32 -4 59 -9 59 -15 0 -26 35 -71 220 -18 74 -56
166 -75 182 -11 10 -31 27 -45 38 -14 11 -40 31 -57 46 -18 14 -33 30 -33 34
0 12 -44 78 -75 114 -14 16 -25 23 -25 17 0 -7 -11 -1 -25 13 -14 14 -25 32
-25 41 0 8 -4 15 -10 15 -5 0 -10 6 -10 13 0 7 -9 23 -20 35 -11 12 -20 28
-20 36 0 8 -6 17 -12 20 -10 5 -10 7 0 12 14 7 16 34 2 34 -5 0 -10 11 -10 25
0 14 -11 37 -25 51 -14 14 -28 39 -32 55 -3 16 -11 29 -18 29 -7 0 -23 25 -36
56 -13 31 -31 60 -41 65 -10 5 -18 21 -18 34 0 28 -20 75 -32 75 -4 0 -8 13
-8 28 0 16 -8 34 -20 42 -12 8 -20 26 -20 42 0 15 -4 28 -10 28 -5 0 -10 10
-10 23 0 12 -9 29 -20 37 -11 8 -20 20 -20 27 0 15 -84 103 -98 103 -4 0 -14
10 -22 21 -8 12 -20 27 -25 33 -6 6 -21 26 -34 44 -12 18 -37 40 -54 48 -32
17 -57 38 -57 49 0 13 -90 95 -105 95 -8 0 -15 7 -15 15 0 16 -3 21 -51 74
-15 18 -31 41 -34 52 -4 12 -15 19 -31 19 -13 0 -51 14 -84 30 -33 17 -66 30
-73 30 -8 0 -20 7 -27 15 -7 8 -21 15 -31 15 -11 0 -19 5 -19 10 0 6 -20 10
-45 10 -38 0 -45 3 -45 20 0 15 -7 20 -28 20 -16 0 -34 8 -42 20 -8 11 -22 20
-32 20 -10 0 -18 5 -18 10 0 6 -8 10 -18 10 -10 0 -24 9 -32 20 -8 11 -21 20
-30 20 -8 0 -24 14 -35 30 -15 23 -28 30 -52 30 -18 0 -42 4 -55 9 -13 5 -42
14 -65 20 -32 9 -43 17 -43 31 0 11 5 20 10 20 6 0 10 7 10 15 0 9 36 51 80
95 81 80 101 120 60 120 -15 0 -20 7 -20 29 0 17 4 33 10 36 5 3 10 28 10 56
0 42 -3 49 -20 49 -16 0 -20 7 -20 30 0 23 -4 30 -20 30 -18 0 -20 7 -20 86 0
54 -4 83 -10 79 -6 -4 -10 33 -10 104 0 67 4 111 10 111 6 0 10 48 10 124 0
122 12 171 26 101 6 -34 7 -35 53 -35 42 0 51 -4 89 -43 23 -23 42 -46 42 -50
0 -14 130 -137 145 -137 8 0 15 -4 15 -10 0 -5 14 -10 30 -10 17 0 30 4 30 9
0 18 -12 41 -21 41 -5 0 -29 19 -53 43 -24 23 -53 49 -65 57 -11 8 -21 20 -21
27 0 20 -127 143 -148 143 -9 0 -24 9 -32 20 -8 12 -26 20 -42 20 -28 0 -28 0
-28 133 0 121 -2 134 -20 147 -15 11 -20 26 -20 62 0 26 -4 48 -10 48 -6 0
-10 28 -10 65 0 59 -2 65 -20 65 -20 0 -21 5 -19 120 2 82 -1 124 -9 132 -7 7
-12 27 -12 45 0 18 -4 33 -10 33 -5 0 -10 9 -10 20 0 11 -4 20 -9 20 -5 0 -11
15 -14 33 -7 48 -36 149 -48 171 -6 10 -13 43 -16 72 -3 30 -9 54 -13 54 -4 0
-15 17 -23 38 -16 41 -90 115 -126 127 -14 4 -21 15 -21 32 0 15 -12 36 -30
53 -16 15 -30 33 -30 39 0 15 -46 61 -60 61 -12 0 -95 54 -118 77 -7 7 -20 13
-27 13 -13 0 -110 41 -145 61 -8 5 -22 12 -30 15 -8 3 -23 10 -32 15 -10 5
-25 9 -33 9 -24 0 -95 24 -95 32 0 5 -18 8 -40 8 -22 0 -40 5 -40 10 0 6 -13
10 -30 10 -16 0 -30 5 -30 10 0 6 -24 10 -53 10 -41 0 -56 4 -67 20 -11 15
-26 20 -62 20 -26 0 -48 5 -48 10 0 6 -13 10 -30 10 -16 0 -30 5 -30 10 0 6
-22 10 -49 10 -28 0 -52 4 -55 9 -3 5 -20 11 -38 14 -18 3 -52 10 -75 16 -103
26 -131 33 -181 42 -30 5 -71 18 -93 29 -21 11 -54 20 -74 20 -19 0 -35 5 -35
10 0 6 -18 10 -39 10 -22 0 -43 5 -47 11 -4 7 -26 9 -56 7 -34 -4 -54 -1 -63
8 -7 8 -21 14 -29 14 -9 0 -16 5 -16 10 0 6 -13 10 -30 10 -20 0 -30 5 -30 15
0 8 5 15 10 15 6 0 10 7 10 15 0 8 -4 15 -10 15 -5 0 -10 9 -10 20 0 11 -4 20
-9 20 -26 0 -137 134 -176 211 -15 29 -45 70 -66 90 -21 21 -39 44 -39 51 0 7
-9 20 -20 28 -11 8 -20 19 -20 25 0 5 -14 21 -30 34 -17 13 -30 31 -30 41 0
10 -14 33 -30 51 -50 57 -53 60 -67 102 -8 22 -22 48 -31 56 -24 23 -42 57
-42 81 0 11 -4 20 -10 20 -5 0 -10 8 -10 18 0 10 -9 24 -20 32 -11 8 -20 21
-20 28 0 8 -13 27 -30 42 -16 15 -30 35 -30 44 0 9 -4 16 -10 16 -5 0 -10 7
-10 16 0 8 -13 27 -30 41 -16 13 -30 31 -30 38 0 8 -6 18 -14 22 -8 4 -24 26
-37 48 -13 22 -36 52 -51 67 -15 14 -28 31 -28 37 0 21 -178 186 -234 217 -11
6 -24 19 -30 29 -16 28 -33 45 -46 45 -6 0 -33 23 -60 50 -27 28 -58 50 -69
50 -11 0 -24 7 -28 14 -10 18 -109 63 -178 82 -27 8 -76 14 -107 14 -63 0
-158 19 -158 32 0 4 -9 8 -20 8 -11 0 -20 5 -20 10 0 7 -78 10 -222 9 -151 0
-224 3 -226 10 -2 7 -42 11 -108 11 -63 0 -104 4 -104 10 0 6 -9 10 -20 10
-11 0 -20 5 -20 10 0 6 -18 10 -40 10 -22 0 -40 5 -40 10 0 6 -22 10 -50 10
-27 0 -50 5 -50 10 0 6 -16 10 -35 10 -19 0 -35 5 -35 10 0 6 -38 10 -95 10
-52 0 -95 4 -95 9 0 13 -327 14 -335 1 -3 -5 -17 -10 -31 -10 -13 0 -24 -4
-24 -10 0 -6 -27 -10 -60 -10 -33 0 -60 -4 -60 -10 0 -5 -25 -10 -55 -10 -30
0 -55 -4 -55 -10 0 -5 -22 -10 -50 -10 -27 0 -50 -4 -50 -10 0 -5 -18 -10 -40
-10 -27 0 -40 -4 -40 -14 0 -15 -42 -26 -104 -26 -23 0 -47 -5 -52 -10 -14
-14 -419 -15 -463 -1 -26 8 -42 7 -75 -6 -50 -20 -176 -30 -176 -14 0 6 -19
11 -42 12 -24 0 -37 3 -30 6 19 8 14 33 -7 33 -11 0 -22 6 -24 13 -4 9 -8 8
-17 -3 -9 -11 -13 -12 -17 -2 -2 6 -18 12 -34 12 -16 0 -29 5 -29 10 0 6 -11
10 -24 10 -17 0 -27 9 -36 30 -14 33 -46 43 -37 11 2 -10 1 -25 -4 -32 -6 -10
-9 -11 -9 -1 0 6 -12 12 -26 12 -16 0 -37 11 -53 29 -45 48 -111 75 -126 51z
m3343 -248 c12 -7 31 -16 42 -22 11 -5 40 -10 64 -10 25 0 48 -4 51 -10 3 -5
26 -10 51 -10 24 0 44 -4 44 -10 0 -5 18 -10 40 -10 22 0 40 -4 40 -10 0 -5
12 -10 26 -10 15 0 34 -8 43 -18 23 -26 77 -62 93 -62 11 0 29 -13 85 -60 7
-5 24 -15 38 -22 14 -6 25 -17 25 -25 0 -7 5 -13 11 -13 6 0 31 -20 56 -45 24
-25 49 -45 54 -45 5 0 14 -9 21 -20 7 -11 21 -20 30 -20 11 0 18 -8 18 -20 0
-11 9 -25 20 -32 11 -7 20 -19 20 -26 0 -8 14 -27 30 -42 17 -15 30 -32 30
-37 0 -5 9 -15 20 -23 11 -8 20 -21 20 -30 0 -9 9 -22 20 -30 11 -8 20 -21 20
-28 0 -8 14 -27 30 -42 17 -15 30 -35 30 -44 0 -15 85 -128 102 -134 4 -2 8
-12 8 -23 0 -10 5 -19 10 -19 6 0 10 -7 10 -15 0 -8 5 -15 10 -15 6 0 10 -13
10 -30 0 -16 5 -30 10 -30 6 0 10 -7 10 -16 0 -9 14 -29 30 -44 17 -15 30 -35
30 -44 0 -9 5 -16 10 -16 6 0 10 -7 10 -15 0 -8 18 -34 40 -57 22 -24 40 -51
40 -60 0 -10 5 -17 12 -16 6 2 22 -13 34 -32 13 -19 28 -40 32 -46 5 -5 15
-21 22 -35 7 -13 21 -31 32 -40 10 -9 18 -23 18 -30 0 -8 9 -20 20 -27 11 -7
20 -21 20 -32 0 -11 5 -20 10 -20 6 0 10 -7 10 -15 0 -8 6 -15 13 -15 22 0 57
-44 69 -86 6 -21 13 -33 15 -26 3 6 9 10 14 6 12 -7 12 -44 -1 -44 -5 0 -10 5
-10 10 0 6 -29 10 -66 10 -67 0 -94 13 -94 44 0 9 -8 16 -20 16 -12 0 -20 7
-20 16 0 16 -55 74 -71 74 -5 0 -9 6 -9 13 0 8 -9 22 -19 31 -11 10 -25 31
-31 47 -7 17 -20 29 -31 29 -10 0 -21 9 -24 20 -3 11 -11 20 -16 20 -5 0 -9 7
-9 16 0 8 -18 33 -40 54 -22 21 -40 46 -40 54 0 9 -4 16 -10 16 -5 0 -10 5
-10 11 0 6 -13 24 -30 39 -16 15 -30 35 -30 44 0 9 -7 16 -16 16 -23 0 -44 25
-44 54 0 18 -5 26 -18 26 -16 0 -18 7 -16 49 2 44 -1 50 -25 62 -14 8 -36 23
-48 34 -43 39 -52 45 -70 46 -11 0 -13 3 -5 6 7 3 12 23 12 49 0 41 -2 44 -25
44 -20 0 -51 25 -123 99 -54 54 -107 101 -120 105 -12 4 -22 14 -22 22 0 8 -4
14 -10 14 -5 0 -10 5 -10 10 0 14 -106 120 -120 120 -5 0 -10 5 -10 10 0 6 -5
10 -10 10 -17 0 -130 122 -130 140 0 7 -8 9 -20 5 -14 -5 -20 -2 -20 9 0 9 -7
16 -16 16 -8 0 -33 18 -54 40 -21 22 -48 40 -59 40 -12 0 -21 5 -21 10 0 6
-18 10 -40 10 -22 0 -40 5 -40 10 0 6 -9 10 -20 10 -11 0 -20 5 -20 10 0 6
-13 10 -30 10 -16 0 -30 5 -30 10 0 6 -9 10 -19 10 -11 0 -26 7 -35 15 -8 8
-19 15 -25 15 -18 0 -91 34 -91 42 0 5 -11 8 -25 8 -14 0 -25 5 -25 11 0 15
227 7 258 -9z m-1303 -2 c4 -6 15 -8 26 -5 14 5 19 2 19 -13 0 -16 -9 -21 -42
-25 -65 -9 -112 -19 -123 -27 -5 -4 -44 -10 -85 -13 -93 -7 -140 -17 -140 -28
0 -5 -4 -9 -10 -9 -5 0 -10 9 -10 21 0 19 -5 21 -57 19 -76 -3 -83 -2 -83 11
0 36 86 46 333 40 62 -1 77 1 77 13 0 13 20 20 72 25 9 0 20 -4 23 -9z m455
-100 c0 -5 20 -10 45 -10 27 0 45 -5 45 -11 0 -8 14 -10 40 -6 32 4 40 2 40
-10 0 -12 7 -14 30 -10 18 4 34 1 42 -6 7 -8 31 -12 55 -11 28 1 43 -3 47 -12
3 -8 12 -14 21 -14 8 0 15 -4 15 -10 0 -5 12 -10 26 -10 14 0 35 -5 46 -11 19
-10 72 -24 168 -45 14 -3 34 -9 45 -14 11 -5 31 -11 45 -13 14 -3 39 -10 55
-16 17 -6 42 -13 58 -16 15 -3 27 -10 27 -15 0 -6 16 -26 35 -44 19 -19 35
-39 35 -45 0 -6 7 -11 15 -11 8 0 15 -4 15 -8 0 -22 143 -172 224 -235 23 -17
48 -39 57 -49 9 -10 21 -18 28 -18 6 0 11 -9 11 -20 0 -11 6 -20 14 -20 8 0
17 -8 21 -17 3 -10 21 -29 41 -43 77 -55 84 -62 84 -86 0 -13 5 -24 10 -24 6
0 10 -8 10 -17 0 -10 9 -29 20 -43 11 -14 20 -31 20 -38 0 -7 14 -26 30 -44
17 -17 30 -37 30 -43 0 -7 6 -15 13 -18 21 -8 110 -145 102 -157 -9 -14 -144
-3 -203 16 -23 8 -57 14 -75 14 -18 0 -47 9 -65 20 -18 11 -39 20 -47 20 -7 0
-23 14 -35 30 -15 22 -30 30 -51 30 -26 0 -29 3 -29 30 0 21 -5 30 -16 30 -18
0 -44 23 -44 40 0 15 -18 31 -52 49 -16 8 -28 18 -28 23 0 4 -9 8 -21 8 -11 0
-37 16 -57 35 -20 19 -47 35 -59 35 -12 0 -28 3 -37 6 -12 4 -16 0 -16 -15 0
-12 -4 -21 -10 -21 -5 0 -10 9 -10 20 0 11 -4 20 -10 20 -5 0 -10 7 -10 16 0
14 -10 16 -60 12 -57 -4 -60 -3 -60 19 0 18 -6 23 -25 23 -14 0 -25 5 -25 10
0 6 -13 10 -30 10 -16 0 -30 5 -30 10 0 6 -18 10 -40 10 -22 0 -40 5 -40 10 0
6 -13 10 -30 10 -22 0 -30 5 -30 18 0 10 -9 24 -20 32 -11 8 -20 22 -20 31 0
9 -7 23 -16 30 -9 7 -20 24 -25 36 -5 13 -17 26 -26 30 -10 3 -25 12 -33 18
-8 7 -27 15 -42 19 -16 3 -28 11 -28 17 0 16 -26 39 -44 39 -9 0 -16 5 -16 10
0 6 -13 10 -30 10 -16 0 -30 5 -30 10 0 6 -9 10 -20 10 -11 0 -20 5 -20 10 0
6 -9 10 -20 10 -11 0 -20 5 -20 10 0 6 -28 10 -65 10 -37 0 -65 4 -65 10 0 6
-9 10 -20 10 -11 0 -20 5 -20 10 0 6 -18 10 -40 10 -33 0 -40 3 -40 20 0 14
-7 20 -21 20 -11 0 -40 16 -63 35 -24 19 -51 35 -60 35 -10 0 -27 5 -39 12
-12 7 -50 11 -84 9 -63 -2 -63 -2 -63 38 0 35 -3 41 -21 41 -20 0 -21 -4 -15
-40 6 -38 5 -40 -19 -40 -14 0 -30 9 -37 20 -10 16 -24 20 -65 20 -46 0 -53 3
-53 20 0 11 -4 20 -10 20 -5 0 -10 9 -10 20 0 18 5 20 39 14 29 -5 39 -3 44
10 5 13 19 14 87 9 57 -4 80 -3 80 6 0 7 19 11 50 11 28 0 50 5 50 10 0 6 9
10 20 10 11 0 20 5 20 10 0 6 75 10 205 10 130 0 205 -4 205 -10z m-1810 -174
c0 -15 44 -47 72 -53 16 -3 28 -12 28 -19 0 -8 10 -14 23 -14 18 -1 15 -5 -16
-21 -56 -29 -111 -15 -130 34 -4 10 -17 17 -34 17 -41 0 -193 53 -193 67 0 9
31 13 108 15 100 3 142 -5 142 -26z m300 4 c29 -5 52 -4 64 2 15 8 21 8 24 -1
2 -6 12 -11 22 -11 9 0 24 -8 31 -17 12 -15 12 -16 -5 -10 -12 5 -22 3 -27 -4
-4 -7 -36 -13 -73 -15 -36 -1 -75 -5 -86 -9 -12 -4 -26 -2 -33 3 -7 6 -31 15
-54 21 -44 12 -58 36 -25 44 29 8 115 7 162 -3z m2480 -27 c0 -8 16 -35 35
-60 19 -25 35 -50 35 -54 0 -5 7 -9 15 -9 9 0 47 -32 86 -71 44 -44 76 -69 87
-67 9 2 22 -5 27 -16 6 -10 13 -17 16 -15 7 4 59 -54 59 -66 0 -3 18 -24 40
-45 22 -21 40 -44 40 -50 0 -6 18 -29 40 -50 22 -21 40 -45 40 -53 0 -9 3 -17
8 -19 12 -5 87 -121 106 -165 10 -23 24 -44 32 -47 7 -3 21 -20 30 -38 9 -18
25 -40 35 -49 23 -20 24 -45 3 -53 -16 -6 -44 15 -44 34 0 6 -16 26 -35 46
-19 19 -35 38 -35 43 0 7 -8 18 -48 67 -20 23 -32 54 -32 81 0 17 -8 34 -20
43 -11 8 -20 25 -20 38 0 24 -40 72 -60 72 -7 0 -28 17 -49 38 -20 20 -48 43
-61 51 -33 19 -106 81 -187 159 -36 34 -71 62 -79 62 -14 0 -30 44 -26 68 2 6
-5 12 -15 12 -10 1 -38 23 -62 51 -39 45 -42 51 -27 62 24 18 66 18 66 0z
m-2156 -75 c11 -10 11 -15 0 -25 -7 -7 -20 -13 -28 -13 -9 0 -16 -4 -16 -10 0
-5 -9 -10 -20 -10 -11 0 -20 -4 -20 -10 0 -6 -31 -10 -72 -10 -66 0 -74 2 -84
23 -8 18 -7 26 5 37 11 11 16 11 19 2 6 -19 36 -14 52 8 12 17 26 20 83 20 40
0 73 -5 81 -12z m-706 -659 c5 -12 62 -11 62 1 0 6 5 10 10 10 6 0 10 -11 10
-25 0 -18 -5 -25 -20 -25 -11 0 -20 -4 -20 -10 0 -5 -9 -10 -20 -10 -11 0 -20
-4 -20 -8 0 -9 -58 -15 -142 -16 -27 -1 -48 -4 -48 -8 0 -5 -13 -8 -30 -8 -25
0 -30 4 -30 25 0 21 5 25 30 25 23 0 30 4 30 20 0 13 7 20 20 20 11 0 20 4 20
9 0 11 92 20 125 13 11 -3 22 -9 23 -13z m2722 -19 c0 -5 6 -10 13 -10 6 0 28
-14 47 -30 19 -16 40 -30 46 -30 6 0 29 -16 50 -35 27 -25 33 -35 21 -35 -10
0 -27 -9 -39 -20 -30 -28 -60 -25 -96 10 -18 17 -39 30 -47 30 -8 0 -15 5 -15
10 0 6 -7 10 -15 10 -9 0 -27 11 -41 25 -14 14 -20 25 -14 25 5 0 10 7 10 15
0 9 6 22 13 30 14 16 67 20 67 5z m980 -31 c8 -11 22 -29 30 -39 8 -10 22 -28
30 -40 8 -12 23 -31 32 -42 10 -11 20 -29 23 -39 4 -11 11 -19 16 -19 5 0 9
-8 9 -18 0 -19 93 -122 110 -122 5 0 10 -9 10 -20 0 -11 5 -20 10 -20 6 0 10
-7 10 -15 0 -8 5 -15 10 -15 6 0 10 -8 10 -18 0 -10 9 -24 20 -32 14 -10 20
-26 20 -52 0 -31 -4 -38 -20 -38 -13 0 -20 7 -20 20 0 11 -4 20 -10 20 -5 0
-10 16 -10 35 0 27 -4 35 -18 35 -10 0 -24 9 -32 20 -8 11 -20 20 -28 20 -7 0
-24 11 -38 25 -14 14 -20 25 -14 25 5 0 10 11 10 25 0 18 -5 25 -20 25 -11 0
-20 7 -20 16 0 8 -11 30 -25 48 -14 18 -25 39 -25 45 0 7 -13 26 -30 41 -18
17 -30 38 -30 54 0 14 -4 26 -10 26 -5 0 -10 -4 -10 -10 0 -5 -4 -10 -10 -10
-5 0 -10 9 -10 20 0 11 -4 20 -10 20 -14 0 -13 18 3 35 16 19 20 18 37 -6z
m-3706 -111 c-10 -16 -24 -34 -46 -59 -10 -10 -18 -22 -18 -26 0 -5 -11 -20
-24 -35 -19 -23 -32 -28 -66 -28 -32 0 -48 -6 -63 -22 -13 -16 -21 -19 -24
-10 -5 14 -43 16 -43 2 0 -5 -20 -10 -45 -10 -25 0 -45 -4 -45 -10 0 -5 -13
-10 -30 -10 -16 0 -30 -4 -30 -10 0 -5 -13 -10 -28 -10 -16 0 -34 -8 -42 -20
-8 -11 -22 -20 -32 -20 -10 0 -18 -4 -18 -10 0 -5 -9 -10 -20 -10 -11 0 -20
-4 -20 -10 0 -5 -9 -10 -20 -10 -11 0 -20 -3 -20 -7 0 -11 -50 -33 -72 -33
-10 0 -18 -4 -18 -10 0 -5 -9 -10 -20 -10 -11 0 -20 -4 -20 -10 0 -5 -13 -10
-30 -10 -27 0 -30 3 -30 29 0 21 6 32 20 36 11 3 20 13 20 21 0 16 44 64 58
64 5 0 15 14 22 30 7 17 17 30 22 30 5 0 21 14 35 30 13 17 29 30 35 30 13 0
38 26 38 39 0 6 14 11 30 11 19 0 30 5 30 14 0 11 10 13 40 9 26 -4 40 -2 40
6 0 7 26 11 77 11 42 0 90 4 107 9 78 24 106 29 179 30 60 1 76 -2 71 -11z
m3642 -232 c8 -8 14 -21 14 -29 0 -9 6 -18 13 -20 6 -3 -21 -6 -60 -6 -42 -1
-73 -5 -73 -11 0 -5 -11 -10 -24 -10 -14 0 -28 5 -31 10 -3 6 -15 10 -26 10
-11 0 -23 8 -26 18 -4 9 -15 25 -26 35 -19 16 -15 17 102 17 93 0 126 -3 137
-14z m284 -211 c0 -23 111 -130 119 -116 7 11 51 -38 51 -57 0 -10 30 -46 98
-119 23 -25 42 -52 42 -61 0 -8 10 -23 22 -33 21 -19 21 -19 -5 -19 -21 0 -49
22 -117 91 -49 49 -90 95 -90 100 0 5 -31 41 -70 79 -38 38 -70 75 -70 82 0 8
-9 20 -20 28 -30 21 -25 40 10 40 20 0 30 -5 30 -15z m-110 -33 c0 -5 8 -18
18 -30 9 -11 24 -30 32 -43 8 -13 57 -64 108 -114 50 -50 92 -94 92 -99 0 -5
10 -17 22 -27 21 -19 21 -19 -36 -19 -47 0 -61 4 -81 25 -14 13 -25 31 -25 40
0 8 -4 15 -10 15 -5 0 -35 25 -65 55 -31 30 -59 55 -63 55 -4 0 -14 9 -22 20
-16 22 -65 27 -74 8 -5 -10 -7 -10 -12 0 -3 6 -12 12 -21 12 -17 0 -43 24 -43
39 0 6 5 11 10 11 6 0 10 9 10 20 0 18 7 20 60 20 33 0 60 4 60 10 0 6 9 10
20 10 11 0 20 -4 20 -8z m-1316 -104 c15 -16 58 -90 54 -93 -3 -4 -81 -7 -115
-6 -31 1 -30 35 2 67 14 14 25 29 25 34 0 14 19 12 34 -2z m-302 -73 c15 -19
25 -24 44 -19 13 4 54 3 89 -1 65 -7 65 -7 65 -61 0 -53 2 -56 55 -109 30 -30
59 -55 65 -55 6 0 21 -10 34 -22 32 -33 107 -99 144 -128 30 -24 45 -70 22
-70 -5 0 -10 4 -10 10 0 5 -13 7 -28 4 -19 -4 -34 0 -45 10 -8 9 -27 20 -41
26 -14 5 -26 16 -26 25 0 8 -6 15 -13 15 -7 0 -28 13 -47 30 -19 16 -41 29
-48 30 -8 0 -27 14 -42 30 -15 17 -33 30 -39 30 -15 0 -61 45 -61 60 0 5 5 10
10 10 17 0 12 87 -6 94 -48 18 -94 -9 -94 -56 0 -36 -18 -37 -26 0 -4 15 -22
45 -41 66 -18 22 -33 48 -33 58 0 10 -4 18 -10 18 -5 0 -10 7 -10 15 0 27 69
19 92 -10z m2348 -35 c0 -11 5 -20 10 -20 6 0 10 -7 10 -15 0 -8 5 -15 10 -15
6 0 10 -7 10 -15 0 -8 5 -15 10 -15 6 0 10 -7 10 -15 0 -8 3 -15 8 -15 4 0 23
-31 42 -68 19 -37 38 -68 43 -70 13 -7 7 -32 -8 -32 -26 0 -85 66 -85 95 0 18
-5 25 -20 25 -17 0 -20 7 -20 40 0 22 -4 40 -10 40 -5 0 -10 9 -10 20 0 11 -3
20 -7 20 -5 0 -14 4 -21 9 -12 7 -12 12 -1 30 17 26 29 27 29 1z m-1923 -57
c13 -12 23 -29 23 -38 0 -8 5 -15 10 -15 6 0 10 -8 10 -18 0 -10 9 -24 20 -32
11 -8 20 -22 20 -32 0 -10 5 -18 10 -18 6 0 10 -16 10 -35 0 -28 -4 -35 -20
-35 -11 0 -20 5 -20 10 0 6 -7 10 -15 10 -20 0 -85 65 -85 85 0 8 -9 15 -20
15 -11 0 -20 5 -20 10 0 6 -7 10 -15 10 -8 0 -15 4 -15 9 0 5 -11 23 -25 39
-24 29 -24 30 -5 47 16 14 22 15 35 5 18 -15 45 -6 45 16 0 18 11 12 57 -33z
m2083 7 c3 -4 27 -10 54 -14 54 -8 96 -25 96 -38 0 -4 27 -8 60 -8 37 0 60 -4
60 -11 0 -8 24 -10 75 -7 59 3 75 0 75 -11 0 -10 11 -12 48 -9 33 3 52 0 61
-10 8 -8 25 -12 42 -10 21 3 29 0 29 -10 0 -11 8 -13 30 -8 27 5 30 3 30 -20
0 -26 0 -26 75 -22 58 3 75 0 75 -10 0 -10 10 -12 40 -7 22 4 40 3 40 -2 0
-16 67 -42 136 -53 64 -10 261 -70 296 -90 10 -6 27 -10 37 -10 33 0 71 -22
71 -42 0 -10 5 -18 10 -18 6 0 10 -9 10 -20 0 -16 7 -20 30 -20 17 0 30 5 30
10 0 6 9 10 20 10 11 0 20 -4 20 -10 0 -5 9 -10 20 -10 11 0 20 -5 20 -11 0
-6 9 -9 20 -6 11 3 20 1 20 -5 0 -13 26 -38 39 -38 6 0 11 -4 11 -10 0 -5 14
-25 30 -43 17 -19 30 -42 30 -50 0 -9 9 -19 20 -22 11 -3 20 -15 20 -25 0 -11
10 -22 23 -26 28 -9 77 -59 77 -79 0 -8 4 -15 10 -15 5 0 14 -19 20 -42 6 -24
17 -58 26 -77 9 -19 18 -65 21 -103 4 -48 10 -68 19 -68 8 0 14 -10 14 -22 0
-12 5 -38 11 -57 6 -20 14 -48 19 -63 6 -19 4 -31 -6 -39 -11 -9 -17 -5 -31
22 -10 18 -72 87 -138 153 -66 67 -133 139 -149 161 -17 22 -33 42 -36 45 -6
5 -25 67 -35 112 -3 15 -12 33 -20 42 -8 8 -15 26 -15 40 0 22 -4 26 -30 26
-29 0 -30 -2 -30 -45 0 -25 5 -45 10 -45 6 0 10 -13 10 -30 0 -16 5 -30 10
-30 6 0 10 -13 10 -28 0 -16 8 -34 20 -42 12 -8 20 -26 20 -42 0 -17 7 -31 20
-38 23 -12 60 -80 60 -110 0 -11 11 -43 25 -70 20 -39 25 -64 25 -120 0 -40 4
-70 10 -70 6 0 10 -30 10 -70 0 -40 4 -70 10 -70 6 0 10 -10 10 -22 0 -23 16
-81 31 -110 5 -10 9 -27 9 -38 0 -11 5 -20 10 -20 6 0 10 -13 10 -30 0 -16 5
-30 10 -30 6 0 10 -16 10 -35 0 -32 -2 -35 -30 -35 -16 0 -30 5 -30 10 0 6 -9
10 -20 10 -11 0 -20 5 -20 10 0 6 -9 10 -19 10 -27 0 -100 41 -106 59 -10 33
-109 122 -155 141 -17 7 -30 16 -30 21 0 5 -7 9 -16 9 -18 0 -44 23 -44 39 0
6 5 11 10 11 6 0 10 14 10 30 0 17 5 30 10 30 6 0 10 20 10 45 0 43 -1 45 -29
45 -34 0 -41 14 -41 81 0 37 -4 49 -15 49 -13 0 -15 25 -15 165 0 111 -4 165
-11 165 -7 0 -8 11 -4 30 4 18 2 30 -3 30 -6 0 -8 8 -5 19 2 10 -3 25 -11 34
-9 8 -16 31 -16 51 0 37 -27 66 -62 66 -11 0 -18 7 -18 19 0 11 -12 23 -30 31
-24 10 -30 19 -30 41 0 26 -3 29 -34 29 -26 0 -36 5 -41 20 -3 11 -11 20 -16
20 -19 0 -79 80 -79 105 0 8 -7 15 -15 15 -9 0 -38 11 -65 25 -27 14 -56 25
-65 25 -8 0 -15 5 -15 10 0 6 -18 10 -39 10 -22 0 -43 -4 -46 -10 -3 -5 -19
-10 -36 -10 -19 0 -29 -5 -29 -15 0 -8 -4 -15 -10 -15 -5 0 -10 -8 -10 -18 0
-10 -9 -24 -20 -32 -14 -10 -20 -26 -20 -52 0 -21 -4 -38 -10 -38 -6 0 -10
-27 -10 -61 0 -62 0 -62 -46 -55 -65 9 -110 33 -124 67 -7 16 -19 29 -26 29
-8 0 -14 5 -14 10 0 6 -9 10 -20 10 -11 0 -20 5 -20 10 0 6 -9 10 -20 10 -11
0 -20 7 -20 15 0 24 -42 61 -108 94 -45 22 -67 42 -90 78 -18 26 -36 53 -41
59 -15 18 -51 92 -51 105 0 6 -8 19 -17 28 -21 19 -43 56 -43 71 0 11 51 2 60
-10z m-1960 -30 c0 -5 9 -10 20 -10 16 0 20 -7 20 -30 0 -22 5 -30 18 -30 10
0 24 -10 32 -22 8 -11 48 -54 88 -95 40 -40 70 -78 67 -83 -3 -6 -39 -10 -79
-10 -72 0 -74 0 -79 28 -3 15 -15 38 -26 52 -11 14 -24 30 -29 35 -5 6 -12 23
-15 37 -4 15 -14 33 -22 42 -8 8 -15 22 -15 30 0 9 -4 16 -10 16 -5 0 -10 11
-10 25 0 18 5 25 20 25 11 0 20 -4 20 -10z m1194 -153 c34 -34 40 -45 30 -55
-20 -18 -84 -16 -84 4 0 8 -18 33 -41 55 -41 39 -41 39 5 39 41 0 51 -5 90
-43z m-924 -137 c0 -5 -5 -10 -11 -10 -5 0 -7 5 -4 10 3 6 8 10 11 10 2 0 4
-4 4 -10z m2440 -20 c0 -5 20 -10 44 -10 25 0 48 -4 51 -10 3 -5 13 -10 21
-10 17 0 124 -106 124 -122 0 -11 25 -38 37 -38 16 -1 93 -78 93 -94 0 -9 5
-16 10 -16 6 0 10 -8 10 -18 0 -10 9 -24 20 -32 11 -8 20 -26 20 -40 0 -14 9
-32 20 -40 11 -8 20 -22 20 -32 0 -10 5 -18 10 -18 6 0 10 -13 10 -30 0 -16 5
-30 10 -30 6 0 10 -48 10 -125 0 -77 4 -125 10 -125 6 0 10 -47 10 -120 0
-102 -2 -120 -16 -120 -20 0 -44 24 -44 44 0 9 -4 16 -10 16 -5 0 -10 7 -10
15 0 8 -4 15 -10 15 -5 0 -10 9 -10 20 0 11 -7 20 -15 20 -25 0 -105 43 -105
57 0 8 -16 29 -35 49 -19 19 -35 39 -35 44 0 6 -7 10 -15 10 -16 0 -105 83
-105 99 0 5 -13 14 -30 21 -18 8 -30 20 -30 31 0 12 -7 19 -18 19 -10 0 -24 9
-32 20 -8 11 -22 20 -32 20 -10 0 -18 5 -18 10 0 6 -9 10 -20 10 -11 0 -20 -5
-20 -11 0 -6 -7 -4 -15 5 -8 8 -15 17 -15 21 0 16 32 35 59 35 24 0 31 -4 31
-20 0 -15 7 -20 28 -20 16 0 34 -8 42 -20 8 -11 22 -20 32 -20 11 0 18 -7 18
-20 0 -12 7 -20 18 -20 9 0 34 -16 55 -36 39 -37 69 -41 75 -11 2 12 -13 35
-42 62 -38 36 -46 49 -46 79 0 29 -4 36 -20 36 -13 0 -20 7 -20 20 0 13 -7 20
-20 20 -11 0 -20 -4 -20 -10 0 -5 -13 -10 -30 -10 -16 0 -30 5 -30 10 0 6 -8
10 -17 10 -10 0 -26 14 -35 30 -10 18 -25 30 -38 30 -17 0 -20 7 -22 48 -7
156 30 312 74 312 10 0 18 -4 18 -10z m-1000 -40 c0 -5 5 -10 10 -10 6 0 21
-10 34 -23 18 -18 20 -25 10 -35 -22 -21 -61 -15 -67 11 -3 12 -9 32 -12 45
-6 16 -3 22 9 22 9 0 16 -4 16 -10z m-1380 -25 c0 -8 -4 -15 -10 -15 -5 0 -10
-20 -10 -45 0 -36 -6 -52 -25 -71 -25 -25 -25 -25 -60 10 -28 29 -35 43 -35
76 0 40 0 40 60 40 33 0 60 4 60 10 0 6 5 10 10 10 6 0 10 -7 10 -15z m2195
-253 c17 -12 43 -66 38 -79 -10 -29 -63 -2 -63 31 0 9 -4 16 -10 16 -14 0 -12
27 3 33 17 8 21 8 32 -1z m1306 -534 c32 -34 62 -71 65 -82 4 -11 12 -25 18
-32 38 -39 56 -67 56 -85 0 -22 16 -56 36 -76 7 -7 16 -45 20 -83 4 -39 11
-73 15 -76 5 -3 9 -41 9 -85 0 -46 4 -79 10 -79 6 0 10 -33 10 -80 0 -44 -2
-80 -5 -80 -19 0 -55 28 -83 65 -36 47 -46 91 -56 235 -3 41 -10 107 -15 145
-6 39 -13 92 -16 119 -6 52 -63 139 -97 151 -10 4 -18 13 -18 21 0 8 -4 14
-10 14 -5 0 -10 9 -10 19 0 11 -4 23 -10 26 -15 10 -12 25 6 25 9 0 42 -28 75
-62z m-33 -127 c12 -10 20 -20 17 -22 -2 -3 2 -27 10 -54 8 -26 15 -74 15
-107 0 -32 4 -58 10 -58 6 0 10 -13 10 -29 0 -17 5 -33 10 -36 17 -10 12 -55
-6 -55 -31 0 -44 27 -44 89 0 34 -4 61 -10 61 -5 0 -10 12 -10 26 0 37 -21
114 -31 114 -5 0 -9 20 -9 45 0 50 6 54 38 26z m-1170 -218 c36 -36 43 -48 71
-117 13 -33 6 -66 -15 -66 -8 0 -14 5 -14 10 0 6 -5 10 -11 10 -19 0 -39 28
-39 54 0 14 -4 26 -9 26 -5 0 -11 10 -13 23 -2 15 -9 21 -20 19 -15 -2 -18 5
-18 38 0 52 17 52 68 3z m805 -68 c31 -16 57 -35 57 -42 0 -16 105 -123 120
-123 5 0 10 -4 10 -10 0 -5 6 -10 13 -10 8 0 40 -13 73 -28 32 -16 72 -32 88
-36 22 -5 26 -10 17 -19 -7 -7 -11 -50 -11 -114 0 -96 -1 -103 -20 -103 -11 0
-20 -4 -20 -10 0 -5 -9 -10 -20 -10 -11 0 -20 5 -20 10 0 6 -8 10 -18 10 -10
0 -24 9 -32 20 -8 11 -22 20 -32 20 -10 0 -18 5 -18 10 0 6 -6 10 -13 10 -7 0
-19 9 -27 20 -8 11 -25 20 -38 20 -42 0 -52 22 -52 109 0 81 0 81 -30 81 -26
0 -30 4 -30 26 0 16 -12 37 -30 54 -23 21 -30 37 -30 64 0 25 -4 36 -15 36
-10 0 -15 10 -15 30 0 33 -3 34 93 -15z m546 -375 c15 0 33 -9 41 -20 8 -11
22 -20 32 -20 16 0 18 -11 18 -101 0 -86 -2 -100 -15 -95 -28 10 -45 -5 -45
-40 0 -19 5 -34 10 -34 16 0 11 -38 -10 -80 -11 -22 -20 -46 -20 -55 0 -8 -4
-15 -10 -15 -5 0 -10 -7 -10 -16 0 -8 -6 -22 -12 -29 -7 -8 -24 -30 -38 -49
-27 -39 -61 -47 -87 -21 -18 18 -14 81 11 165 9 30 16 87 16 127 0 39 5 75 10
78 6 3 10 19 10 36 0 16 5 29 10 29 6 0 10 14 10 32 0 17 4 45 10 62 5 17 12
45 16 61 6 29 6 30 17 8 7 -15 19 -23 36 -23z m-469 -70 c0 -5 7 -10 15 -10 8
0 15 -4 15 -10 0 -5 11 -10 25 -10 14 0 25 -4 25 -10 0 -5 7 -10 15 -10 8 0
15 -4 15 -10 0 -5 6 -10 14 -10 7 0 19 -7 27 -16 7 -8 35 -27 63 -41 27 -14
56 -31 63 -38 19 -20 18 -152 -2 -171 -13 -14 -17 -14 -30 0 -8 8 -15 22 -15
30 0 9 -8 16 -20 16 -15 0 -20 7 -20 26 0 19 -18 44 -65 90 -36 35 -65 71 -65
79 0 9 -9 15 -26 15 -32 0 -54 21 -54 53 0 14 -6 28 -12 30 -7 3 -3 6 10 6 12
1 22 -3 22 -9z m-40 -220 c0 -6 11 -8 25 -4 30 7 83 -15 91 -38 3 -10 9 -18
13 -18 5 0 14 -13 21 -30 7 -16 18 -30 26 -30 7 0 16 -9 19 -20 3 -11 11 -20
16 -20 16 0 59 -48 59 -65 0 -8 5 -15 10 -15 6 0 10 -6 10 -14 0 -8 -14 -15
-36 -18 -31 -4 -40 1 -75 39 -21 23 -39 52 -39 63 0 11 -7 20 -15 20 -8 0 -15
4 -15 9 0 16 -98 111 -114 111 -9 0 -16 9 -16 20 0 11 5 20 10 20 6 0 10 -5
10 -10z m66 -214 c8 -8 14 -21 14 -30 0 -8 9 -18 20 -21 11 -3 20 -15 20 -26
0 -10 5 -19 10 -19 6 0 10 -9 10 -20 0 -11 -4 -20 -10 -20 -5 0 -10 -7 -10
-15 0 -12 -14 -15 -70 -15 -70 0 -70 0 -70 74 0 50 -4 76 -12 79 -10 4 -9 8 2
16 22 15 79 13 96 -3z m514 -40 c-1 -15 -48 -48 -54 -37 -11 17 17 58 36 53
10 -2 18 -9 18 -16z m-950 -126 c0 -25 -27 -26 -49 -2 -9 10 -24 21 -33 25
-21 7 -23 29 -7 59 11 20 13 19 50 -21 21 -22 39 -50 39 -61z m924 -26 c3 -9
6 -29 6 -45 0 -27 -3 -29 -38 -29 -34 0 -38 3 -48 35 -11 34 -10 35 17 35 15
0 31 5 34 10 9 15 22 12 29 -6z m-4 -203 c0 -47 -13 -81 -31 -81 -14 0 -19 7
-19 30 0 35 19 70 37 70 7 0 13 -8 13 -19z m104 -464 c30 -30 13 -47 -49 -47
-50 0 -55 10 -22 45 28 30 42 31 71 2z m188 -115 c7 -11 24 -25 38 -32 13 -7
30 -18 37 -24 47 -42 74 -56 107 -56 15 0 31 -8 38 -20 9 -13 24 -20 45 -20
18 0 33 -4 33 -10 0 -5 7 -10 16 -10 9 0 29 -13 44 -30 15 -16 35 -30 44 -30
12 0 16 -10 16 -39 0 -31 4 -41 20 -46 13 -4 20 -15 20 -30 0 -15 7 -26 20
-30 29 -9 25 -43 -10 -75 -30 -28 -30 -29 -30 -134 0 -58 -4 -106 -8 -106 -14
0 -52 36 -52 49 0 6 -8 11 -17 11 -11 0 -26 16 -37 40 -11 22 -25 40 -33 40
-7 0 -13 11 -13 24 0 40 -11 56 -37 56 -28 0 -53 21 -53 44 0 9 -4 16 -10 16
-5 0 -10 9 -10 19 0 11 -9 23 -20 26 -14 4 -20 15 -20 36 0 19 -5 29 -15 29
-18 0 -65 44 -65 60 0 15 -25 40 -40 40 -34 0 -43 35 -41 163 1 59 10 70 33
39z m558 -222 c0 -5 9 -10 20 -10 13 0 20 -7 20 -20 0 -11 16 -36 35 -56 19
-19 35 -42 35 -49 0 -17 39 -45 62 -45 11 0 18 -8 18 -20 0 -13 7 -20 20 -20
11 0 20 -4 20 -10 0 -5 13 -10 28 -10 24 0 32 -7 47 -40 10 -22 23 -40 30 -40
10 0 125 -233 125 -253 0 -5 14 -22 30 -37 18 -17 30 -38 30 -54 0 -14 5 -26
10 -26 6 0 10 -9 10 -20 0 -13 7 -20 20 -20 12 0 20 -7 20 -17 0 -10 9 -29 20
-43 11 -14 20 -34 20 -45 0 -11 7 -31 14 -44 14 -26 10 -83 -5 -59 -7 11 -11
10 -19 -2 -8 -12 -10 -12 -10 5 0 11 -9 27 -20 35 -11 8 -20 22 -20 32 0 10
-4 18 -10 18 -5 0 -10 11 -10 25 0 14 -4 25 -10 25 -5 0 -10 14 -10 30 0 17
-4 30 -10 30 -5 0 -10 8 -10 18 0 10 -9 24 -20 32 -11 8 -20 20 -20 28 0 7 -6
20 -12 27 -29 32 -37 44 -56 81 -11 21 -29 48 -41 58 -12 11 -21 29 -21 42 0
27 -31 84 -45 84 -6 0 -17 9 -25 20 -8 11 -20 20 -28 20 -16 0 -42 24 -42 40
0 14 -66 80 -80 80 -16 0 -40 26 -40 42 0 7 -17 34 -37 60 -73 90 -73 89 -60
104 14 16 27 18 27 4z m-606 -50 c4 0 17 -10 29 -22 17 -18 22 -35 23 -80 1
-57 0 -58 -28 -58 -29 0 -33 -6 -22 -34 4 -10 18 -16 36 -16 34 0 57 -23 58
-57 0 -13 5 -23 10 -23 6 0 10 -9 10 -20 0 -11 5 -20 10 -20 6 0 10 -16 10
-35 0 -19 5 -35 10 -35 6 0 10 -16 10 -36 0 -35 0 -35 -52 -32 -45 3 -54 7
-69 33 -10 17 -18 37 -18 46 -1 18 -25 105 -43 154 -6 17 -10 45 -9 63 1 25
-3 32 -18 32 -15 0 -19 10 -23 56 -3 31 -3 67 0 80 5 26 41 37 58 17 6 -7 14
-13 18 -13z m-154 -87 c0 -47 26 -118 44 -121 9 -2 16 -12 16 -23 0 -10 5 -19
10 -19 6 0 10 -9 10 -20 0 -11 3 -20 8 -20 9 0 32 -72 32 -104 0 -20 -6 -24
-40 -30 -31 -5 -40 -11 -40 -26 0 -13 -7 -20 -20 -20 -11 0 -20 5 -20 10 0 6
-7 10 -16 10 -20 0 -44 24 -44 45 0 21 -24 45 -44 45 -9 0 -16 7 -16 15 0 8 5
15 10 15 6 0 10 30 10 70 0 40 4 70 10 70 6 0 10 -4 10 -10 0 -5 9 -10 20 -10
16 0 20 7 20 30 0 17 5 30 10 30 6 0 10 20 10 45 0 25 5 45 10 45 6 0 10 -12
10 -27z m770 -133 c0 -5 7 -10 15 -10 8 0 15 -4 15 -9 0 -16 58 -71 74 -71 9
0 16 -7 16 -16 0 -9 14 -29 30 -44 17 -15 30 -33 30 -39 0 -6 5 -11 10 -11 6
0 10 -9 10 -20 0 -11 5 -20 10 -20 6 0 10 -13 10 -28 0 -16 8 -34 20 -42 11
-8 20 -25 20 -38 0 -12 15 -38 33 -57 85 -89 124 -175 78 -175 -26 0 -66 22
-105 58 -18 16 -44 35 -57 42 -13 7 -40 30 -61 52 -20 21 -44 38 -52 38 -9 0
-16 5 -16 10 0 6 -6 10 -13 10 -7 0 -19 9 -27 20 -15 21 -40 27 -40 9 0 -6 -7
-4 -15 5 -8 8 -15 20 -15 26 0 7 -13 24 -28 38 -28 27 -28 27 -19 132 10 121
21 150 54 150 13 0 23 -4 23 -10z m-460 -295 c0 -10 -10 -15 -30 -15 -26 0
-29 2 -18 15 17 19 48 19 48 0z m-124 -30 c3 -13 7 -38 8 -56 1 -17 10 -35 19
-41 23 -12 21 -28 -3 -28 -11 0 -20 -7 -20 -15 0 -26 -31 -4 -37 26 -3 16 -11
29 -19 29 -7 0 -16 9 -19 20 -4 11 -17 32 -31 45 -37 37 -30 45 36 45 55 0 60
-2 66 -25z m264 -45 c0 -5 9 -10 20 -10 12 0 32 -11 45 -25 21 -20 25 -34 25
-80 0 -40 4 -55 14 -55 14 0 26 -21 26 -46 0 -8 -9 -14 -20 -14 -11 0 -20 -7
-20 -15 0 -8 7 -15 16 -15 9 0 29 -13 44 -30 15 -16 33 -30 40 -30 16 0 40
-26 40 -44 0 -9 8 -16 20 -16 11 0 20 -4 20 -10 0 -5 7 -10 15 -10 8 0 15 -1
15 -2 31 -215 26 -387 -11 -440 -13 -17 -19 -43 -19 -77 0 -28 -4 -51 -10 -51
-5 0 -10 -13 -10 -30 0 -16 -4 -30 -10 -30 -5 0 -10 -20 -10 -45 0 -39 -3 -45
-24 -51 -19 -4 -32 1 -50 20 -15 14 -26 27 -26 30 0 6 -22 34 -61 77 -14 15
-32 42 -39 59 -7 16 -17 30 -22 30 -6 0 -7 11 -4 24 3 14 2 27 -4 31 -5 3 -7
12 -4 20 3 7 1 22 -5 33 -6 11 -11 56 -12 101 -1 45 -5 84 -10 87 -5 3 -9 16
-9 30 0 17 -5 24 -20 24 -18 0 -20 -7 -20 -80 0 -72 -2 -80 -19 -80 -12 0 -25
12 -33 30 -7 17 -16 30 -20 30 -5 0 -8 9 -8 20 0 12 -7 20 -16 20 -18 0 -44
23 -44 39 0 6 -13 25 -30 43 -17 17 -30 42 -30 55 0 16 -7 27 -19 30 -11 3
-24 17 -31 32 -6 15 -22 39 -35 54 -14 14 -25 36 -25 47 0 12 -18 39 -40 60
-26 25 -40 47 -40 64 0 14 -4 26 -10 26 -5 0 -10 13 -10 29 0 25 4 29 35 33
19 2 51 2 70 0 30 -4 35 -8 35 -32 0 -15 9 -35 20 -45 11 -10 22 -26 25 -36 4
-11 12 -19 20 -19 8 0 17 -9 20 -20 4 -14 15 -20 36 -20 16 0 29 5 29 10 0 6
5 10 10 10 6 0 10 -9 10 -20 0 -22 35 -29 42 -8 3 7 17 -1 35 -20 16 -18 36
-32 42 -32 32 0 61 -55 61 -113 0 -27 6 -49 14 -57 8 -6 25 -32 37 -56 28 -58
53 -57 57 4 2 23 -1 42 -6 42 -13 0 -32 47 -32 80 0 16 -4 32 -10 35 -5 3 -10
18 -10 33 -1 26 -20 62 -34 62 -13 0 -76 70 -76 85 0 8 -9 15 -20 15 -17 0
-20 7 -20 45 0 25 -4 45 -10 45 -5 0 -10 7 -10 15 0 8 9 15 20 15 11 0 20 -4
20 -10 0 -5 5 -10 10 -10 6 0 10 9 10 20 0 11 5 20 10 20 6 0 10 -4 10 -10 0
-5 5 -10 10 -10 6 0 10 20 10 44 0 38 -3 45 -22 49 -17 3 -14 5 10 6 17 0 32
-3 32 -9z m460 -260 c0 -11 5 -20 10 -20 6 0 10 -8 10 -19 0 -10 9 -21 20 -24
14 -3 20 -14 20 -31 0 -14 5 -26 10 -26 6 0 10 -9 10 -20 0 -11 5 -20 10 -20
6 0 10 -16 10 -35 0 -19 5 -35 10 -35 6 0 10 -13 10 -30 0 -16 5 -30 10 -30 6
0 10 -9 10 -20 0 -11 5 -20 10 -20 6 0 10 -7 10 -15 0 -9 10 -26 23 -39 12
-13 31 -36 42 -52 28 -40 108 -117 139 -133 14 -8 26 -18 26 -23 0 -4 18 -8
40 -8 22 0 40 -4 40 -10 0 -5 11 -10 25 -10 14 0 25 -4 25 -10 0 -5 11 -10 25
-10 14 0 37 -11 50 -25 14 -13 25 -36 25 -50 0 -14 5 -25 10 -25 6 0 10 -18
10 -40 0 -22 5 -40 10 -40 6 0 10 -7 10 -15 0 -8 5 -15 10 -15 6 0 10 -9 10
-20 0 -11 5 -20 10 -20 6 0 10 -16 10 -36 0 -23 7 -43 18 -53 30 -26 42 -56
42 -104 0 -34 5 -48 21 -58 18 -12 21 -25 21 -87 1 -39 5 -72 9 -72 5 0 9 -9
9 -20 0 -14 7 -20 24 -20 25 0 25 -2 42 -110 3 -19 9 -44 14 -55 9 -21 18 -58
27 -112 3 -18 9 -33 14 -33 5 0 9 -9 9 -20 0 -11 5 -20 10 -20 6 0 10 -35 10
-85 0 -85 0 -85 -52 -140 -93 -96 -151 -162 -165 -189 -8 -14 -18 -26 -23 -26
-6 0 -10 -6 -10 -14 0 -14 -21 -26 -46 -26 -20 0 -74 59 -74 81 0 11 -4 19
-10 19 -5 0 -10 9 -10 20 0 11 -7 20 -15 20 -8 0 -15 -6 -15 -12 0 -26 -20 17
-20 45 0 15 -4 27 -10 27 -5 0 -10 16 -10 35 0 36 -18 85 -31 85 -4 0 -10 30
-12 68 -7 89 -17 142 -28 142 -4 0 -13 18 -19 40 -6 22 -15 40 -20 40 -6 0
-10 9 -10 20 0 11 -4 20 -10 20 -6 0 -10 33 -10 80 0 52 -4 80 -11 80 -7 0 -9
12 -5 35 5 27 3 37 -9 41 -8 3 -15 12 -15 19 0 6 -9 20 -20 30 -11 10 -20 24
-20 32 0 7 -9 13 -20 13 -15 0 -20 -7 -20 -25 0 -32 22 -105 32 -105 5 0 8
-18 8 -40 0 -22 5 -40 10 -40 6 0 10 -20 10 -45 0 -25 -3 -45 -7 -45 -10 0
-53 66 -53 80 0 6 -11 22 -25 36 -14 14 -25 34 -25 44 0 11 -4 20 -9 20 -4 0
-11 69 -15 152 -5 86 -14 170 -22 193 -7 22 -14 50 -14 62 0 12 -4 25 -10 28
-5 3 -10 15 -10 26 0 10 -4 19 -10 19 -6 0 -10 28 -10 65 0 65 0 65 30 65 17
0 30 4 30 10 0 16 -23 60 -32 60 -4 0 -8 12 -8 26 0 16 -12 37 -30 54 -16 15
-30 36 -30 47 0 10 -9 25 -20 33 -14 10 -20 26 -20 52 0 21 -4 38 -10 38 -6 0
-10 36 -10 89 0 81 -2 90 -20 96 -18 6 -20 15 -20 111 0 97 1 104 20 104 13 0
20 -7 20 -20z m160 0 c0 -17 7 -20 40 -20 22 0 40 -4 40 -10 0 -5 11 -10 25
-10 14 0 25 -4 25 -10 0 -5 7 -10 16 -10 8 0 22 -7 30 -15 9 -8 11 -15 5 -15
-6 0 -11 -16 -11 -35 0 -28 4 -35 20 -35 13 0 20 -7 20 -18 0 -10 9 -24 20
-32 12 -9 20 -26 20 -45 0 -19 8 -36 20 -45 12 -8 20 -26 20 -42 0 -15 5 -28
10 -28 6 0 10 -8 10 -18 0 -11 11 -32 25 -48 42 -49 35 -64 -34 -64 -33 0 -66
-3 -75 -6 -11 -4 -16 -1 -16 10 0 9 -4 16 -10 16 -5 0 -10 9 -10 20 0 16 -7
20 -30 20 -21 0 -30 5 -30 16 0 9 -8 24 -19 33 -21 19 -81 133 -81 156 0 8
-12 39 -27 67 -15 28 -26 62 -25 75 1 13 -3 23 -8 23 -6 0 -10 9 -10 19 0 11
-4 23 -10 26 -5 3 -10 15 -10 26 0 14 7 19 30 19 23 0 30 -4 30 -20z m766
-585 c35 -35 64 -71 64 -80 0 -8 5 -15 10 -15 6 0 10 -9 10 -20 0 -11 5 -20
10 -20 6 0 10 -18 10 -40 0 -22 5 -40 10 -40 6 0 10 -20 10 -45 0 -25 5 -45
10 -45 6 0 10 -18 10 -40 0 -22 5 -40 10 -40 6 0 10 -13 10 -30 0 -16 4 -30 8
-30 22 0 32 -87 30 -249 -1 -132 -5 -171 -14 -171 -7 0 -18 18 -24 40 -6 24
-17 40 -25 40 -12 0 -15 -15 -15 -65 0 -58 -2 -65 -20 -65 -18 0 -20 7 -20 55
0 30 -4 55 -10 55 -5 0 -10 14 -10 30 0 17 -4 30 -10 30 -5 0 -10 9 -10 20 0
15 -7 20 -28 20 -26 0 -30 4 -41 52 -8 36 -8 54 -1 56 5 2 10 27 10 56 0 40 4
55 20 66 31 22 29 122 -4 157 -15 16 -27 44 -30 72 -7 46 -20 87 -57 169 -10
23 -19 65 -19 92 0 44 3 50 21 50 12 0 47 -26 85 -65z m-1302 -276 c14 -11 26
-26 26 -32 0 -7 13 -23 29 -36 28 -25 28 -25 4 -49 -24 -23 -24 -23 -51 5 -15
16 -44 37 -64 46 -47 22 -51 63 -8 80 26 10 37 7 64 -14z m296 -24 c6 -86 0
-135 -16 -135 -29 0 -44 27 -44 79 0 28 5 51 10 51 6 0 10 6 10 13 0 18 22 39
31 30 4 -5 8 -21 9 -38z m-190 -375 c0 -11 5 -20 10 -20 6 0 10 -9 10 -20 0
-17 7 -20 45 -20 25 0 45 -4 45 -10 0 -5 9 -10 20 -10 11 0 20 -4 20 -10 0 -5
9 -10 20 -10 13 0 20 -7 20 -20 0 -13 7 -20 20 -20 16 0 20 -7 20 -30 0 -23 4
-30 20 -30 17 0 20 -7 20 -43 0 -31 5 -46 20 -57 17 -12 20 -26 20 -87 0 -42
-4 -73 -10 -73 -6 0 -10 -43 -10 -108 0 -96 2 -109 20 -122 18 -13 20 -26 20
-122 0 -65 -4 -108 -10 -108 -5 0 -10 -16 -10 -36 0 -48 -19 -64 -74 -64 -46
0 -46 0 -46 79 0 44 -4 83 -10 86 -5 3 -10 28 -10 56 0 27 -4 49 -8 49 -5 0
-17 18 -27 40 -10 22 -22 40 -27 40 -4 0 -8 8 -8 18 0 10 -9 24 -20 32 -11 8
-20 22 -20 32 0 10 -4 18 -10 18 -5 0 -10 7 -10 15 0 8 -4 15 -10 15 -5 0 -10
7 -10 16 0 8 -22 37 -50 64 -45 44 -50 53 -50 94 0 36 4 46 20 51 15 5 20 15
20 40 0 19 -4 37 -10 40 -5 3 -10 26 -10 51 0 24 5 44 10 44 6 0 10 7 10 15 0
8 -4 15 -10 15 -5 0 -10 7 -10 15 0 8 5 15 10 15 6 0 10 23 10 50 0 43 3 50
20 50 13 0 20 -7 20 -20z m414 -537 c3 -10 11 -31 17 -48 37 -105 46 -375 13
-375 -8 0 -14 -4 -14 -10 0 -5 -4 -10 -10 -10 -6 0 -10 35 -10 86 0 54 -4 83
-10 79 -6 -4 -10 47 -10 144 0 138 7 180 24 134z m416 -445 c11 -18 20 -45 20
-60 0 -24 4 -28 30 -28 27 0 30 -3 30 -30 0 -16 4 -30 8 -30 9 0 32 -102 32
-143 0 -23 4 -27 30 -27 30 0 30 1 30 54 0 54 0 55 23 43 30 -16 48 -35 66
-69 8 -16 18 -28 23 -28 4 0 8 -9 8 -20 0 -11 4 -20 9 -20 11 0 41 -90 41
-124 0 -14 5 -28 10 -31 6 -4 10 -74 10 -176 0 -134 -3 -173 -14 -185 -8 -8
-19 -14 -24 -14 -12 0 -22 -24 -22 -55 0 -13 -7 -30 -15 -39 -8 -8 -15 -26
-15 -40 0 -19 -5 -26 -20 -26 -17 0 -20 -7 -20 -40 0 -22 -4 -40 -9 -40 -6 0
-11 -21 -13 -47 -3 -48 -3 -48 -40 -45 -33 2 -38 0 -38 -18 0 -11 -4 -20 -10
-20 -5 0 -10 23 -10 50 0 28 -4 50 -10 50 -5 0 -10 20 -10 45 0 25 -4 45 -10
45 -5 0 -10 9 -10 20 0 14 -7 20 -22 21 -13 0 -17 3 -10 6 6 2 12 18 12 34 0
16 5 29 10 29 6 0 10 17 10 38 0 26 6 42 20 52 15 11 20 26 20 57 0 24 5 43
10 43 6 0 10 27 10 60 0 33 4 60 10 60 6 0 10 9 10 20 0 11 5 20 10 20 6 0 10
7 10 16 0 8 6 22 14 29 11 11 11 23 -3 74 -14 56 -18 61 -43 61 -28 0 -28 -1
-28 -65 0 -37 -4 -65 -10 -65 -5 0 -10 -18 -10 -40 0 -22 -4 -40 -10 -40 -5 0
-10 -22 -10 -50 0 -27 -4 -50 -10 -50 -5 0 -10 -11 -10 -24 0 -14 -4 -28 -10
-31 -5 -3 -10 -17 -10 -30 0 -13 -5 -27 -11 -30 -6 -4 -14 -16 -18 -27 -7 -19
-9 -19 -41 8 -33 28 -33 28 -27 316 3 172 2 288 -4 288 -5 0 -9 58 -9 130 0
80 4 130 10 130 6 0 10 9 10 20 0 31 28 24 50 -12z m-355 -145 c3 -14 3 -66
-1 -115 -6 -85 -7 -88 -31 -88 -25 0 -25 0 -21 93 4 86 18 137 37 137 5 0 12
-12 16 -27z m-27 -940 c5 -16 15 -66 21 -113 6 -47 16 -86 21 -88 6 -2 10 -29
10 -60 0 -46 4 -60 20 -70 17 -10 20 -23 20 -82 0 -66 14 -120 32 -120 4 0 8
-31 8 -68 0 -56 3 -70 20 -82 16 -12 20 -26 20 -75 0 -49 4 -63 20 -75 17 -12
20 -26 20 -92 0 -71 2 -78 20 -78 18 0 20 -7 20 -54 0 -59 -7 -86 -22 -86 -15
0 -38 27 -38 44 0 19 -16 21 -24 4 -5 -10 -7 -10 -12 0 -3 6 -14 12 -25 12
-27 0 -27 -60 1 -80 11 -8 20 -22 20 -32 0 -11 7 -18 20 -18 11 0 20 5 20 10
0 6 5 10 10 10 6 0 10 -11 10 -25 0 -14 -4 -25 -10 -25 -5 0 -10 -18 -10 -40
0 -22 -4 -40 -10 -40 -5 0 -10 -20 -10 -45 0 -25 -4 -45 -10 -45 -5 0 -10 -20
-10 -45 0 -39 -5 -51 -34 -80 -19 -19 -37 -43 -41 -55 -3 -11 -11 -20 -16 -20
-5 0 -9 -9 -9 -20 0 -13 -7 -20 -20 -20 -16 0 -20 7 -20 38 0 20 5 54 11 76 6
21 7 42 2 45 -10 7 -14 35 -18 131 -2 42 -1 64 4 50 6 -21 8 -22 14 -7 10 25
27 21 27 -8 0 -18 5 -25 20 -25 18 0 20 7 20 75 0 41 -3 75 -7 75 -5 0 -9 91
-11 203 -2 111 -8 204 -13 205 -5 2 -9 12 -9 22 0 11 -9 24 -20 30 -13 7 -20
21 -20 41 0 17 -6 32 -15 35 -9 4 -15 19 -15 40 0 36 -18 84 -32 84 -4 0 -8
14 -8 30 0 17 -4 30 -10 30 -5 0 -10 9 -10 20 0 11 -4 20 -10 20 -6 0 -10 40
-10 100 0 93 1 100 20 100 18 0 20 7 20 74 0 128 10 196 30 196 10 0 22 -12
28 -27z m422 -303 c0 -133 1 -140 20 -140 15 0 20 7 20 24 0 16 7 27 20 31 15
5 20 15 20 41 0 37 0 37 24 28 13 -5 16 -25 16 -120 0 -69 4 -114 10 -114 6 0
10 -7 10 -15 0 -8 -4 -15 -10 -15 -5 0 -10 -13 -10 -30 0 -16 -4 -30 -10 -30
-6 0 -10 -47 -10 -120 0 -73 4 -120 10 -120 6 0 10 -13 10 -30 0 -16 5 -30 10
-30 6 0 10 -33 10 -80 0 -47 -4 -80 -10 -80 -5 0 -10 -7 -10 -15 0 -8 4 -15 9
-15 15 0 23 -84 27 -287 l5 -193 -136 0 c-124 0 -135 -1 -135 -18 0 -16 -7
-18 -57 -15 -95 6 -123 13 -123 28 0 8 5 15 10 15 6 0 10 7 10 16 0 8 17 32
39 53 29 28 40 48 45 82 4 24 10 71 15 104 5 33 18 85 30 115 11 30 21 65 21
77 0 13 5 23 10 23 6 0 10 15 9 33 -4 94 28 229 44 184 7 -20 25 64 26 122 0
30 -3 57 -8 60 -5 4 -14 123 -21 266 -6 143 -16 270 -21 283 -8 21 -6 22 36
22 45 0 45 0 45 -140z m250 21 c0 -69 4 -122 10 -126 6 -3 10 -19 10 -36 0
-16 5 -29 10 -29 6 0 10 -41 10 -102 0 -127 21 -388 32 -388 4 0 8 -15 8 -34
0 -19 5 -38 10 -41 6 -3 10 -22 10 -41 0 -19 5 -34 10 -34 6 0 10 -13 10 -30
0 -16 5 -30 10 -30 6 0 10 -8 10 -17 0 -31 24 -123 32 -123 5 0 8 -25 8 -55 0
-34 4 -55 11 -55 8 0 9 -13 5 -40 -5 -33 -2 -43 19 -64 16 -16 25 -36 25 -56
0 -17 9 -40 20 -52 27 -29 25 -45 -6 -52 -38 -10 -53 16 -54 89 0 49 -4 63
-20 75 -12 8 -20 26 -20 42 0 15 -4 28 -10 28 -5 0 -10 14 -10 30 0 17 -4 30
-9 30 -5 0 -9 6 -8 13 2 57 -4 77 -23 77 -17 0 -20 7 -20 40 0 22 -4 40 -10
40 -5 0 -10 24 -10 54 0 30 -4 57 -9 60 -4 3 -11 26 -14 51 -4 25 -13 55 -21
68 -9 14 -16 63 -19 137 -3 71 -9 116 -16 118 -12 4 -16 402 -5 511 11 101 24
69 24 -58z m-130 64 c0 -8 -4 -15 -10 -15 -5 0 -10 7 -10 15 0 8 5 15 10 15 6
0 10 -7 10 -15z m-660 -855 c0 -11 5 -20 10 -20 6 0 10 -9 10 -20 0 -11 5 -20
10 -20 6 0 10 -9 10 -20 0 -11 9 -25 20 -32 18 -12 20 -24 20 -150 0 -85 -4
-138 -10 -138 -5 0 -10 -13 -10 -30 0 -23 -4 -30 -20 -30 -13 0 -20 7 -20 20
0 11 -4 20 -10 20 -6 0 -10 48 -10 125 0 77 -4 125 -10 125 -5 0 -10 20 -10
45 0 25 5 45 10 45 6 0 10 11 10 25 0 14 -4 25 -10 25 -5 0 -10 11 -10 25 0
14 5 25 10 25 6 0 10 -9 10 -20z m802 -94 c4 -6 8 -28 8 -48 0 -21 5 -38 10
-38 6 0 10 -13 10 -30 0 -16 5 -30 10 -30 6 0 10 -20 10 -45 0 -25 -5 -45 -10
-45 -6 0 -16 -11 -22 -25 -10 -21 -8 -28 10 -44 12 -10 22 -26 22 -35 0 -9 5
-16 10 -16 6 0 10 -13 10 -29 0 -17 5 -33 10 -36 6 -3 10 -15 10 -26 0 -15 -7
-19 -34 -19 -19 0 -38 -4 -41 -10 -3 -5 -17 -10 -31 -10 -22 0 -24 4 -25 53
-1 28 0 64 1 80 1 15 -3 27 -9 27 -15 0 -14 107 0 116 8 4 9 38 4 110 -4 56
-4 107 -1 113 7 11 37 3 48 -13z"/>
</g>
</svg>
