<?xml version="1.0" standalone="no"?>
<!DOCTYPE svg PUBLIC "-//W3C//DTD SVG 20010904//EN"
 "http://www.w3.org/TR/2001/REC-SVG-20010904/DTD/svg10.dtd">
<svg version="1.0" xmlns="http://www.w3.org/2000/svg"
 width="2504.000000pt" height="3130.000000pt" viewBox="0 0 2504.000000 3130.000000"
 preserveAspectRatio="xMidYMid meet">
<metadata>
Created by potrace 1.16, written by Peter Selinger 2001-2019
</metadata>
<g transform="translate(0.000000,3130.000000) scale(0.100000,-0.100000)"
fill="#e2e5eb" stroke="none">
<path d="M12518 18858 c-51 -29 -48 -42 7 -34 74 12 53 -22 -25 -38 -14 -3
-43 -21 -65 -40 -21 -19 -41 -33 -44 -32 -3 2 -48 -44 -100 -103 -235 -267
-385 -576 -496 -1021 -37 -148 -55 -243 -54 -274 0 -12 20 56 44 149 23 94 48
184 55 200 7 17 15 39 17 50 2 11 8 24 14 30 7 7 8 1 3 -20 -7 -27 -6 -29 9
-16 9 7 14 17 11 22 -3 5 2 9 10 9 9 0 21 9 28 20 7 11 19 20 26 20 7 0 10 5
7 10 -8 13 4 50 16 50 16 0 37 25 44 53 4 16 19 31 36 39 16 7 33 24 38 38 9
25 9 25 10 -1 1 -15 -10 -52 -24 -83 -14 -31 -20 -56 -15 -56 6 0 14 8 18 18
4 9 28 49 55 88 26 39 47 74 47 78 0 9 26 36 34 36 15 0 3 -54 -25 -117 -111
-245 -215 -561 -259 -787 -10 -48 -19 -65 -54 -100 -24 -22 -46 -49 -49 -58
-7 -20 1 -50 12 -45 3 2 51 -1 105 -7 l99 -11 -85 -57 c-85 -56 -85 -56 -91
-110 -21 -179 -35 -1327 -17 -1386 7 -24 9 -22 10 18 1 25 2 51 1 58 -1 6 4
12 11 12 9 0 9 3 -2 11 -12 8 -9 9 11 5 24 -5 26 -3 23 24 -2 17 1 30 6 30 6
0 10 -4 10 -10 0 -12 43 -14 54 -2 4 4 11 7 14 8 9 1 41 13 67 25 56 25 117
37 148 28 40 -11 37 -12 37 6 0 8 5 15 11 15 7 0 9 -9 6 -21 -6 -20 -3 -21 51
-15 124 14 338 18 392 7 30 -6 87 -17 126 -25 86 -17 148 -42 139 -55 -7 -12
58 -42 98 -46 21 -1 41 -17 73 -56 59 -72 74 -107 74 -169 0 -28 4 -81 10
-118 5 -37 14 -161 20 -277 6 -115 14 -221 17 -235 6 -21 7 -22 13 -5 7 20 29
-196 32 -315 2 -73 -13 -706 -17 -745 -1 -11 -3 -47 -4 -80 -1 -43 -4 -56 -11
-45 -7 11 -9 1 -6 -33 2 -26 -1 -50 -5 -53 -16 -9 -11 -101 6 -108 23 -9 22
-234 -1 -243 -10 -4 -22 1 -29 10 -7 10 -23 17 -36 17 -24 -1 -24 -1 4 -23 17
-15 27 -32 27 -50 0 -15 7 -30 15 -33 13 -5 15 -35 15 -184 0 -149 2 -179 15
-184 21 -8 19 -29 -3 -24 -11 3 -32 -9 -56 -32 -22 -21 -61 -51 -87 -66 -35
-21 -47 -34 -43 -46 7 -22 -13 -32 -24 -12 -8 14 -21 14 -143 -7 -226 -39
-643 -31 -825 16 -72 19 -169 85 -124 85 6 0 10 5 10 10 0 6 -15 9 -34 7 -27
-3 -41 2 -65 24 -28 25 -31 34 -32 86 0 32 -4 67 -9 78 -5 11 -9 17 -9 14 -1
-11 -85 11 -93 24 -4 7 -8 -16 -8 -50 0 -60 1 -63 54 -125 55 -65 107 -111
187 -166 25 -17 46 -37 46 -44 3 -50 14 -141 18 -148 3 -5 22 -12 43 -16 68
-12 71 -25 4 -21 -49 3 -62 0 -57 -10 3 -7 8 -20 12 -30 4 -10 3 -14 -5 -9 -7
4 -9 -3 -7 -21 2 -16 4 -33 4 -39 1 -10 138 -54 169 -54 8 0 12 25 12 80 0
103 17 105 19 3 2 -71 9 -92 33 -93 8 0 3 35 -8 52 -5 8 -2 9 9 5 10 -3 17 -2
17 3 0 14 34 12 48 -2 12 -12 37 -15 161 -17 37 -1 42 -3 31 -16 -7 -8 -8 -15
-2 -15 5 0 15 7 23 16 8 10 22 14 40 10 19 -4 29 0 33 11 5 12 16 14 46 10 22
-3 40 -1 40 4 0 5 7 9 15 9 8 0 15 4 15 8 0 5 23 19 51 32 27 13 54 30 58 37
4 7 45 20 91 28 82 13 166 34 203 50 12 5 17 3 17 -8 0 -19 -57 -42 -147 -57
-73 -12 -73 -12 -73 -64 0 -48 -3 -53 -32 -71 -34 -20 -24 -34 11 -15 19 10
21 8 21 -16 0 -17 -6 -28 -20 -31 -11 -3 -20 -12 -20 -19 0 -18 -10 -18 -24 0
-9 11 -29 11 -131 -1 -66 -7 -146 -12 -177 -9 -42 3 -60 0 -69 -10 -7 -8 -10
-16 -8 -19 4 -4 248 -8 376 -6 70 1 72 2 75 27 3 23 10 29 58 41 30 8 72 16
93 18 38 4 38 4 35 -93 -3 -89 -5 -97 -23 -98 -11 0 -49 -9 -84 -19 -63 -19
-63 -19 -57 -89 9 -93 14 -108 34 -102 9 2 37 8 61 11 37 6 43 5 38 -8 -3 -8
-11 -33 -18 -56 -7 -23 -17 -45 -23 -49 -13 -10 -175 -32 -232 -32 -39 0 -39
0 -37 78 2 42 1 93 -3 112 -5 33 -7 34 -20 15 -11 -14 -14 -58 -14 -187 l0
-169 -72 3 c-73 3 -73 3 -72 38 1 19 2 40 3 45 0 6 18 12 39 13 80 5 98 26 30
35 -24 3 -101 6 -173 7 -123 1 -381 22 -390 32 -14 14 -61 240 -67 318 -3 37
-13 51 -33 44 -23 -9 35 -344 68 -388 15 -20 197 -43 357 -45 63 -1 119 -6
123 -10 5 -5 7 -25 5 -46 -3 -37 -3 -38 -48 -38 -83 -1 -324 14 -365 23 -83
18 -115 19 -115 5 0 -8 -8 -18 -17 -24 -14 -8 -11 -10 17 -15 19 -3 76 -13
125 -21 124 -22 495 -31 670 -16 175 15 352 43 451 72 18 6 36 9 40 8 17 -3
74 14 83 25 27 34 71 329 71 482 0 47 6 96 14 116 13 31 19 70 45 308 5 47 13
214 17 373 7 287 7 287 -25 287 -30 0 -31 -1 -31 -49 0 -40 3 -50 20 -54 18
-5 20 -14 20 -80 0 -67 -2 -76 -20 -82 -16 -5 -20 -16 -21 -53 -2 -69 1 -120
12 -181 8 -49 7 -58 -16 -98 -31 -52 -45 -55 -45 -9 0 36 14 56 23 34 4 -10 8
-9 16 2 15 22 13 40 -4 40 -8 0 -15 4 -15 9 0 5 -13 16 -30 25 -29 14 -30 14
-30 -9 0 -13 5 -36 12 -52 15 -37 17 -72 18 -223 0 -138 -8 -227 -21 -236 -5
-3 -9 0 -9 5 0 6 -4 11 -9 11 -5 0 -12 -18 -16 -40 -7 -39 -7 -39 -73 -43 -67
-3 -67 -3 10 -5 77 -2 77 -2 80 26 3 23 8 27 33 27 30 0 30 0 27 -75 -3 -84
-23 -217 -50 -330 -19 -83 -5 -75 -234 -125 -107 -23 -380 -57 -388 -48 -5 4
-5 26 -1 48 5 35 10 40 36 42 17 2 81 10 144 19 113 16 113 16 127 50 8 19 20
57 26 83 11 50 11 50 60 56 48 7 48 7 43 143 -2 76 -11 200 -20 277 -21 199
-21 220 11 242 23 16 93 86 173 172 28 30 31 41 31 95 0 34 5 95 11 136 14 95
13 631 -1 911 -11 238 -29 544 -35 601 -13 134 -17 400 -20 1313 -4 1264 -7
1326 -65 1392 -17 18 -30 30 -30 26 0 -17 -31 36 -40 70 -6 21 -15 35 -20 32
-4 -3 -11 8 -15 25 -6 30 -8 30 -71 30 -59 0 -65 -2 -76 -25 -14 -32 5 -72 46
-94 62 -35 71 -46 59 -74 -8 -17 -9 -29 -3 -32 6 -4 10 -11 10 -16 0 -6 -4 -7
-10 -4 -12 8 -13 -5 0 -25 6 -9 5 -17 -3 -22 -8 -5 -5 -14 11 -31 12 -13 20
-26 16 -29 -3 -3 -26 17 -52 46 -26 28 -50 53 -54 54 -5 2 -8 10 -8 18 0 8 -8
14 -17 14 -26 0 -195 -29 -200 -34 -2 -2 8 -7 23 -10 39 -10 26 -15 -67 -27
-148 -17 -440 -12 -594 11 -75 11 -139 20 -141 20 -7 0 -5 46 2 53 4 3 14 3
23 -2 22 -11 119 -24 106 -14 -14 12 -17 33 -4 33 7 0 9 11 6 26 -3 20 0 28
14 31 26 7 24 19 -3 27 -47 13 6 26 104 26 84 0 97 -2 101 -17 4 -17 5 -17 6
0 1 12 10 17 34 18 17 1 70 2 117 4 47 2 104 8 126 14 22 6 73 12 113 13 40 1
74 6 77 10 3 4 15 8 27 8 20 1 20 2 5 11 -10 5 -24 9 -30 8 -7 -1 -44 1 -83 5
-71 7 -123 26 -160 58 -17 14 -30 15 -90 8 -168 -21 -496 -27 -585 -11 -12 3
26 27 72 47 29 12 53 28 54 36 0 7 2 29 3 48 3 35 3 35 12 3 13 -46 29 -50 27
-8 -1 19 -5 35 -10 35 -4 0 -8 5 -8 11 0 5 5 7 10 4 6 -4 10 7 10 25 0 17 5
40 10 50 7 13 7 37 2 67 -8 48 -8 48 -21 -27 -14 -86 -21 -113 -27 -108 -2 3
3 42 11 89 8 46 15 100 15 119 0 19 11 82 25 140 13 58 32 145 42 194 10 54
24 97 35 108 10 10 18 25 18 33 0 8 5 15 10 15 15 0 12 -48 -3 -57 -14 -9 -37
-57 -37 -78 0 -8 7 -15 15 -15 8 0 15 -4 15 -10 0 -5 -6 -7 -13 -5 -9 4 -11
-7 -8 -42 3 -47 3 -47 27 26 13 41 24 87 24 103 0 33 17 42 94 52 27 4 52 9
56 11 3 2 12 -1 20 -6 9 -7 11 -12 4 -15 -6 -3 -9 -49 -8 -131 2 -96 7 -134
21 -162 17 -36 17 -36 23 -1 6 35 6 35 14 5 9 -30 9 -30 16 0 7 30 7 30 18 3
15 -37 29 -35 34 2 3 21 0 34 -10 39 -10 6 -15 22 -14 45 1 20 -3 36 -8 36 -6
0 -10 -14 -10 -32 0 -42 -6 -33 -14 22 -4 31 -3 40 4 30 8 -13 10 -12 10 4 0
12 5 16 15 12 9 -3 15 0 15 9 0 8 5 15 10 15 6 0 10 11 10 25 0 28 -39 73 -49
58 -3 -6 -19 2 -35 18 -29 28 -29 28 45 24 41 -2 76 -4 79 -5 3 -1 25 -1 50 0
55 2 100 -14 100 -35 0 -10 10 -15 31 -15 30 0 69 -30 69 -52 0 -5 4 -7 9 -4
14 9 11 93 -3 106 -8 5 -63 18 -124 27 -107 17 -111 18 -106 40 5 18 1 25 -17
32 -14 5 -25 5 -27 0 -7 -18 -18 -8 -31 26 -10 28 -17 35 -39 34 -26 0 -26 -1
-4 -9 28 -12 28 -25 0 -44 -28 -20 -39 -20 -32 -2 4 11 0 13 -16 9 -13 -3 -19
-11 -16 -19 3 -8 1 -14 -4 -14 -5 0 -7 -7 -3 -15 5 -14 7 -14 23 0 21 19 37
19 56 1 14 -15 21 -13 -140 -32 -34 -5 -47 -3 -42 5 4 6 16 11 26 11 13 0 17
5 14 15 -4 9 0 15 9 15 17 0 32 66 25 111 -3 21 2 25 32 29 19 3 55 2 80 -1
25 -4 66 -5 93 -3 32 2 47 0 47 -9 0 -9 2 -9 8 1 7 10 14 10 38 -3 33 -17 131
-22 101 -4 -9 5 -36 13 -59 17 -37 7 -44 12 -73 65 -18 33 -38 84 -45 115 -12
57 -34 101 -46 90 -3 -4 1 -17 9 -30 9 -12 18 -44 22 -69 8 -54 -12 -85 -49
-73 -11 4 -29 7 -38 6 -9 0 -22 6 -29 14 -6 8 -24 14 -40 14 -38 0 -46 18 -12
26 15 3 34 7 41 10 18 5 15 45 -8 82 -11 18 -20 40 -20 50 1 16 1 16 14 0 7
-10 16 -18 20 -18 15 0 3 37 -19 58 -13 13 -21 30 -18 37 3 8 -2 18 -11 21
-14 5 -14 9 -4 22 11 13 10 15 -4 9 -12 -4 -18 -1 -18 9 0 8 5 12 10 9 6 -4
10 6 10 22 0 20 3 24 9 14 5 -7 14 -10 20 -7 17 11 13 26 -7 26 -24 0 -25 34
-3 54 20 18 34 9 44 -29 3 -11 5 3 5 30 0 91 -4 85 55 78 28 -3 67 -14 85 -24
19 -11 38 -17 43 -14 5 4 9 -1 9 -10 0 -9 7 -15 16 -13 10 2 19 -3 21 -9 3 -7
0 -13 -6 -13 -6 0 19 -30 55 -67 36 -38 93 -105 127 -151 34 -46 63 -78 65
-72 3 8 8 7 18 -1 10 -8 11 -15 4 -24 -7 -8 0 -26 21 -60 17 -26 58 -104 91
-173 36 -74 64 -119 68 -112 5 8 9 6 14 -6 4 -10 2 -20 -4 -24 -7 -4 -1 -32
19 -81 16 -41 44 -125 62 -187 20 -71 35 -108 41 -100 4 8 8 -8 8 -39 0 -28 4
-54 10 -58 5 -3 7 -12 4 -20 -3 -7 3 -49 14 -92 11 -43 23 -104 27 -135 3 -32
10 -60 14 -63 5 -2 9 -30 9 -62 1 -32 8 -105 16 -163 9 -58 16 -128 16 -157 0
-30 5 -53 12 -55 7 -3 8 -9 3 -18 -5 -7 -8 -81 -8 -163 1 -149 1 -149 -24
-142 -18 4 -24 2 -20 -7 2 -7 10 -12 16 -10 6 1 11 -5 11 -15 0 -9 -3 -13 -7
-10 -3 4 -11 0 -17 -9 -12 -16 -6 -113 9 -148 6 -14 5 -17 -3 -12 -8 5 -10 -1
-6 -21 3 -15 6 -35 7 -43 2 -8 6 -20 9 -26 4 -6 5 -22 2 -35 -3 -13 -6 -46 -7
-74 -1 -27 -6 -53 -12 -57 -6 -5 -5 -12 5 -17 10 -7 17 -6 22 2 5 7 7 -8 6
-33 -2 -32 1 -44 10 -42 6 1 12 -7 12 -18 0 -11 -7 -20 -15 -20 -8 0 -15 -4
-15 -10 0 -5 6 -10 14 -10 8 0 16 -18 20 -52 10 -72 25 -2228 16 -2228 -3 0
-4 -58 -3 -129 2 -124 3 -130 28 -155 14 -14 28 -26 30 -26 10 0 -3 3359 -13
3440 -6 47 -13 114 -16 150 -27 364 -115 802 -221 1095 -74 203 -198 432 -313
575 -91 114 -237 263 -305 311 -80 56 -111 61 -169 27z m87 -37 c3 -5 1 -12
-5 -16 -5 -3 -10 1 -10 9 0 18 6 21 15 7z m-190 -192 c8 -11 -28 -55 -59 -71
-12 -7 -22 -6 -29 1 -8 8 -2 21 23 46 35 36 54 43 65 24z m39 -121 c3 -17 2
-36 -4 -42 -7 -7 -10 -1 -10 16 0 15 -5 28 -12 30 -6 2 -8 10 -4 16 12 20 23
13 30 -20z m-34 -193 c7 -9 10 -18 7 -21 -10 -11 -37 5 -37 21 0 19 14 19 30
0z m4 -201 c10 -25 7 -62 -5 -69 -6 -4 -8 -13 -5 -21 3 -8 1 -14 -4 -14 -6 0
-10 5 -10 11 0 5 -4 7 -10 4 -5 -3 -10 3 -10 14 0 12 -7 21 -15 21 -8 0 -15 7
-15 15 0 20 -48 31 -72 16 -14 -9 -18 -8 -18 4 0 8 8 15 18 16 27 1 53 7 60
13 13 13 80 6 86 -10z m61 -234 c-3 -5 -11 -10 -16 -10 -6 0 -7 5 -4 10 3 6
11 10 16 10 6 0 7 -4 4 -10z m390 0 c3 -5 2 -10 -4 -10 -5 0 -13 5 -16 10 -3
6 -2 10 4 10 5 0 13 -4 16 -10z m-338 -62 c-3 -7 -5 -2 -5 12 0 14 2 19 5 13
2 -7 2 -19 0 -25z m43 12 c0 -11 -4 -20 -9 -20 -7 0 -8 17 -2 38 4 10 11 -2
11 -18z m-95 -120 c3 -5 1 -10 -4 -10 -6 0 -11 5 -11 10 0 6 2 10 4 10 3 0 8
-4 11 -10z m82 -92 c-3 -8 -6 -5 -6 6 -1 11 2 17 5 13 3 -3 4 -12 1 -19z
m-457 -663 c0 -8 -4 -17 -10 -20 -6 -4 -10 5 -10 20 0 15 4 24 10 20 6 -3 10
-12 10 -20z m-52 -123 c3 -17 -2 -22 -17 -22 -14 0 -21 6 -21 18 0 38 33 41
38 4z m885 -89 c-7 -2 -19 -2 -25 0 -7 3 -2 5 12 5 14 0 19 -2 13 -5z m-318
-79 c147 -17 211 -28 292 -50 51 -13 103 -22 117 -18 17 4 32 -2 58 -24 27
-24 136 -82 154 -82 3 0 10 12 16 28 10 24 12 25 16 7 7 -33 -11 -652 -19
-625 -4 14 -7 42 -8 62 -1 28 -7 42 -25 53 -45 30 -212 83 -347 111 -269 56
-592 30 -855 -70 -38 -15 -82 -33 -97 -41 -16 -8 -33 -13 -38 -9 -5 3 -9 107
-9 234 0 230 0 230 40 255 22 14 44 25 50 25 14 0 12 9 -6 27 -24 24 -2 32 98
37 45 2 108 13 138 23 30 11 107 28 170 37 63 10 124 22 135 27 11 5 34 6 50
3 17 -3 48 -7 70 -10z m867 -306 c-7 -7 -12 -8 -12 -2 0 14 12 26 19 19 2 -3
-1 -11 -7 -17z m-42 -17 c0 -6 -4 -13 -10 -16 -5 -3 -10 1 -10 9 0 9 5 16 10
16 6 0 10 -4 10 -9z m47 -33 c-3 -8 -6 -5 -6 6 -1 11 2 17 5 13 3 -3 4 -12 1
-19z m-37 -28 c0 -11 -2 -20 -4 -20 -2 0 -6 9 -9 20 -3 11 -1 20 4 20 5 0 9
-9 9 -20z m40 -32 c0 -21 -3 -29 -10 -22 -5 5 -7 19 -4 32 9 31 14 27 14 -10z
m0 -68 c0 -5 -7 -7 -15 -4 -8 4 -15 8 -15 10 0 2 7 4 15 4 8 0 15 -4 15 -10z
m-33 -117 c-3 -10 -5 -2 -5 17 0 19 2 27 5 18 2 -10 2 -26 0 -35z m-1457 -73
c0 -5 -4 -10 -8 -10 -5 0 -15 -11 -22 -25 -8 -15 -22 -25 -36 -25 -30 0 -38
14 -17 31 15 12 16 12 10 -3 -4 -12 -2 -18 7 -18 7 0 13 10 12 23 -1 14 6 24
19 29 30 9 35 9 35 -2z m580 -81 c0 -4 -5 -20 -10 -35 -9 -23 -15 -26 -40 -20
-32 6 -33 5 -24 -18 3 -8 12 -12 20 -9 9 3 14 -2 14 -17 0 -16 4 -20 15 -16 8
3 15 1 15 -4 0 -6 0 -13 0 -17 0 -5 -6 -8 -12 -8 -7 0 -15 -3 -18 -7 -3 -3
-17 -9 -33 -13 -21 -6 -28 -3 -33 11 -3 11 -10 27 -15 36 -5 10 -9 24 -9 32 0
8 -12 28 -26 45 -26 31 -26 31 15 31 23 0 41 -4 41 -10 0 -5 9 -10 19 -10 11
0 23 -5 26 -10 5 -8 11 -7 21 1 20 17 17 28 -6 22 -13 -4 -20 0 -20 9 0 10 10
15 30 15 17 0 30 -4 30 -8z m20 -158 c0 -5 -7 -14 -15 -21 -16 -14 -18 -10 -9
14 6 17 24 22 24 7z m-375 -151 c3 -5 1 -10 -4 -10 -6 0 -11 5 -11 10 0 6 2
10 4 10 3 0 8 -4 11 -10z m-255 -64 c0 -3 -4 -8 -10 -11 -5 -3 -10 -1 -10 4 0
6 5 11 10 11 6 0 10 -2 10 -4z m1307 -853 c-2 -16 -4 -3 -4 27 0 30 2 43 4 28
2 -16 2 -40 0 -55z m50 -1395 c-3 -7 -5 -2 -5 12 0 14 2 19 5 13 2 -7 2 -19 0
-25z m55 -283 c-9 -70 -9 -70 -11 36 0 58 2 109 7 113 11 12 14 -72 4 -149z
m-42 74 c0 -5 -4 -9 -10 -9 -5 0 -10 7 -10 16 0 8 5 12 10 9 6 -3 10 -10 10
-16z m-1500 -585 c0 -8 -4 -12 -10 -9 -5 3 -10 10 -10 16 0 5 5 9 10 9 6 0 10
-7 10 -16z m200 -164 c0 -5 -4 -10 -10 -10 -5 0 -10 5 -10 10 0 6 5 10 10 10
6 0 10 -4 10 -10z m521 -53 c-1 -12 -15 -9 -19 4 -3 6 1 10 8 8 6 -3 11 -8 11
-12z m7 -44 c-4 -21 -49 -25 -56 -5 -2 7 2 10 12 6 9 -3 16 -1 16 5 0 6 7 11
16 11 9 0 14 -7 12 -17z m6 -69 c9 -3 16 -12 16 -20 0 -18 -44 -18 -59 -1 -18
23 7 35 43 21z m-299 -75 c10 -15 -1 -23 -20 -15 -9 3 -13 10 -10 16 8 13 22
13 30 -1z m830 -507 c0 -18 -20 -15 -23 4 -3 10 1 15 10 12 7 -3 13 -10 13
-16z m52 -308 c-3 -3 -12 -4 -19 -1 -8 3 -5 6 6 6 11 1 17 -2 13 -5z"/>
<path d="M12907 18133 c-13 -12 -7 -149 8 -201 9 -29 14 -56 11 -61 -5 -8 8
-95 24 -160 7 -24 5 -40 -6 -56 -14 -22 -13 -25 16 -55 23 -24 35 -29 43 -21
20 20 34 12 29 -18 -2 -16 1 -57 6 -92 27 -170 44 -254 52 -257 4 -2 6 -12 3
-22 -4 -15 4 -23 33 -37 22 -10 62 -41 89 -69 57 -60 90 -80 98 -61 6 17 -36
254 -66 372 -41 157 -102 326 -167 458 -33 67 -66 131 -73 142 -6 11 -29 48
-50 83 -41 66 -40 65 -50 55z"/>
<path d="M12720 17827 c0 -53 -5 -85 -15 -101 -14 -21 -14 -25 3 -46 15 -19
22 -21 39 -12 17 9 22 9 27 -4 8 -22 8 -25 -6 -23 -31 4 -38 -3 -38 -36 0 -32
2 -34 20 -23 11 7 21 17 23 23 3 5 3 -2 1 -17 -2 -15 1 -30 7 -34 6 -3 9 -19
7 -35 -3 -19 1 -30 11 -34 9 -3 17 -1 19 5 3 8 8 7 18 -1 11 -9 18 -9 26 -1 6
6 17 8 24 5 11 -4 12 0 6 18 -5 13 -7 29 -5 36 2 6 -1 14 -6 18 -6 3 -11 -1
-11 -9 0 -9 -4 -16 -9 -16 -16 0 1 39 20 45 10 3 21 15 24 26 10 29 -3 37 -13
9 -6 -15 -11 -19 -16 -12 -4 7 -4 12 0 12 3 0 1 7 -6 15 -7 8 -23 15 -37 15
-13 0 -22 4 -19 9 3 4 16 6 29 4 18 -4 26 0 30 16 5 22 -14 43 -21 23 -5 -15
-32 -16 -32 -2 0 6 5 10 10 10 6 0 10 5 10 10 0 6 -7 10 -15 10 -20 0 -19 18
1 22 13 2 12 6 -5 25 -18 19 -19 24 -6 37 21 20 20 21 -26 36 -22 8 -47 23
-55 34 -13 18 -14 13 -14 -57z m70 -119 c0 -29 -6 -37 -10 -13 -1 6 -6 18 -11
28 -7 13 -6 17 6 17 10 0 15 -10 15 -32z m13 -108 c3 -11 1 -23 -4 -26 -5 -3
-9 6 -9 20 0 31 6 34 13 6z m62 -80 c3 -5 2 -10 -4 -10 -5 0 -13 5 -16 10 -3
6 -2 10 4 10 5 0 13 -4 16 -10z"/>
<path d="M12839 17450 c-7 -11 -12 -12 -15 -3 -8 18 -35 -14 -62 -72 -13 -28
-28 -58 -33 -68 -8 -14 -6 -24 8 -39 12 -15 14 -22 6 -25 -21 -8 -2 -33 26
-34 14 0 35 -4 46 -9 12 -5 -14 -6 -65 -3 -86 5 -86 5 -85 -24 0 -15 5 -34 12
-40 6 -7 13 -18 15 -24 5 -16 208 7 227 26 12 12 12 17 -1 37 -21 33 -29 58
-18 58 5 0 12 -9 15 -20 4 -11 11 -18 16 -15 5 4 9 1 9 -4 0 -6 8 -11 19 -11
12 0 20 9 23 25 7 33 -10 43 -21 13 -7 -17 -10 -19 -10 -5 -1 9 -8 17 -16 17
-17 0 -18 6 -5 35 8 19 9 19 9 -2 1 -13 6 -23 11 -23 12 0 2 52 -12 61 -5 3
-6 13 -2 22 3 10 1 17 -6 17 -7 0 -9 8 -5 20 3 11 2 20 -3 20 -5 0 -6 20 -2
45 7 44 7 44 -32 42 -22 -1 -44 -9 -49 -17z m71 -10 c0 -5 -2 -10 -4 -10 -3 0
-8 5 -11 10 -3 6 -1 10 4 10 6 0 11 -4 11 -10z m-94 -60 c1 -22 -2 -37 -7 -34
-11 6 -12 74 -1 74 4 0 8 -18 8 -40z m70 -38 c-10 -10 -29 15 -21 28 6 9 10 8
17 -4 6 -10 7 -20 4 -24z m-101 18 c3 -5 1 -10 -4 -10 -6 0 -11 5 -11 10 0 6
2 10 4 10 3 0 8 -4 11 -10z m110 -40 c3 -5 1 -10 -4 -10 -6 0 -11 5 -11 10 0
6 2 10 4 10 3 0 8 -4 11 -10z m-35 -60 c0 -5 -5 -10 -11 -10 -5 0 -7 5 -4 10
3 6 8 10 11 10 2 0 4 -4 4 -10z m27 -76 c-3 -3 -12 -4 -19 -1 -8 3 -5 6 6 6
11 1 17 -2 13 -5z m-161 -25 c7 -12 -15 -31 -28 -23 -4 3 -8 12 -8 20 0 17 26
19 36 3z m54 -4 c0 -8 -7 -15 -15 -15 -8 0 -15 7 -15 15 0 8 7 15 15 15 8 0
15 -7 15 -15z m40 -10 c0 -8 -4 -15 -9 -15 -5 0 -11 7 -15 15 -3 9 0 15 9 15
8 0 15 -7 15 -15z m31 2 c-1 -12 -15 -9 -19 4 -3 6 1 10 8 8 6 -3 11 -8 11
-12z"/>
<path d="M12521 17274 c13 -14 40 -33 59 -42 35 -17 35 -17 -35 -22 -57 -4
-73 -2 -87 12 -20 20 -44 15 -58 -11 -6 -12 -32 -22 -79 -30 -72 -13 -77 -16
-62 -39 14 -23 313 -59 381 -46 28 6 29 7 10 23 -12 10 -22 34 -25 61 -3 27
-12 49 -22 55 -9 6 -31 22 -48 38 -42 35 -67 36 -34 1z m33 -100 c3 -9 -1 -14
-14 -14 -21 0 -34 15 -25 30 7 12 32 2 39 -16z m-164 -24 c0 -5 -5 -10 -11
-10 -5 0 -7 5 -4 10 3 6 8 10 11 10 2 0 4 -4 4 -10z"/>
<path d="M12940 15131 c-14 -3 -25 -13 -26 -21 -1 -8 -4 -26 -9 -39 -6 -20 -4
-23 9 -18 13 5 15 2 10 -18 -6 -24 5 -31 39 -26 4 0 7 -5 7 -13 0 -7 7 -19 15
-26 8 -7 15 -23 15 -35 0 -19 7 -23 43 -27 23 -3 65 -16 92 -29 47 -23 51 -27
60 -76 6 -28 14 -55 19 -60 5 -4 6 3 3 17 -3 14 -9 45 -12 70 -13 95 -36 232
-42 246 -3 8 -11 13 -17 11 -6 -3 -19 3 -29 12 -20 17 -99 41 -132 39 -11 0
-31 -3 -45 -7z"/>
<path d="M12477 13192 c-21 -23 -22 -58 -2 -66 10 -4 15 1 15 14 0 23 28 40
69 40 36 0 61 -23 61 -55 0 -13 6 -26 13 -28 7 -4 6 -6 -5 -6 -9 -1 -19 -7
-21 -13 -4 -10 -6 -10 -6 0 -1 6 -6 12 -12 12 -5 0 -8 -4 -5 -8 3 -4 -20 -9
-50 -10 -29 0 -73 -6 -96 -13 -24 -6 -55 -13 -71 -15 -37 -4 -46 -11 -44 -34
1 -23 8 -24 57 -10 74 20 100 21 100 5 0 -8 -6 -24 -12 -35 -10 -15 -10 -24
-1 -38 6 -10 14 -49 18 -85 7 -67 18 -90 29 -62 3 9 17 20 31 25 19 7 26 16
23 32 -4 29 -35 35 -53 11 -13 -17 -14 -16 -15 12 0 30 0 30 55 27 30 -2 55
-7 55 -10 0 -4 -6 -29 -13 -57 -12 -43 -17 -50 -48 -58 -34 -10 -34 -10 -5
-18 46 -13 61 2 75 78 7 37 17 73 23 81 6 7 10 43 9 82 -2 57 1 70 13 70 8 0
18 -5 21 -10 4 -6 12 -4 21 5 20 19 40 19 48 -1 3 -8 11 -12 17 -9 5 4 8 10 5
13 -3 3 -1 11 5 18 7 9 7 19 -1 33 -13 25 -14 25 -73 7 -50 -15 -57 -10 -57
39 0 40 -25 55 -94 55 -48 0 -67 -4 -79 -18z m143 -2 c8 -5 12 -11 9 -14 -3
-3 -14 1 -25 9 -21 16 -8 20 16 5z m0 -218 c0 -50 -8 -58 -58 -65 -50 -6 -75
12 -70 52 3 23 7 26 48 27 28 1 48 7 54 17 15 24 26 10 26 -31z"/>
<path d="M11970 12855 c0 -3 10 -10 23 -15 22 -9 22 -9 0 -9 -14 -1 -21 -6
-17 -14 4 -10 -3 -12 -26 -9 -27 4 -30 1 -30 -21 0 -14 -7 -33 -16 -41 -16
-17 -13 -19 24 -16 29 2 39 -26 18 -49 -19 -21 -42 -151 -32 -177 6 -16 8 -15
22 4 8 12 26 22 39 22 20 0 24 -6 27 -37 2 -21 8 -37 13 -36 6 2 11 56 13 129
3 125 3 126 25 120 12 -3 87 -18 167 -32 80 -14 147 -28 150 -30 2 -3 3 -73 1
-156 -2 -121 0 -149 11 -146 10 4 13 39 13 148 0 93 4 144 11 147 6 2 23 -8
38 -22 26 -24 30 -25 50 -12 19 13 39 11 171 -14 83 -15 158 -26 168 -23 15 5
17 -5 17 -103 1 -92 3 -105 14 -90 10 13 12 41 8 107 -2 50 -1 90 3 90 4 0 49
-7 100 -16 88 -15 94 -15 114 2 34 29 27 47 -14 40 -19 -4 -35 -3 -35 2 0 5
-13 7 -28 4 -61 -8 -195 30 -154 45 6 3 12 14 12 26 -1 21 -1 22 -15 3 -17
-23 9 -26 -490 63 -351 63 -323 56 -327 89 -2 22 -8 28 -35 30 -18 2 -33 1
-33 -3z m70 -81 c41 -8 100 -21 130 -29 30 -7 78 -16 105 -20 28 -3 67 -11 88
-17 44 -13 52 -40 10 -33 -16 2 -44 6 -63 9 -19 3 -46 7 -60 10 -14 3 -61 10
-105 16 -210 28 -215 30 -215 56 0 29 8 29 110 8z m595 -119 c65 -14 75 -17
75 -26 0 -12 -39 -11 -117 2 -61 11 -77 21 -50 33 11 5 37 2 92 -9z"/>
</g>
</svg>
