<?xml version="1.0" standalone="no"?>
<!DOCTYPE svg PUBLIC "-//W3C//DTD SVG 20010904//EN"
 "http://www.w3.org/TR/2001/REC-SVG-20010904/DTD/svg10.dtd">
<svg version="1.0" xmlns="http://www.w3.org/2000/svg"
 width="2504.000000pt" height="3130.000000pt" viewBox="0 0 2504.000000 3130.000000"
 preserveAspectRatio="xMidYMid meet">
<metadata>
Created by potrace 1.16, written by Peter Selinger 2001-2019
</metadata>
<g transform="translate(0.000000,3130.000000) scale(0.100000,-0.100000)"
fill="#989eaa" stroke="none">
<path d="M12586 18971 c-7 -75 -9 -79 -34 -86 -37 -9 -94 -53 -187 -144 -148
-146 -204 -212 -289 -344 -57 -89 -166 -295 -166 -315 0 -6 -7 -23 -15 -39
-34 -65 -69 -171 -70 -210 0 -27 -5 -43 -12 -43 -13 0 -43 -88 -43 -126 0 -12
5 -24 11 -26 6 -2 8 -14 4 -31 -4 -15 -11 -24 -16 -21 -14 8 -29 -42 -24 -78
4 -24 3 -28 -3 -13 -8 18 -9 17 -14 -7 -3 -15 -1 -33 3 -40 12 -19 11 -58 -2
-58 -5 0 -8 -4 -4 -9 3 -5 2 -35 -1 -66 -5 -36 -10 -52 -15 -43 -7 10 -9 9 -9
-5 0 -10 -4 -15 -10 -12 -6 4 -10 -9 -10 -32 -1 -21 -3 -65 -5 -98 -3 -43 -2
-52 4 -30 8 28 9 28 10 -13 0 -24 -3 -51 -8 -60 -5 -9 -11 -85 -14 -168 -6
-145 -17 -238 -39 -334 -17 -70 -22 -3473 -5 -3467 8 2 12 29 12 80 0 43 2 77
5 77 3 0 5 21 6 48 1 26 3 70 6 97 2 28 0 93 -4 145 -5 52 -8 487 -8 965 0
479 0 1062 0 1298 0 255 4 427 9 427 6 0 10 -80 11 -187 0 -103 2 -188 3 -189
1 -1 13 3 27 8 22 8 23 11 10 21 -16 13 -23 87 -8 87 5 0 7 4 4 9 -4 5 0 12 6
14 10 4 10 8 -2 16 -12 8 -10 12 11 19 23 9 25 14 22 65 -2 41 2 57 12 61 16
6 10 35 -9 48 -7 5 -4 8 7 8 9 0 17 5 17 10 0 6 9 10 20 10 11 0 20 5 20 10 0
6 -7 10 -15 10 -8 0 -15 5 -15 10 0 6 7 10 15 10 20 0 32 69 14 82 -11 7 -11
11 -2 15 9 3 10 10 4 21 -4 9 -7 34 -5 54 2 21 -1 40 -6 43 -16 10 -11 25 7
25 9 0 13 3 9 8 -8 7 -13 8 -42 11 -14 1 -14 2 0 17 20 19 21 43 2 50 -8 3
-12 12 -9 20 3 8 9 11 14 8 9 -5 13 15 9 50 -1 10 4 22 11 27 7 4 14 23 16 43
1 19 12 54 23 77 19 36 24 40 32 25 6 -11 6 -33 -1 -64 -8 -32 -13 -341 -16
-952 -3 -498 -7 -926 -10 -952 -4 -37 -2 -46 10 -44 25 4 28 13 31 108 1 51 7
146 14 210 6 65 9 122 6 127 -15 23 30 116 77 163 27 26 54 48 60 48 7 0 34
11 62 25 27 14 55 23 62 21 7 -3 13 -1 13 3 0 20 114 40 270 47 58 3 107 10
108 15 5 12 29 12 34 0 2 -6 44 -12 93 -14 50 -3 97 -7 105 -10 8 -3 44 -13
80 -22 36 -9 74 -21 85 -26 111 -48 138 -57 150 -53 8 4 15 1 15 -6 0 -6 16
-30 35 -53 19 -22 35 -46 35 -53 0 -7 4 -14 10 -16 5 -2 14 -28 20 -58 12 -61
40 -467 40 -571 0 -69 15 -123 32 -113 5 3 6 -16 2 -47 -5 -38 -4 -50 5 -45 7
5 11 -4 11 -26 0 -25 -3 -29 -10 -18 -7 10 -10 -25 -12 -110 -2 -159 1 -203
15 -265 8 -32 10 -88 6 -155 -3 -58 -6 -86 -7 -62 -1 23 -7 42 -13 42 -10 0
-8 -121 5 -240 4 -36 3 -39 -3 -15 -6 22 -9 6 -10 -62 0 -50 -4 -99 -8 -109
-5 -13 -3 -16 10 -11 11 4 17 1 17 -8 0 -8 -7 -15 -15 -15 -11 0 -15 -12 -15
-49 0 -26 -3 -76 -6 -110 -6 -54 -5 -61 10 -61 10 0 16 -6 13 -12 -2 -7 -10
-12 -16 -11 -6 2 -11 -4 -11 -12 0 -13 4 -14 20 -5 19 10 20 8 20 -33 0 -54
-16 -74 -42 -50 -14 13 -25 14 -45 7 -37 -13 -34 -28 5 -32 17 -2 32 -7 32
-13 0 -5 9 -9 19 -9 25 0 34 -14 26 -40 -6 -20 -35 -28 -35 -10 0 16 -46 23
-69 10 -28 -14 -18 -30 20 -30 26 0 29 -3 29 -34 0 -18 6 -39 14 -45 11 -9 14
-52 15 -197 2 -213 9 -197 -119 -280 -70 -45 -132 -60 -355 -85 -121 -14 -426
-5 -577 16 -120 17 -129 19 -181 53 -30 20 -35 27 -25 39 6 8 17 12 25 9 9 -4
13 5 14 32 2 189 5 227 16 225 41 -8 138 -24 193 -33 119 -18 107 1 108 -166
1 -81 5 -151 9 -155 4 -4 29 2 55 14 52 24 55 31 42 110 -7 40 -24 51 -25 15
0 -22 -1 -22 -9 -3 -7 16 -9 17 -9 3 -1 -9 -5 -19 -9 -22 -5 -3 -10 33 -11 79
-2 82 -1 85 20 85 34 0 382 -60 398 -69 11 -5 15 -31 16 -94 1 -48 5 -90 9
-94 4 -4 15 -2 26 5 11 7 21 8 25 2 9 -15 45 22 45 47 0 13 -5 23 -11 23 -5 0
-8 -4 -5 -8 2 -4 1 -14 -5 -22 -6 -11 -9 -7 -9 15 -1 28 -2 29 -10 8 -16 -38
-20 -26 -20 53 0 75 0 75 48 69 26 -3 68 -11 94 -16 44 -10 49 -9 75 16 24 22
35 26 71 22 29 -3 42 -1 42 8 0 11 -24 14 -127 17 -18 1 -33 5 -33 10 0 4 -20
5 -44 2 -24 -4 -67 -1 -95 6 -45 10 -49 14 -41 30 13 24 3 50 -17 43 -12 -5
-14 2 -9 38 3 24 8 100 12 169 3 69 7 136 7 150 1 14 -2 26 -8 28 -12 3 -11
12 -20 -231 -7 -166 -10 -187 -24 -183 -18 6 -156 32 -371 71 -236 42 -215 34
-213 80 2 40 2 40 -9 5 -6 -19 -13 -37 -14 -39 -2 -1 -35 3 -74 10 -67 12 -72
15 -85 46 -13 31 -17 33 -64 33 -27 0 -53 -4 -56 -10 -3 -5 -17 -10 -31 -10
-13 0 -24 -4 -24 -9 0 -5 -9 -7 -21 -4 -19 5 -19 7 10 25 43 27 43 71 1 93
-36 18 -41 52 -8 57 30 4 33 23 4 36 -22 10 -24 17 -24 74 0 35 3 67 6 73 8
12 3 163 -6 190 -9 27 -20 -57 -21 -159 -1 -44 -4 -76 -8 -72 -4 4 -8 143 -9
309 -1 166 -3 390 -4 497 -4 270 1 475 9 395 7 -60 7 -60 15 25 4 47 5 117 1
155 -3 39 -7 107 -9 152 -1 45 -5 85 -9 89 -4 4 -7 -6 -7 -22 0 -49 -12 -104
-21 -98 -13 8 -11 -20 3 -34 9 -9 9 -15 0 -24 -7 -7 -12 -19 -12 -28 0 -13 1
-13 10 0 8 12 10 9 10 -12 0 -16 -3 -28 -7 -28 -5 0 -8 -33 -8 -73 -1 -83 -10
-269 -25 -466 -13 -172 -19 -274 -19 -329 -1 -35 -5 -45 -21 -49 -25 -7 -26
-23 -2 -24 14 0 14 -2 -3 -9 -13 -6 -15 -9 -5 -9 13 -1 15 -46 17 -338 0 -186
4 -378 7 -428 17 -246 18 -323 5 -361 -13 -39 -13 -39 -20 -4 -8 35 -6 62 6
100 5 16 3 19 -11 13 -15 -6 -16 -2 -10 33 4 21 10 51 13 66 3 15 2 36 -2 45
-4 10 -8 69 -9 131 -1 80 -5 115 -14 121 -7 4 -10 15 -6 24 4 13 1 17 -15 17
-13 0 -19 5 -15 14 8 20 -11 29 -26 12 -17 -21 -8 -215 11 -227 10 -6 16 -3
20 9 10 26 19 -38 23 -158 4 -125 1 -139 -26 -111 -23 26 -42 28 -30 4 5 -10
10 -94 10 -188 1 -184 19 -340 52 -433 14 -40 20 -82 20 -147 0 -130 24 -289
67 -442 14 -52 14 -52 111 -73 303 -66 385 -74 697 -75 256 0 394 11 570 44
76 15 103 16 114 8 11 -9 15 -9 18 1 3 6 13 12 24 12 10 0 19 5 19 11 0 8 5 8
15 -1 12 -10 16 -9 21 4 3 8 21 18 39 22 30 5 33 9 48 72 26 107 47 258 53
382 3 63 12 142 19 175 7 33 18 105 25 160 6 55 16 118 21 140 10 47 15 244
12 513 -3 185 -4 192 -23 192 -22 0 -26 -10 -9 -27 7 -7 3 -12 -16 -15 -33 -7
-39 4 -24 47 9 25 10 38 2 46 -6 6 -9 31 -7 57 6 68 -6 34 -21 -61 -13 -82
-13 -82 -14 118 -1 110 -6 268 -11 350 -11 185 -21 558 -14 527 4 -17 10 -22
21 -17 9 3 20 0 25 -7 5 -9 8 -3 9 17 3 77 9 138 13 142 2 2 2 -172 -1 -386
-5 -391 -5 -391 25 -421 17 -16 34 -30 39 -30 4 0 6 681 4 1512 -2 832 -4
1612 -3 1733 0 126 -3 211 -8 200 -8 -18 -9 -18 -10 5 -1 14 -6 84 -11 155
-11 169 -32 357 -41 371 -4 7 -11 50 -14 98 -4 47 -10 86 -15 86 -4 0 -10 19
-14 43 -16 112 -92 388 -140 512 -85 218 -204 432 -316 567 -126 154 -325 342
-374 354 -20 5 -21 10 -17 85 3 43 2 79 0 79 -3 0 -9 -36 -12 -79z m16 -293
c-3 -61 -1 -79 11 -83 18 -7 17 -99 -1 -117 -17 -17 -15 -78 3 -98 18 -20 33
-86 17 -76 -20 12 -26 -17 -6 -31 16 -12 17 -15 4 -23 -22 -14 -38 -12 -58 8
-16 16 -18 43 -20 261 -3 242 -3 242 25 239 28 -3 28 -3 25 -80z m-192 -50 c0
-16 -51 -68 -67 -68 -23 0 -14 24 19 52 36 30 48 34 48 16z m406 -48 c8 0 14
-7 14 -15 0 -24 -34 -17 -63 13 -33 34 -25 49 11 22 13 -11 31 -20 38 -20z
m-289 -27 c-3 -10 -5 -4 -5 12 0 17 2 24 5 18 2 -7 2 -21 0 -30z m293 -64 c0
-5 -4 -9 -10 -9 -5 0 -10 7 -10 16 0 8 5 12 10 9 6 -3 10 -10 10 -16z m140
-173 c0 -5 -7 -3 -15 4 -8 7 -12 17 -9 22 7 10 24 -9 24 -26z m-190 -7 c0 -5
-7 -9 -15 -9 -15 0 -20 12 -9 23 8 8 24 -1 24 -14z m-360 1 c0 -5 -4 -10 -10
-10 -5 0 -10 5 -10 10 0 6 5 10 10 10 6 0 10 -4 10 -10z m300 -55 c0 -8 -4
-15 -10 -15 -5 0 -10 7 -10 15 0 8 5 15 10 15 6 0 10 -7 10 -15z m-721 -79
c-37 -78 -54 -81 -19 -3 26 57 41 80 47 74 2 -3 -11 -34 -28 -71z m903 -146
c1 -27 2 -60 2 -72 1 -20 -3 -23 -32 -20 -17 2 -51 9 -75 16 -42 14 -42 14 -9
26 24 9 32 18 32 36 0 13 5 24 10 24 6 0 10 9 10 20 0 16 7 20 30 20 29 0 30
-2 32 -50z m-967 3 c-9 -20 -18 -39 -20 -42 -10 -9 -5 29 7 54 18 40 30 29 13
-12z m989 -128 c3 -8 1 -15 -4 -15 -6 0 -10 7 -10 15 0 8 2 15 4 15 2 0 6 -7
10 -15z m-464 -182 c0 -106 -4 -153 -10 -143 -13 20 -13 300 0 300 6 0 10 -59
10 -157z m-410 -113 c0 -5 -2 -10 -4 -10 -3 0 -8 5 -11 10 -3 6 -1 10 4 10 6
0 11 -4 11 -10z m980 -50 c0 -5 -5 -10 -11 -10 -5 0 -7 5 -4 10 3 6 8 10 11
10 2 0 4 -4 4 -10z m-1047 -179 c-6 -3 -16 -45 -23 -93 -7 -48 -17 -85 -22
-82 -7 5 -12 -33 -9 -81 2 -29 -36 -74 -47 -57 -9 13 -4 58 20 167 10 48 16
60 31 57 21 -4 23 14 2 22 -8 3 -15 11 -15 19 0 25 25 67 37 62 7 -2 16 1 20
7 5 9 8 8 11 -1 2 -7 0 -16 -5 -20z m474 -173 c-3 -7 -5 -2 -5 12 0 14 2 19 5
13 2 -7 2 -19 0 -25z m265 0 c-9 -9 -12 -7 -12 12 0 19 3 21 12 12 9 -9 9 -15
0 -24z m-1006 -15 c-10 -10 -19 5 -10 18 6 11 8 11 12 0 2 -7 1 -15 -2 -18z
m1369 -3 c3 -5 -1 -10 -10 -10 -9 0 -13 5 -10 10 3 6 8 10 10 10 2 0 7 -4 10
-10z m-1265 -75 c0 -8 -7 -15 -15 -15 -8 0 -15 7 -15 15 0 8 7 15 15 15 8 0
15 -7 15 -15z m1258 -205 c4 -10 6 -39 4 -63 -4 -44 -4 -44 -55 -51 -29 -3
-66 -6 -82 -6 -29 0 -30 2 -32 46 -3 53 12 73 60 84 61 15 97 11 105 -10z
m-361 -27 c-3 -10 -5 -4 -5 12 0 17 2 24 5 18 2 -7 2 -21 0 -30z m427 -19 c19
-7 22 -53 4 -55 -42 -4 -62 14 -47 43 10 19 18 21 43 12z m-1084 -29 c0 -8 -7
-15 -15 -15 -16 0 -20 12 -8 23 11 12 23 8 23 -8z m397 -62 c-3 -10 -5 -2 -5
17 0 19 2 27 5 18 2 -10 2 -26 0 -35z m260 -15 c-2 -13 -4 -5 -4 17 -1 22 1
32 4 23 2 -10 2 -28 0 -40z m-562 -1 c7 -6 -2 -7 -25 -3 -19 3 -39 11 -44 16
-7 7 1 8 24 4 19 -4 40 -11 45 -17z m58 -14 c-7 -2 -21 -2 -30 0 -10 3 -4 5
12 5 17 0 24 -2 18 -5z m70 -10 c-7 -2 -21 -2 -30 0 -10 3 -4 5 12 5 17 0 24
-2 18 -5z m427 -83 c58 -6 128 -17 155 -25 137 -39 159 -44 181 -39 16 4 30
-1 48 -19 25 -25 148 -87 173 -87 12 0 14 -37 12 -235 -1 -137 -5 -235 -11
-235 -5 0 -27 9 -50 21 -52 26 -195 73 -274 89 -32 6 -67 16 -77 21 -10 5
-100 13 -200 18 -248 11 -276 11 -252 1 14 -5 -1 -9 -50 -14 -117 -11 -390
-91 -442 -129 -7 -5 -16 -6 -20 -4 -7 4 -10 287 -4 427 1 34 5 38 66 68 36 17
65 36 65 42 0 18 40 33 55 20 10 -9 19 -8 36 1 52 27 251 71 279 61 9 -3 11
-1 7 4 -10 11 125 33 168 28 17 -2 77 -8 135 -14z m-1045 -298 c-10 -10 -10 3
-5 133 l5 130 3 -129 c1 -71 0 -131 -3 -134z m1 -68 c5 -25 2 -40 -8 -50 -12
-12 -14 -8 -13 36 0 58 11 66 21 14z m1802 -966 c-3 -7 -11 -13 -18 -13 -7 0
-15 6 -17 13 -3 7 4 12 17 12 13 0 20 -5 18 -12z m29 -775 c-3 -10 -5 -4 -5
12 0 17 2 24 5 18 2 -7 2 -21 0 -30z m4 -188 l-10 -60 2 60 c1 58 7 89 14 70
2 -6 -1 -37 -6 -70z m-184 -137 c-2 -18 -4 -6 -4 27 0 33 2 48 4 33 2 -15 2
-42 0 -60z m190 0 c-3 -7 -5 -2 -5 12 0 14 2 19 5 13 2 -7 2 -19 0 -25z m-10
-95 c-2 -16 -4 -3 -4 27 0 30 2 43 4 28 2 -16 2 -40 0 -55z m-1701 -1060 c-11
-11 -19 6 -11 24 8 17 8 17 12 0 3 -10 2 -21 -1 -24z m24 -110 c0 -43 -8 -40
-14 5 -2 18 1 32 5 32 5 0 9 -16 9 -37z m-150 -73 c0 -5 -4 -10 -10 -10 -5 0
-10 5 -10 10 0 6 5 10 10 10 6 0 10 -4 10 -10z m240 -52 c0 -2 -7 -23 -14 -48
-11 -32 -15 -38 -15 -20 -1 34 9 70 20 70 5 0 9 -1 9 -2z m1577 -50 c-3 -8 -6
-5 -6 6 -1 11 2 17 5 13 3 -3 4 -12 1 -19z m-1434 -15 c15 -9 6 -23 -17 -23
-47 0 -86 13 -86 27 0 12 9 14 48 8 26 -4 50 -9 55 -12z m1466 -16 c22 6 31
-25 30 -95 -1 -45 -19 -71 -19 -27 0 16 -4 24 -11 19 -6 -3 -9 -15 -6 -25 3
-10 -1 -23 -8 -29 -10 -8 -12 -36 -9 -110 3 -54 1 -101 -4 -104 -5 -3 -10 24
-11 60 -1 68 -5 84 -22 84 -5 0 -9 -33 -9 -72 0 -48 -3 -68 -9 -59 -9 14 -8
52 5 194 5 57 9 67 25 67 15 0 17 5 13 30 -6 30 5 94 13 74 2 -7 12 -10 22 -7z
m-1609 -126 c0 -47 4 -103 9 -123 10 -42 3 -48 -23 -19 -14 15 -19 43 -22 126
-5 114 -1 133 22 114 10 -8 14 -36 14 -98z m94 -117 c14 -36 7 -50 -26 -50
-35 1 -44 15 -28 45 13 25 45 28 54 5z m-330 -131 c3 -8 -1 -21 -9 -29 -18
-18 -18 -16 -5 -48 13 -35 34 -34 26 2 -6 26 -6 26 9 8 16 -21 21 -96 6 -96
-4 0 -20 18 -35 40 -20 31 -26 52 -26 94 0 44 3 54 14 50 8 -3 17 -12 20 -21z
m67 -26 c-7 -7 -12 -5 -17 7 -4 11 -1 21 7 27 17 11 26 -18 10 -34z m1689 -88
c0 -13 -13 -16 -71 -18 -81 -2 -81 -8 1 87 l45 52 12 -53 c7 -28 12 -59 13
-68z m-1584 24 c44 -43 95 -90 114 -104 32 -25 34 -29 22 -49 -10 -17 -11 -47
-5 -128 4 -59 7 -115 5 -124 -1 -10 2 -18 6 -18 4 0 75 -9 157 -20 83 -11 169
-20 193 -20 43 0 43 0 15 35 -29 36 -63 47 -63 20 0 -8 -4 -15 -10 -15 -5 0
-10 7 -10 15 0 8 -12 17 -27 21 -16 3 -41 9 -58 14 -78 21 -83 21 -87 -2 -2
-13 -11 -24 -20 -26 -15 -3 -18 4 -18 41 0 45 0 45 42 36 23 -6 45 -12 49 -14
4 -3 69 -14 145 -25 200 -30 414 -28 617 5 19 3 27 0 27 -10 0 -8 -7 -15 -15
-15 -7 0 -19 -8 -24 -17 -7 -12 -10 -14 -11 -4 0 10 -14 12 -67 7 -38 -3 -122
-8 -188 -12 -93 -5 -123 -10 -133 -22 -7 -9 -25 -22 -40 -29 -23 -11 12 -12
220 -9 229 4 276 0 254 -21 -3 -3 -137 -7 -298 -9 -226 -2 -302 0 -333 11 -22
7 -85 18 -140 24 -55 6 -121 13 -147 16 -48 6 -48 6 -48 -26 0 -30 -1 -31 -42
-26 -22 3 -55 1 -72 -4 -40 -12 -52 2 -61 67 -7 52 -7 52 62 38 37 -8 79 -13
93 -12 17 3 6 8 -35 17 -131 29 -132 30 -138 56 -2 14 -1 28 3 30 4 3 33 0 64
-6 32 -6 65 -9 74 -7 9 2 -20 10 -65 18 -83 14 -83 14 -83 48 0 31 2 34 25 28
14 -4 46 -9 73 -11 37 -4 31 -1 -27 13 -69 16 -75 19 -83 47 -16 58 -12 255 6
255 1 0 38 -35 82 -77z m1643 -34 c-13 -26 -19 -24 -19 6 0 17 4 23 15 19 11
-5 12 -11 4 -25z m-61 -51 c-3 -33 -3 -33 -93 -50 -119 -22 -122 -22 -127 7
-9 42 22 59 120 66 48 3 91 6 95 7 5 1 7 -13 5 -30z m-848 -48 c0 -5 -2 -10
-4 -10 -3 0 -8 5 -11 10 -3 6 -1 10 4 10 6 0 11 -4 11 -10z m841 -12 c-1 -5
-1 -18 -1 -31 0 -22 -7 -25 -91 -39 -87 -16 -108 -23 -98 -33 4 -4 92 13 162
30 27 7 28 6 25 -26 -3 -34 -4 -34 -73 -46 -99 -18 -115 -22 -115 -32 0 -5 39
0 87 10 105 23 103 23 103 4 0 -8 -4 -15 -9 -15 -5 0 -7 -8 -4 -18 4 -16 -6
-20 -82 -31 -47 -7 -88 -11 -90 -9 -9 9 -25 111 -25 158 0 47 0 47 73 60 39 7
81 16 92 21 23 9 46 7 46 -3z m-1694 -40 c-3 -7 -5 -2 -5 12 0 14 2 19 5 13 2
-7 2 -19 0 -25z m10 -130 c-2 -13 -4 -5 -4 17 -1 22 1 32 4 23 2 -10 2 -28 0
-40z m611 10 c14 -14 -2 -48 -23 -48 -10 0 -14 10 -12 30 2 31 15 38 35 18z
m346 -19 c-2 -23 54 -19 67 4 13 23 25 22 32 -3 3 -11 10 -20 16 -20 6 0 11 9
11 20 0 11 5 20 10 20 6 0 10 -7 10 -15 0 -8 7 -15 15 -15 34 0 12 -20 -22
-21 -21 0 -71 -2 -110 -3 -73 -3 -73 -3 -73 26 0 25 4 29 23 26 13 -2 22 -10
21 -19z m-308 -26 c-11 -11 -17 4 -9 23 7 18 8 18 11 1 2 -10 1 -21 -2 -24z
m147 0 c7 -10 4 -13 -12 -13 -14 0 -21 6 -21 18 0 23 13 38 19 20 2 -7 8 -19
14 -25z m-93 18 c0 -12 -20 -25 -27 -18 -7 7 6 27 18 27 5 0 9 -4 9 -9z m178
-14 c3 -12 -3 -17 -22 -17 -25 0 -35 18 -19 34 12 12 38 2 41 -17z m514 -112
c-4 -80 -4 -80 -75 -104 -40 -13 -77 -26 -83 -28 -14 -5 -24 105 -14 152 5 27
11 31 50 37 86 13 110 20 110 31 0 7 3 7 8 2 4 -6 6 -46 4 -90z m272 48 c-7
-21 -13 -48 -14 -60 0 -20 -6 -22 -75 -25 -71 -3 -76 -2 -81 18 -14 54 -3 66
71 85 39 9 80 17 91 18 21 1 21 -1 8 -36z m-1657 -10 c-3 -10 -5 -4 -5 12 0
17 2 24 5 18 2 -7 2 -21 0 -30z m1680 5 c-3 -8 -6 -5 -6 6 -1 11 2 17 5 13 3
-3 4 -12 1 -19z m39 -145 c-6 -88 -56 -356 -68 -369 -3 -2 -21 -6 -39 -8 -19
-2 -47 -9 -63 -15 -16 -7 -35 -10 -42 -7 -6 2 -16 0 -21 -5 -5 -5 -36 -14 -69
-20 -161 -28 -225 -37 -292 -44 -73 -7 -73 -7 -70 31 3 39 3 39 148 59 163 22
156 18 181 120 18 68 25 75 75 75 44 0 44 0 38 110 -6 110 -6 110 79 110 85 0
85 0 92 30 5 24 12 30 32 30 26 0 26 0 19 -97z m-1693 57 c10 -26 17 -30 64
-36 30 -3 80 -4 113 -2 59 4 59 4 65 -33 8 -48 -5 -143 -15 -114 -7 18 -8 19
-15 3 -4 -10 -14 -18 -22 -18 -8 0 -11 5 -8 10 3 6 -2 13 -11 17 -10 4 -19 2
-22 -5 -2 -7 -8 -12 -14 -12 -6 0 -8 7 -4 15 3 8 1 25 -4 37 -9 23 -9 23 -9 1
-1 -12 -4 -28 -7 -36 -5 -14 -8 -13 -25 1 -22 19 -25 32 -6 32 6 0 17 12 24
26 10 22 9 26 -12 36 -14 6 -22 15 -19 19 6 11 -17 12 -32 1 -7 -4 -13 -16
-15 -26 -2 -10 -12 -24 -21 -30 -29 -18 -51 14 -56 84 -4 57 -3 60 18 60 15 0
25 -9 33 -30z m402 0 c4 -6 -6 -7 -27 -3 -44 8 -48 13 -10 13 17 0 34 -4 37
-10z m563 -25 c100 -4 182 -10 182 -14 0 -4 -35 -7 -77 -6 -77 0 -77 0 -85
-44 -8 -45 -29 -70 -83 -99 -26 -14 -27 -17 -10 -20 10 -2 21 1 23 7 2 6 10
11 18 11 8 0 14 5 14 11 0 6 7 4 15 -5 11 -11 15 -40 15 -120 0 -106 0 -106
-29 -106 -30 0 -50 15 -30 22 17 6 -5 44 -32 59 -38 20 -77 60 -83 85 -7 25
-25 31 -42 14 -6 -6 -34 -19 -64 -29 -48 -17 -56 -17 -76 -4 -15 9 -24 11 -29
4 -3 -6 -32 -10 -64 -10 -31 1 -67 -1 -78 -5 -15 -5 -29 1 -50 23 -26 26 -31
27 -41 12 -8 -12 -10 -5 -5 34 6 44 5 49 -9 37 -19 -15 -26 -3 -43 75 -11 53
-11 53 19 58 52 10 159 1 164 -13 3 -9 -5 -11 -27 -7 -25 4 -31 2 -31 -12 0
-15 -2 -16 -10 -3 -8 13 -11 12 -24 -5 -18 -24 -2 -52 19 -35 8 7 15 7 19 1 3
-5 12 -8 19 -7 40 9 67 19 67 27 0 5 7 9 15 9 8 0 15 7 15 15 0 8 -7 15 -17
15 -9 0 -13 3 -9 7 18 18 221 26 444 18z m134 -102 c6 -7 8 -13 5 -13 -3 0
-12 -3 -21 -6 -18 -7 -22 20 -9 53 7 17 8 17 11 -2 2 -11 9 -26 14 -32z m83
17 c3 -5 1 -10 -4 -10 -6 0 -11 5 -11 10 0 6 2 10 4 10 3 0 8 -4 11 -10z
m-1198 -97 c-3 -10 -5 -2 -5 17 0 19 2 27 5 18 2 -10 2 -26 0 -35z m1170 25
c-3 -8 -6 -5 -6 6 -1 11 2 17 5 13 3 -3 4 -12 1 -19z m-1027 -28 c0 -5 -2 -10
-4 -10 -3 0 -8 5 -11 10 -3 6 -1 10 4 10 6 0 11 -4 11 -10z m-132 -51 c-18
-11 -23 7 -6 25 11 12 13 12 16 -1 2 -9 -2 -19 -10 -24z m1213 9 c5 -21 4 -28
-6 -28 -8 0 -18 -7 -23 -16 -14 -25 -35 -8 -21 17 6 11 8 27 5 34 -6 17 4 27
23 23 8 -2 18 -15 22 -30z m-150 3 c2 2 13 -2 23 -8 15 -8 22 -27 26 -69 4
-33 7 -60 6 -61 -1 -1 -13 -4 -27 -8 -24 -6 -26 -4 -22 18 4 19 0 26 -17 30
-18 5 -21 11 -16 29 3 13 6 39 6 58 0 23 3 30 9 22 4 -8 10 -12 12 -11z m266
-25 c-3 -8 -11 -32 -17 -53 -12 -40 -12 -40 -92 -53 -43 -7 -81 -10 -84 -7 -3
3 3 14 12 26 13 15 21 18 31 10 10 -9 17 -4 30 20 10 17 23 31 30 31 7 0 10 6
7 14 -6 14 14 22 65 25 16 1 22 -3 18 -13z m-1049 -35 c12 -21 22 -47 22 -58
0 -27 27 -61 50 -65 20 -3 19 -4 -4 -30 -17 -18 -21 -28 -13 -31 7 -3 -7 -5
-31 -5 -50 1 -61 12 -38 37 10 11 16 35 16 63 0 38 -5 51 -31 76 -17 17 -28
35 -24 41 12 21 31 11 53 -28z m150 -24 c3 -44 2 -47 -22 -47 -26 0 -48 21
-28 28 7 2 12 16 12 31 0 62 34 51 38 -12z m-381 -59 c-3 -7 -5 -2 -5 12 0 14
2 19 5 13 2 -7 2 -19 0 -25z m179 18 c8 -8 14 -26 14 -40 0 -19 -6 -27 -26
-32 -27 -7 -22 -18 11 -28 11 -3 -6 -3 -38 -1 -32 3 -73 12 -92 19 -28 12 -32
18 -27 42 5 28 5 28 15 6 8 -18 16 -22 34 -17 16 4 25 1 29 -10 8 -19 24 -20
24 -1 0 8 7 16 15 20 11 4 14 13 9 31 -7 28 9 34 32 11z m378 -17 c-2 -4 -14
-4 -27 -1 -18 5 -19 7 -4 10 9 2 17 9 17 15 0 7 4 6 9 -3 6 -8 8 -17 5 -21z
m239 -6 c-13 -2 -35 -2 -50 0 -16 2 -5 4 22 4 28 0 40 -2 28 -4z m54 1 c-3 -3
-12 -4 -19 -1 -8 3 -5 6 6 6 11 1 17 -2 13 -5z m-852 -42 c-8 -8 -25 10 -19
20 4 6 9 5 15 -3 4 -7 6 -15 4 -17z m387 -29 c3 -25 8 -28 63 -38 50 -9 56
-12 37 -19 -26 -9 -99 -1 -141 15 -19 8 -22 12 -12 19 8 4 11 15 8 23 -7 18 1
27 24 27 12 0 19 -9 21 -27z m81 10 c-7 -2 -19 -2 -25 0 -7 3 -2 5 12 5 14 0
19 -2 13 -5z m467 -38 c0 -45 0 -45 -65 -45 -65 0 -65 0 -65 41 0 22 3 38 8
35 4 -2 23 -1 42 4 74 17 80 15 80 -35z m-293 29 c-3 -3 -12 -4 -19 -1 -8 3
-5 6 6 6 11 1 17 -2 13 -5z m50 -15 c-14 -8 -22 -8 -30 0 -8 8 -3 11 19 11 25
-1 27 -2 11 -11z m60 -34 c0 -8 -6 -15 -14 -15 -14 0 -17 12 -6 23 11 11 20 8
20 -8z m-522 -5 c-3 -5 -13 -10 -21 -10 -8 0 -14 5 -14 10 0 6 9 10 21 10 11
0 17 -4 14 -10z m330 0 c18 -8 17 -9 -7 -9 -16 -1 -28 4 -28 9 0 12 8 12 35 0z"/>
<path d="M12415 15409 c-105 -17 -150 -34 -153 -57 -4 -26 -11 -28 -26 -7 -10
14 -17 14 -67 -3 -129 -45 -192 -100 -222 -193 -17 -52 -46 -363 -35 -374 3
-4 13 -7 21 -9 8 -1 22 -9 31 -19 10 -9 25 -17 34 -17 13 0 14 2 4 9 -18 11
185 23 357 22 85 -1 140 -6 149 -13 10 -9 16 -8 23 3 14 22 6 44 -19 47 -12 2
-22 7 -22 12 0 4 -6 8 -12 7 -54 -2 -64 18 -24 48 13 10 27 31 30 47 4 22 11
28 30 28 14 0 29 8 35 17 5 10 12 15 16 11 13 -13 45 27 46 57 1 26 2 27 7 8
7 -23 7 -23 54 10 26 17 55 47 64 66 14 29 18 32 26 18 5 -10 15 -17 22 -17
11 0 11 -13 0 -72 -7 -40 -13 -89 -13 -109 -1 -19 -5 -39 -10 -45 -15 -16 -39
-112 -31 -125 5 -7 13 10 20 44 10 52 14 56 58 77 26 12 67 25 92 29 43 6 45
7 42 38 -3 27 -1 31 17 26 27 -7 45 -29 37 -48 -4 -11 2 -15 25 -15 26 0 92
-23 139 -49 15 -8 21 -21 42 -101 19 -71 21 -17 5 112 -8 62 -13 131 -12 152
3 55 -14 109 -31 95 -16 -13 -27 4 -28 48 -1 20 4 33 12 33 19 0 15 8 -23 49
-33 36 -59 50 -185 101 -121 48 -287 78 -309 54 -5 -5 -11 -18 -14 -29 -4 -16
-5 -14 -6 6 -1 22 -7 27 -38 33 -47 7 -93 6 -158 -5z m513 -102 c16 -19 13
-114 -3 -121 -10 -4 -14 12 -17 65 -3 70 1 80 20 56z m-675 -64 c-7 -91 -13
-93 -13 -5 0 40 4 72 9 72 5 0 6 -30 4 -67z m-2 -318 c0 -65 -3 -120 -6 -123
-3 -3 -5 52 -5 123 0 71 2 126 5 123 3 -3 6 -58 6 -123z"/>
<path d="M12528 13211 c-27 -4 -52 -11 -57 -16 -6 -6 -11 -34 -13 -64 -3 -56
-21 -78 -33 -41 -4 12 -18 26 -31 32 -20 10 -29 8 -52 -9 -22 -17 -27 -28 -26
-60 1 -66 6 -72 55 -63 39 7 46 5 67 -17 21 -23 22 -27 8 -35 -22 -12 -20 -28
3 -28 20 0 24 -11 37 -103 3 -26 10 -49 14 -52 5 -3 29 -8 54 -11 43 -6 46 -5
56 22 7 16 14 50 17 76 6 53 22 72 61 73 14 0 27 6 30 14 3 10 -3 13 -27 9
-31 -5 -31 -5 -31 54 0 57 0 58 25 52 15 -4 25 -2 25 5 0 6 9 11 20 11 11 0
20 -4 20 -10 0 -24 29 -7 35 19 9 41 -10 75 -38 67 -12 -4 -37 -9 -54 -13 -31
-5 -33 -4 -33 21 0 31 -41 77 -67 75 -10 -1 -39 -5 -65 -8z m80 -59 c21 -27
14 -32 -34 -25 -41 5 -49 3 -65 -18 -19 -24 -19 -24 -19 7 0 17 6 36 13 42 30
25 83 22 105 -6z m2 -187 c0 -25 -4 -33 -14 -29 -8 3 -17 1 -20 -5 -5 -7 -15
-7 -32 -1 -14 6 -29 8 -34 5 -15 -9 -21 13 -9 33 8 13 20 17 39 14 16 -2 36 1
47 7 10 6 19 11 21 11 1 0 2 -16 2 -35z m-10 -97 c0 -13 -5 -30 -11 -38 -8
-12 -10 -9 -6 13 4 26 3 27 -39 27 -24 0 -44 5 -44 10 0 6 23 10 50 10 45 0
50 -2 50 -22z"/>
</g>
</svg>
